<svg width="36" height="36" viewBox="0 0 36 36" fill="none" xmlns="http://www.w3.org/2000/svg">
<rect x="0.501953" width="34.999" height="35.7945" rx="12.7269" fill="#3B4958" fill-opacity="0.08"/>
<path fill-rule="evenodd" clip-rule="evenodd" d="M18.5948 10.8674L20.5248 14.7499C20.6214 14.9457 20.8081 15.0824 21.0248 15.114L25.3456 15.7382C25.5206 15.7615 25.6781 15.8532 25.7856 15.9932C25.9873 16.2557 25.9564 16.6274 25.7148 16.8532L22.5831 19.8815C22.4239 20.0315 22.3531 20.2515 22.3948 20.4657L23.1448 24.739C23.1973 25.0932 22.9556 25.4249 22.6014 25.4824C22.4548 25.5049 22.3048 25.4815 22.1714 25.4157L18.3231 23.3982C18.1298 23.2932 17.8981 23.2932 17.7048 23.3982L13.8281 25.4265C13.5039 25.5915 13.1073 25.469 12.9306 25.1515C12.8631 25.0232 12.8398 24.8774 12.8631 24.7349L13.6131 20.4615C13.6506 20.2482 13.5798 20.029 13.4248 19.8782L10.2764 16.8507C10.0198 16.5957 10.0181 16.1807 10.2739 15.924C10.2748 15.9232 10.2756 15.9215 10.2764 15.9207C10.3823 15.8249 10.5123 15.7607 10.6531 15.7357L14.9748 15.1115C15.1906 15.0774 15.3764 14.9424 15.4748 14.7465L17.4031 10.8674C17.4806 10.7099 17.6181 10.589 17.7848 10.534C17.9523 10.4782 18.1356 10.4915 18.2931 10.5707C18.4223 10.6349 18.5281 10.739 18.5948 10.8674Z" stroke="#858D96" stroke-width="1.2" stroke-linecap="round" stroke-linejoin="round"/>
</svg>
