<svg width="60" height="36" viewBox="0 0 60 36" fill="none" xmlns="http://www.w3.org/2000/svg">
<rect x="0.501953" width="59" height="36" rx="12.7269" fill="#3B4958" fill-opacity="0.08"/>
<path d="M22.0591 20.4632C22.1732 21.6952 22.4226 22.8076 23.2924 23.6718C23.437 23.807 23.545 23.9783 23.6058 24.1689C23.6666 24.3596 23.6781 24.5631 23.6393 24.7596C23.5706 25.1745 23.4964 25.5901 23.405 26C23.1989 26.9317 22.2721 27.2967 21.513 26.7306C20.1059 25.6822 19.3056 24.2203 18.8968 22.5249C18.7285 21.8217 18.6549 21.101 18.534 20.362C18.2915 20.3296 18.0078 20.3092 17.7323 20.2501C16.0662 19.8986 14.8681 18.2763 15.0117 16.5824C15.1697 14.7162 16.552 13.3295 18.3238 13.2775C19.0108 13.2571 19.6978 13.236 20.3849 13.2775C21.3467 13.3372 22.2398 13.0953 23.124 12.7515C24.7131 12.132 26.1682 11.2467 27.6405 10.3916C28.3276 9.99365 29.0373 9.63925 29.7147 9.22648C30.794 8.56972 32.1646 9.41915 32.1426 10.7735C32.0973 13.5376 32.1295 16.3039 32.1295 19.0709C32.1295 20.3718 32.1295 21.6727 32.1295 22.9735C32.1295 23.6591 31.8376 24.1619 31.2433 24.4804C30.7363 24.7526 30.2526 24.7462 29.7511 24.4284C28.4004 23.5712 27.0504 22.7099 25.6722 21.9012C24.5445 21.2404 23.3268 20.7557 22.0591 20.4632ZM22.0695 19.303C23.8832 19.7024 25.5259 20.4569 27.0847 21.4041C28.1558 22.0538 29.2042 22.7443 30.2636 23.4158C30.636 23.6514 30.9918 23.4552 31.0193 23.001C31.0193 22.9546 31.0193 22.9074 31.0193 22.8603C31.0193 18.8445 31.0118 14.828 31.0324 10.8114C31.0324 10.2981 30.6586 9.95708 30.1571 10.2559C29.0421 10.9218 27.9016 11.5427 26.7763 12.1904C25.5293 12.9076 24.2569 13.5672 22.8946 14.0285C22.6163 14.122 22.3353 14.2057 22.0646 14.2907L22.0695 19.303ZM20.9331 19.1869V14.418C20.8569 14.411 20.8012 14.4011 20.7462 14.4011C19.9218 14.4011 19.0974 14.3772 18.2778 14.4103C17.0961 14.4588 16.1439 15.5037 16.1033 16.7476C16.0649 17.943 16.9841 19.0885 18.1411 19.1736C19.0596 19.2411 19.9871 19.1869 20.9331 19.1869ZM22.2996 25.8671C22.3807 25.4677 22.4693 25.1049 22.5201 24.7364C22.5298 24.6042 22.4878 24.4734 22.4033 24.3729C21.8273 23.7491 21.4218 22.981 21.2279 22.1459C21.0904 21.5595 21.008 20.9589 20.8995 20.3549H19.7315C19.6635 22.2816 20.6906 24.9586 22.2996 25.8664V25.8671Z" fill="#858D96"/>
<path d="M38.3947 15.5107L44.1545 14.0445C44.5402 13.9464 44.7748 13.5483 44.6783 13.1556C44.5819 12.7628 44.191 12.5239 43.8053 12.6222L38.0455 14.0883C37.6598 14.1865 37.4252 14.5845 37.5217 14.9773C37.6185 15.3717 38.0105 15.6085 38.3947 15.5107Z" fill="#858D96"/>
<path d="M38.0455 21.0116L43.8053 22.4778C44.1901 22.5756 44.5817 22.3382 44.6783 21.9444C44.7748 21.5516 44.5402 21.1536 44.1545 21.0554L38.3947 19.5892C38.009 19.491 37.6181 19.7298 37.5217 20.1226C37.4252 20.5154 37.6598 20.9134 38.0455 21.0116Z" fill="#858D96"/>
</svg>
