<svg width="36" height="36" viewBox="0 0 36 36" fill="none" xmlns="http://www.w3.org/2000/svg">
<rect x="0.000976562" width="36" height="36" rx="12.7269" fill="#3B4958" fill-opacity="0.08"/>
<path d="M27.0001 12.7676V26.3627C27.0001 26.7147 26.7148 26.9999 26.3628 26.9999H12.7678C12.4158 26.9999 12.1305 26.7147 12.1305 26.3627V12.7676C12.1305 12.4157 12.4158 12.1304 12.7678 12.1304H26.3628C26.7148 12.1304 27.0001 12.4157 27.0001 12.7676Z" stroke="#858D96" stroke-width="1.2" stroke-linecap="round" stroke-linejoin="round"/>
<path d="M23.8696 9H9.63727C9.28532 9 9 9.28532 9 9.63727V23.8696" stroke="#858D96" stroke-width="1.2" stroke-linecap="round" stroke-linejoin="round"/>
<path d="M12.1305 22.6174L17.9131 20.7391L27.0001 23.8696" stroke="#858D96" stroke-width="1.2" stroke-linecap="round" stroke-linejoin="round"/>
<path d="M22.3044 18.3913C21.4399 18.3913 20.7391 17.6905 20.7391 16.8261C20.7391 15.9617 21.4399 15.2609 22.3044 15.2609C23.1688 15.2609 23.8696 15.9617 23.8696 16.8261C23.8696 17.6905 23.1688 18.3913 22.3044 18.3913Z" stroke="#858D96" stroke-width="1.2" stroke-linecap="round" stroke-linejoin="round"/>
</svg>
