<svg width="59" height="36" viewBox="0 0 59 36" fill="none" xmlns="http://www.w3.org/2000/svg">
<rect x="0.000976562" width="59" height="36" rx="12.7269" fill="#3B4958" fill-opacity="0.08"/>
<path d="M31.501 18.5417V26.3417C31.501 26.6731 31.2324 26.9417 30.901 26.9417H23.101C22.7696 26.9417 22.501 26.6731 22.501 26.3417V18.5417C22.501 18.2103 22.7696 17.9417 23.101 17.9417H30.901C31.2324 17.9417 31.501 18.2103 31.501 18.5417Z" stroke="#858D96" stroke-width="1.2" stroke-linecap="round" stroke-linejoin="round"/>
<path d="M48.2183 15.3695L44.9021 22.4295C44.7612 22.7294 44.4039 22.8583 44.1039 22.7174L37.044 19.4012C36.744 19.2603 36.6151 18.9029 36.756 18.603L40.0723 11.5431C40.2132 11.2431 40.5705 11.1142 40.8705 11.2551L47.9304 14.5714C48.2303 14.7123 48.3592 15.0696 48.2183 15.3695Z" stroke="#858D96" stroke-width="1.2" stroke-linecap="round" stroke-linejoin="round"/>
<path d="M26.419 20.5155C26.0194 20.2658 25.501 20.5531 25.501 21.0243V23.8593C25.501 24.3305 26.0194 24.6178 26.419 24.3681L28.6869 22.9506C29.0629 22.7156 29.0629 22.168 28.6869 21.933L26.419 20.5155Z" stroke="#858D96" stroke-width="1.2" stroke-linecap="round" stroke-linejoin="round"/>
<path d="M42.7794 14.9953C42.5239 14.5994 41.9325 14.639 41.7322 15.0655L40.5268 17.6315C40.3265 18.058 40.6736 18.5385 41.1414 18.4823L43.7968 18.1636C44.237 18.1107 44.4699 17.6151 44.2294 17.2425L42.7794 14.9953Z" stroke="#858D96" stroke-width="1.2" stroke-linecap="round" stroke-linejoin="round"/>
<path d="M11.501 15.9417V9.54165C11.501 9.21028 11.7696 8.94165 12.101 8.94165H18.279C18.4222 8.94165 18.5607 8.99289 18.6695 9.0861L21.8325 11.7972C21.9412 11.8904 22.0797 11.9417 22.223 11.9417H30.901C31.2324 11.9417 31.501 12.2103 31.501 12.5417V14.9417M11.501 15.9417V24.3417C11.501 24.6731 11.7696 24.9417 12.101 24.9417H19.501M11.501 15.9417H19.501" stroke="#858D96" stroke-width="1.3" stroke-linecap="round" stroke-linejoin="round"/>
</svg>
