<svg width="36" height="36" viewBox="0 0 36 36" fill="none" xmlns="http://www.w3.org/2000/svg">
<rect x="0.501953" width="34.999" height="35.7945" rx="12.7269" fill="#3B4958" fill-opacity="0.08"/>
<path d="M18 10.3433C17.6764 10.3433 17.4141 10.6056 17.4141 10.9292C17.4141 11.2528 17.6764 11.5151 18 11.5151C19.9388 11.5151 21.5162 13.0922 21.5162 15.0308C21.5162 15.3544 21.7786 15.6167 22.1021 15.6167C22.4257 15.6167 22.6881 15.3544 22.6881 15.0308C22.6881 12.4461 20.585 10.3433 18 10.3433Z" fill="#858D96"/>
<path d="M16.4893 8.15745C13.842 8.71061 11.6955 10.8365 11.1307 13.5003C10.6538 15.7496 11.2415 18.0078 12.7431 19.6958C13.4771 20.521 13.8981 21.6101 13.8981 22.6871V23.859C13.8981 24.6387 14.4085 25.3011 15.1126 25.5305C15.3442 26.8987 16.5317 27.9996 17.9996 27.9996C19.4672 27.9996 20.655 26.899 20.8866 25.5305C21.5908 25.3011 22.1012 24.6387 22.1012 23.859V22.6871C22.1012 21.608 22.5235 20.5319 23.2903 19.6571C24.4128 18.3766 25.0309 16.7336 25.0309 15.0309C25.0309 10.5948 20.9704 7.22128 16.4893 8.15745ZM17.9996 26.8278C17.2464 26.8278 16.586 26.3095 16.3422 25.6129H19.657C19.4132 26.3095 18.7528 26.8278 17.9996 26.8278ZM20.9293 23.859C20.9293 24.1821 20.6665 24.4449 20.3434 24.4449H15.6559C15.3328 24.4449 15.0699 24.1821 15.0699 23.859V23.2731H20.9293V23.859ZM22.4091 18.8847C21.5919 19.817 21.0891 20.9412 20.9615 22.1012H15.0378C14.9104 20.9406 14.4089 19.8053 13.6188 18.917C12.3673 17.5101 11.8783 15.6244 12.2771 13.7433C12.7427 11.5475 14.5318 9.7637 16.729 9.3046C20.4799 8.52073 23.859 11.3376 23.859 15.0309C23.859 16.4493 23.3441 17.818 22.4091 18.8847Z" fill="#858D96"/>
</svg>
