<svg width="60" height="36" viewBox="0 0 60 36" fill="none" xmlns="http://www.w3.org/2000/svg">
<rect x="0.500977" width="59" height="36" rx="12.7269" fill="#3B4958" fill-opacity="0.08"/>
<mask id="path-2-outside-1" maskUnits="userSpaceOnUse" x="9.63862" y="4.44391" width="26.8474" height="26.8474" fill="black">
<rect fill="white" x="9.63862" y="4.44391" width="26.8474" height="26.8474"/>
<path d="M29.6252 22.0218L29.3029 21.6719C29.1814 21.5405 29.1551 21.3471 29.2371 21.188C29.3031 21.0555 29.3643 20.9221 29.4216 20.7864C29.4902 20.6202 29.6556 20.5149 29.8352 20.523L30.3146 20.5424C31.0291 20.5686 31.6309 20.0132 31.6616 19.2988L31.7325 17.5718C31.7598 16.8571 31.2048 16.2545 30.4902 16.2231L30.0114 16.2031C29.8319 16.196 29.676 16.0776 29.6208 15.9067C29.5748 15.7668 29.5248 15.6288 29.4715 15.4892C29.4019 15.3236 29.4439 15.1321 29.5765 15.0108L29.9264 14.6885C30.4535 14.2031 30.4872 13.3823 30.0017 12.8552L28.8297 11.5828C28.3442 11.0557 27.5234 11.022 26.9964 11.5075L26.6465 11.8298C26.5151 11.9513 26.3217 11.9776 26.1626 11.8956C26.0301 11.8296 25.8967 11.7684 25.761 11.7111C25.595 11.6422 25.4898 11.477 25.4976 11.2975L25.517 10.8181C25.5441 10.1036 24.9893 9.50126 24.275 9.46962L22.5451 9.40133C21.8304 9.37407 21.2278 9.92909 21.1964 10.6437L21.1764 11.1224C21.1698 11.3021 21.0513 11.4583 20.88 11.5131C20.7401 11.559 20.6021 11.6091 20.464 11.664C20.2977 11.733 20.106 11.6899 19.9854 11.5562L19.6631 11.2063C19.1776 10.6792 18.3569 10.6455 17.8298 11.131L16.5574 12.303C16.0303 12.7885 15.9966 13.6093 16.4821 14.1363L16.8044 14.4862C16.9259 14.6176 16.9522 14.811 16.8702 14.9701C16.8042 15.1026 16.743 15.236 16.6857 15.3717C16.6171 15.5379 16.4517 15.6433 16.2721 15.6351L15.7927 15.6157C15.0782 15.5886 14.4758 16.1434 14.4442 16.8577L14.3733 18.5847C14.346 19.2994 14.901 19.902 15.6156 19.9335L16.0944 19.9534C16.2739 19.9605 16.4299 20.0789 16.485 20.2498C16.531 20.3898 16.581 20.5277 16.6344 20.6673C16.705 20.8331 16.6635 21.0254 16.5308 21.1473L16.1809 21.4696C15.6538 21.9551 15.6201 22.7758 16.1056 23.3029L17.2776 24.5753C17.763 25.1024 18.5838 25.1361 19.1109 24.6506L19.4608 24.3283C19.5922 24.2068 19.7856 24.1805 19.9447 24.2625C20.0772 24.3285 20.2106 24.3897 20.3463 24.447C20.5123 24.5159 20.6175 24.6811 20.6097 24.8606L20.5903 25.34C20.5643 26.0545 21.1197 26.656 21.8339 26.687L23.5609 26.758C24.2756 26.7852 24.8782 26.2302 24.9096 25.5156L24.9296 25.0368C24.9362 24.8572 25.0547 24.7009 25.226 24.6462C25.3659 24.6002 25.5039 24.5502 25.6435 24.4969C25.8091 24.4273 26.0006 24.4693 26.1219 24.6019L26.4442 24.9518C26.9296 25.4789 27.7504 25.5126 28.2775 25.0271L29.5499 23.8551C30.077 23.3697 30.1107 22.5489 29.6252 22.0218ZM27.6915 24.3909C27.5158 24.5527 27.2422 24.5415 27.0804 24.3658L26.7581 24.0159C26.3924 23.6218 25.822 23.4931 25.3225 23.6919C25.2023 23.7402 25.0811 23.7845 24.9586 23.8248C24.4469 23.9938 24.0923 24.4607 24.0668 24.999L24.0469 25.4771C24.0372 25.7158 23.8359 25.9014 23.5972 25.8917C23.5971 25.8917 23.5969 25.8917 23.5968 25.8917L21.8698 25.8208C21.6312 25.811 21.4457 25.6096 21.4555 25.371L21.4748 24.8922C21.494 24.3535 21.1787 23.8589 20.6824 23.6488C20.5639 23.5987 20.4464 23.5446 20.3312 23.4872C19.85 23.2483 19.2714 23.3297 18.8748 23.6921L18.5249 24.0144C18.3492 24.1762 18.0756 24.165 17.9138 23.9893L16.7418 22.7169C16.58 22.5412 16.5912 22.2676 16.7669 22.1058L17.1168 21.7835C17.5109 21.4178 17.6396 20.8474 17.4408 20.3479C17.3925 20.2277 17.3482 20.1065 17.3079 19.984C17.1388 19.4724 16.672 19.1178 16.1337 19.0923L15.6556 19.0723C15.4169 19.0627 15.2313 18.8613 15.241 18.6226C15.241 18.6225 15.241 18.6223 15.241 18.6222L15.311 16.8961C15.3208 16.6575 15.5222 16.472 15.7608 16.4818L16.2396 16.5011C16.7781 16.5199 17.2725 16.2048 17.4829 15.7087C17.5331 15.5902 17.5872 15.4727 17.6446 15.3575C17.8841 14.8762 17.803 14.2972 17.4406 13.9002L17.1183 13.5503C16.9565 13.3746 16.9677 13.101 17.1434 12.9392L18.4158 11.7672C18.5915 11.6054 18.8651 11.6166 19.0269 11.7923L19.3492 12.1422C19.7149 12.5363 20.2853 12.665 20.7848 12.4662C20.905 12.4179 21.0262 12.3736 21.1487 12.3333C21.6604 12.1643 22.015 11.6974 22.0405 11.1592L22.0592 10.6797C22.0689 10.4411 22.2702 10.2554 22.5089 10.2651C22.509 10.2651 22.5092 10.2651 22.5093 10.2651L24.2363 10.336C24.4749 10.3459 24.6604 10.5472 24.6506 10.7858L24.6313 11.2647C24.6121 11.8033 24.9274 12.2979 25.4237 12.508C25.5423 12.5582 25.6597 12.6123 25.7749 12.6697C26.2562 12.9095 26.8354 12.8285 27.2325 12.466L27.5824 12.1437C27.7581 11.9819 28.0317 11.9931 28.1935 12.1688L29.3655 13.4412C29.5273 13.6169 29.5161 13.8905 29.3404 14.0523L28.9905 14.3746C28.5964 14.7403 28.4677 15.3107 28.6665 15.8102C28.7148 15.9304 28.7591 16.0516 28.7994 16.1741C28.9681 16.686 29.4351 17.0408 29.9735 17.0659L30.4517 17.0858C30.6899 17.0969 30.8748 17.2976 30.8663 17.5359L30.7954 19.2629C30.7855 19.5015 30.5842 19.687 30.3456 19.6772L29.8668 19.6579C29.3282 19.6391 28.8338 19.9542 28.6234 20.4503C28.5732 20.5688 28.5191 20.6863 28.4618 20.8015C28.2229 21.2827 28.3043 21.8613 28.6667 22.2579L28.989 22.6078C29.1508 22.7835 29.1396 23.0571 28.9639 23.2189L27.6915 24.3909Z"/>
</mask>
<path d="M29.6252 22.0218L29.3029 21.6719C29.1814 21.5405 29.1551 21.3471 29.2371 21.188C29.3031 21.0555 29.3643 20.9221 29.4216 20.7864C29.4902 20.6202 29.6556 20.5149 29.8352 20.523L30.3146 20.5424C31.0291 20.5686 31.6309 20.0132 31.6616 19.2988L31.7325 17.5718C31.7598 16.8571 31.2048 16.2545 30.4902 16.2231L30.0114 16.2031C29.8319 16.196 29.676 16.0776 29.6208 15.9067C29.5748 15.7668 29.5248 15.6288 29.4715 15.4892C29.4019 15.3236 29.4439 15.1321 29.5765 15.0108L29.9264 14.6885C30.4535 14.2031 30.4872 13.3823 30.0017 12.8552L28.8297 11.5828C28.3442 11.0557 27.5234 11.022 26.9964 11.5075L26.6465 11.8298C26.5151 11.9513 26.3217 11.9776 26.1626 11.8956C26.0301 11.8296 25.8967 11.7684 25.761 11.7111C25.595 11.6422 25.4898 11.477 25.4976 11.2975L25.517 10.8181C25.5441 10.1036 24.9893 9.50126 24.275 9.46962L22.5451 9.40133C21.8304 9.37407 21.2278 9.92909 21.1964 10.6437L21.1764 11.1224C21.1698 11.3021 21.0513 11.4583 20.88 11.5131C20.7401 11.559 20.6021 11.6091 20.464 11.664C20.2977 11.733 20.106 11.6899 19.9854 11.5562L19.6631 11.2063C19.1776 10.6792 18.3569 10.6455 17.8298 11.131L16.5574 12.303C16.0303 12.7885 15.9966 13.6093 16.4821 14.1363L16.8044 14.4862C16.9259 14.6176 16.9522 14.811 16.8702 14.9701C16.8042 15.1026 16.743 15.236 16.6857 15.3717C16.6171 15.5379 16.4517 15.6433 16.2721 15.6351L15.7927 15.6157C15.0782 15.5886 14.4758 16.1434 14.4442 16.8577L14.3733 18.5847C14.346 19.2994 14.901 19.902 15.6156 19.9335L16.0944 19.9534C16.2739 19.9605 16.4299 20.0789 16.485 20.2498C16.531 20.3898 16.581 20.5277 16.6344 20.6673C16.705 20.8331 16.6635 21.0254 16.5308 21.1473L16.1809 21.4696C15.6538 21.9551 15.6201 22.7758 16.1056 23.3029L17.2776 24.5753C17.763 25.1024 18.5838 25.1361 19.1109 24.6506L19.4608 24.3283C19.5922 24.2068 19.7856 24.1805 19.9447 24.2625C20.0772 24.3285 20.2106 24.3897 20.3463 24.447C20.5123 24.5159 20.6175 24.6811 20.6097 24.8606L20.5903 25.34C20.5643 26.0545 21.1197 26.656 21.8339 26.687L23.5609 26.758C24.2756 26.7852 24.8782 26.2302 24.9096 25.5156L24.9296 25.0368C24.9362 24.8572 25.0547 24.7009 25.226 24.6462C25.3659 24.6002 25.5039 24.5502 25.6435 24.4969C25.8091 24.4273 26.0006 24.4693 26.1219 24.6019L26.4442 24.9518C26.9296 25.4789 27.7504 25.5126 28.2775 25.0271L29.5499 23.8551C30.077 23.3697 30.1107 22.5489 29.6252 22.0218ZM27.6915 24.3909C27.5158 24.5527 27.2422 24.5415 27.0804 24.3658L26.7581 24.0159C26.3924 23.6218 25.822 23.4931 25.3225 23.6919C25.2023 23.7402 25.0811 23.7845 24.9586 23.8248C24.4469 23.9938 24.0923 24.4607 24.0668 24.999L24.0469 25.4771C24.0372 25.7158 23.8359 25.9014 23.5972 25.8917C23.5971 25.8917 23.5969 25.8917 23.5968 25.8917L21.8698 25.8208C21.6312 25.811 21.4457 25.6096 21.4555 25.371L21.4748 24.8922C21.494 24.3535 21.1787 23.8589 20.6824 23.6488C20.5639 23.5987 20.4464 23.5446 20.3312 23.4872C19.85 23.2483 19.2714 23.3297 18.8748 23.6921L18.5249 24.0144C18.3492 24.1762 18.0756 24.165 17.9138 23.9893L16.7418 22.7169C16.58 22.5412 16.5912 22.2676 16.7669 22.1058L17.1168 21.7835C17.5109 21.4178 17.6396 20.8474 17.4408 20.3479C17.3925 20.2277 17.3482 20.1065 17.3079 19.984C17.1388 19.4724 16.672 19.1178 16.1337 19.0923L15.6556 19.0723C15.4169 19.0627 15.2313 18.8613 15.241 18.6226C15.241 18.6225 15.241 18.6223 15.241 18.6222L15.311 16.8961C15.3208 16.6575 15.5222 16.472 15.7608 16.4818L16.2396 16.5011C16.7781 16.5199 17.2725 16.2048 17.4829 15.7087C17.5331 15.5902 17.5872 15.4727 17.6446 15.3575C17.8841 14.8762 17.803 14.2972 17.4406 13.9002L17.1183 13.5503C16.9565 13.3746 16.9677 13.101 17.1434 12.9392L18.4158 11.7672C18.5915 11.6054 18.8651 11.6166 19.0269 11.7923L19.3492 12.1422C19.7149 12.5363 20.2853 12.665 20.7848 12.4662C20.905 12.4179 21.0262 12.3736 21.1487 12.3333C21.6604 12.1643 22.015 11.6974 22.0405 11.1592L22.0592 10.6797C22.0689 10.4411 22.2702 10.2554 22.5089 10.2651C22.509 10.2651 22.5092 10.2651 22.5093 10.2651L24.2363 10.336C24.4749 10.3459 24.6604 10.5472 24.6506 10.7858L24.6313 11.2647C24.6121 11.8033 24.9274 12.2979 25.4237 12.508C25.5423 12.5582 25.6597 12.6123 25.7749 12.6697C26.2562 12.9095 26.8354 12.8285 27.2325 12.466L27.5824 12.1437C27.7581 11.9819 28.0317 11.9931 28.1935 12.1688L29.3655 13.4412C29.5273 13.6169 29.5161 13.8905 29.3404 14.0523L28.9905 14.3746C28.5964 14.7403 28.4677 15.3107 28.6665 15.8102C28.7148 15.9304 28.7591 16.0516 28.7994 16.1741C28.9681 16.686 29.4351 17.0408 29.9735 17.0659L30.4517 17.0858C30.6899 17.0969 30.8748 17.2976 30.8663 17.5359L30.7954 19.2629C30.7855 19.5015 30.5842 19.687 30.3456 19.6772L29.8668 19.6579C29.3282 19.6391 28.8338 19.9542 28.6234 20.4503C28.5732 20.5688 28.5191 20.6863 28.4618 20.8015C28.2229 21.2827 28.3043 21.8613 28.6667 22.2579L28.989 22.6078C29.1508 22.7835 29.1396 23.0571 28.9639 23.2189L27.6915 24.3909Z" fill="#858D96"/>
<path d="M29.6252 22.0218L29.3029 21.6719C29.1814 21.5405 29.1551 21.3471 29.2371 21.188C29.3031 21.0555 29.3643 20.9221 29.4216 20.7864C29.4902 20.6202 29.6556 20.5149 29.8352 20.523L30.3146 20.5424C31.0291 20.5686 31.6309 20.0132 31.6616 19.2988L31.7325 17.5718C31.7598 16.8571 31.2048 16.2545 30.4902 16.2231L30.0114 16.2031C29.8319 16.196 29.676 16.0776 29.6208 15.9067C29.5748 15.7668 29.5248 15.6288 29.4715 15.4892C29.4019 15.3236 29.4439 15.1321 29.5765 15.0108L29.9264 14.6885C30.4535 14.2031 30.4872 13.3823 30.0017 12.8552L28.8297 11.5828C28.3442 11.0557 27.5234 11.022 26.9964 11.5075L26.6465 11.8298C26.5151 11.9513 26.3217 11.9776 26.1626 11.8956C26.0301 11.8296 25.8967 11.7684 25.761 11.7111C25.595 11.6422 25.4898 11.477 25.4976 11.2975L25.517 10.8181C25.5441 10.1036 24.9893 9.50126 24.275 9.46962L22.5451 9.40133C21.8304 9.37407 21.2278 9.92909 21.1964 10.6437L21.1764 11.1224C21.1698 11.3021 21.0513 11.4583 20.88 11.5131C20.7401 11.559 20.6021 11.6091 20.464 11.664C20.2977 11.733 20.106 11.6899 19.9854 11.5562L19.6631 11.2063C19.1776 10.6792 18.3569 10.6455 17.8298 11.131L16.5574 12.303C16.0303 12.7885 15.9966 13.6093 16.4821 14.1363L16.8044 14.4862C16.9259 14.6176 16.9522 14.811 16.8702 14.9701C16.8042 15.1026 16.743 15.236 16.6857 15.3717C16.6171 15.5379 16.4517 15.6433 16.2721 15.6351L15.7927 15.6157C15.0782 15.5886 14.4758 16.1434 14.4442 16.8577L14.3733 18.5847C14.346 19.2994 14.901 19.902 15.6156 19.9335L16.0944 19.9534C16.2739 19.9605 16.4299 20.0789 16.485 20.2498C16.531 20.3898 16.581 20.5277 16.6344 20.6673C16.705 20.8331 16.6635 21.0254 16.5308 21.1473L16.1809 21.4696C15.6538 21.9551 15.6201 22.7758 16.1056 23.3029L17.2776 24.5753C17.763 25.1024 18.5838 25.1361 19.1109 24.6506L19.4608 24.3283C19.5922 24.2068 19.7856 24.1805 19.9447 24.2625C20.0772 24.3285 20.2106 24.3897 20.3463 24.447C20.5123 24.5159 20.6175 24.6811 20.6097 24.8606L20.5903 25.34C20.5643 26.0545 21.1197 26.656 21.8339 26.687L23.5609 26.758C24.2756 26.7852 24.8782 26.2302 24.9096 25.5156L24.9296 25.0368C24.9362 24.8572 25.0547 24.7009 25.226 24.6462C25.3659 24.6002 25.5039 24.5502 25.6435 24.4969C25.8091 24.4273 26.0006 24.4693 26.1219 24.6019L26.4442 24.9518C26.9296 25.4789 27.7504 25.5126 28.2775 25.0271L29.5499 23.8551C30.077 23.3697 30.1107 22.5489 29.6252 22.0218ZM27.6915 24.3909C27.5158 24.5527 27.2422 24.5415 27.0804 24.3658L26.7581 24.0159C26.3924 23.6218 25.822 23.4931 25.3225 23.6919C25.2023 23.7402 25.0811 23.7845 24.9586 23.8248C24.4469 23.9938 24.0923 24.4607 24.0668 24.999L24.0469 25.4771C24.0372 25.7158 23.8359 25.9014 23.5972 25.8917C23.5971 25.8917 23.5969 25.8917 23.5968 25.8917L21.8698 25.8208C21.6312 25.811 21.4457 25.6096 21.4555 25.371L21.4748 24.8922C21.494 24.3535 21.1787 23.8589 20.6824 23.6488C20.5639 23.5987 20.4464 23.5446 20.3312 23.4872C19.85 23.2483 19.2714 23.3297 18.8748 23.6921L18.5249 24.0144C18.3492 24.1762 18.0756 24.165 17.9138 23.9893L16.7418 22.7169C16.58 22.5412 16.5912 22.2676 16.7669 22.1058L17.1168 21.7835C17.5109 21.4178 17.6396 20.8474 17.4408 20.3479C17.3925 20.2277 17.3482 20.1065 17.3079 19.984C17.1388 19.4724 16.672 19.1178 16.1337 19.0923L15.6556 19.0723C15.4169 19.0627 15.2313 18.8613 15.241 18.6226C15.241 18.6225 15.241 18.6223 15.241 18.6222L15.311 16.8961C15.3208 16.6575 15.5222 16.472 15.7608 16.4818L16.2396 16.5011C16.7781 16.5199 17.2725 16.2048 17.4829 15.7087C17.5331 15.5902 17.5872 15.4727 17.6446 15.3575C17.8841 14.8762 17.803 14.2972 17.4406 13.9002L17.1183 13.5503C16.9565 13.3746 16.9677 13.101 17.1434 12.9392L18.4158 11.7672C18.5915 11.6054 18.8651 11.6166 19.0269 11.7923L19.3492 12.1422C19.7149 12.5363 20.2853 12.665 20.7848 12.4662C20.905 12.4179 21.0262 12.3736 21.1487 12.3333C21.6604 12.1643 22.015 11.6974 22.0405 11.1592L22.0592 10.6797C22.0689 10.4411 22.2702 10.2554 22.5089 10.2651C22.509 10.2651 22.5092 10.2651 22.5093 10.2651L24.2363 10.336C24.4749 10.3459 24.6604 10.5472 24.6506 10.7858L24.6313 11.2647C24.6121 11.8033 24.9274 12.2979 25.4237 12.508C25.5423 12.5582 25.6597 12.6123 25.7749 12.6697C26.2562 12.9095 26.8354 12.8285 27.2325 12.466L27.5824 12.1437C27.7581 11.9819 28.0317 11.9931 28.1935 12.1688L29.3655 13.4412C29.5273 13.6169 29.5161 13.8905 29.3404 14.0523L28.9905 14.3746C28.5964 14.7403 28.4677 15.3107 28.6665 15.8102C28.7148 15.9304 28.7591 16.0516 28.7994 16.1741C28.9681 16.686 29.4351 17.0408 29.9735 17.0659L30.4517 17.0858C30.6899 17.0969 30.8748 17.2976 30.8663 17.5359L30.7954 19.2629C30.7855 19.5015 30.5842 19.687 30.3456 19.6772L29.8668 19.6579C29.3282 19.6391 28.8338 19.9542 28.6234 20.4503C28.5732 20.5688 28.5191 20.6863 28.4618 20.8015C28.2229 21.2827 28.3043 21.8613 28.6667 22.2579L28.989 22.6078C29.1508 22.7835 29.1396 23.0571 28.9639 23.2189L27.6915 24.3909Z" stroke="#858D96" stroke-width="0.2" mask="url(#path-2-outside-1)"/>
<circle cx="23.0654" cy="18.2522" r="3.5" stroke="#858D96"/>
<path d="M31.6712 10.3569C32.0212 10.2469 32.1312 8.93689 32.1312 8.93689C32.1312 8.93689 32.2032 8.05899 32.7712 7.73689C33.3392 7.4148 35.1012 7.81689 35.1012 7.81689C35.2551 7.82715 35.3991 7.89623 35.5033 8.0098C35.6076 8.12338 35.6641 8.27274 35.6612 8.42689V9.07689C35.6483 9.43111 35.7438 9.78083 35.935 10.0793C36.1262 10.3777 36.404 10.6106 36.7312 10.7469L37.2012 10.9669C37.5217 11.1339 37.886 11.1976 38.2441 11.1492C38.6022 11.1009 38.9365 10.9429 39.2012 10.6969L39.6712 10.2569C39.7817 10.1476 39.9308 10.0863 40.0862 10.0863C40.2416 10.0863 40.3908 10.1476 40.5012 10.2569L42.0812 11.9669C42.1319 12.0291 42.1694 12.1009 42.1914 12.178C42.2134 12.2552 42.2195 12.336 42.2092 12.4156C42.1989 12.4951 42.1725 12.5717 42.1316 12.6408C42.0907 12.7098 42.0361 12.7697 41.9712 12.8169L41.5012 13.2469C41.2431 13.4897 41.0633 13.8041 40.9849 14.1497C40.9065 14.4953 40.9331 14.8565 41.0612 15.1869C41.13 15.3469 41.1901 15.5104 41.2412 15.6769C41.3528 16.0149 41.5647 16.3108 41.8488 16.5252C42.1329 16.7396 42.4756 16.8623 42.8312 16.8769H43.4712C43.6251 16.8871 43.7691 16.9562 43.8733 17.0698C43.9776 17.1834 44.0341 17.3327 44.0312 17.4869L43.9712 19.8769C43.961 20.0307 43.8919 20.1747 43.7783 20.279C43.6647 20.3833 43.5154 20.4398 43.3612 20.4369H42.7112C42.3576 20.4267 42.0091 20.5234 41.7112 20.7143C41.4133 20.9051 41.1798 21.1814 41.0412 21.5069C40.9712 21.6669 40.8912 21.8269 40.8212 21.9769C40.6585 22.2984 40.5972 22.6617 40.6454 23.0189C40.6936 23.376 40.8491 23.71 41.0912 23.9769L41.5312 24.4469C41.6405 24.5574 41.7019 24.7065 41.7019 24.8619C41.7019 25.0173 41.6405 25.1664 41.5312 25.2769L39.7612 26.8169C39.6508 26.9262 39.5016 26.9875 39.3462 26.9875C39.1908 26.9875 39.0417 26.9262 38.9312 26.8169L38.5012 26.3469C38.269 26.0733 37.9595 25.8762 37.6133 25.7817C37.267 25.6871 36.9003 25.6994 36.5612 25.8169C36.4019 25.8873 36.2382 25.9474 36.0712 25.9969C35.7333 26.1085 35.4373 26.3204 35.2229 26.6045C35.0085 26.8886 34.8858 27.2313 34.8712 27.5869V28.2269C34.8701 28.3044 34.8531 28.3808 34.8214 28.4516C34.7897 28.5223 34.7439 28.5858 34.6868 28.6382C34.6297 28.6906 34.5625 28.7308 34.4893 28.7564C34.4162 28.782 34.3385 28.7923 34.2612 28.7869L31.9312 28.6969C31.7774 28.6866 31.6334 28.6176 31.5291 28.504C31.4249 28.3904 31.4091 28.3107 31.3712 28.0869C31.3333 27.8631 31.3373 27.7654 31.3712 27.4369C31.4051 27.1084 31.6937 26.2672 31.2712 26.0969C31.2712 26.0969 30.9658 25.9359 30.6812 26.0969C30.3966 26.2579 30.1549 26.728 30.1829 28.0116C30.2108 29.2952 30.8912 29.8669 31.8512 29.9169L34.1812 30.0069C34.642 30.0177 35.0885 29.8463 35.4236 29.5298C35.7588 29.2134 35.9556 28.7775 35.9712 28.3169V27.6669C35.977 27.5486 36.0183 27.4348 36.0896 27.3403C36.1609 27.2458 36.2591 27.1749 36.3712 27.1369L36.9312 26.9369C37.0409 26.8908 37.162 26.8795 37.2783 26.9045C37.3946 26.9295 37.5003 26.9897 37.5812 27.0769L38.0212 27.5469C38.1756 27.7173 38.3622 27.8554 38.5702 27.9532C38.7783 28.051 39.0036 28.1067 39.2333 28.1169C39.463 28.1271 39.6924 28.0917 39.9083 28.0128C40.1242 27.9338 40.3223 27.8129 40.4912 27.6569L42.2112 26.0669C42.5516 25.7523 42.7532 25.3156 42.772 24.8526C42.7907 24.3895 42.625 23.9379 42.3112 23.5969L41.9712 23.1269C41.8924 23.0403 41.8415 22.9319 41.8255 22.8158C41.8094 22.6998 41.8288 22.5817 41.8812 22.4769C41.9747 22.2983 42.0581 22.1147 42.1312 21.9269C42.179 21.8194 42.2579 21.7286 42.3577 21.6662C42.4575 21.6038 42.5736 21.5727 42.6912 21.5769H43.3412C43.8031 21.5905 44.2517 21.4219 44.5903 21.1076C44.929 20.7933 45.1304 20.3584 45.1512 19.8969L45.2512 17.5669C45.2513 17.1079 45.071 16.6673 44.7493 16.3399C44.4276 16.0126 43.9901 15.8248 43.5312 15.8169H42.8912C42.7729 15.8111 42.6591 15.7699 42.5646 15.6985C42.4701 15.6272 42.3992 15.5291 42.3612 15.4169C42.3012 15.2269 42.2312 15.0469 42.1612 14.8569C42.1151 14.7473 42.1038 14.6261 42.1288 14.5098C42.1539 14.3936 42.2141 14.2878 42.3012 14.2069L42.7712 13.7769C43.1136 13.462 43.3173 13.0243 43.3379 12.5596C43.3586 12.0949 43.1944 11.6409 42.8812 11.2969L41.2912 9.51689C41.1369 9.34652 40.9503 9.20843 40.7422 9.11059C40.5342 9.01275 40.3088 8.95711 40.0792 8.94688C39.8495 8.93666 39.6201 8.97204 39.4042 9.051C39.1882 9.12996 38.9901 9.25092 38.8212 9.40689L38.3512 9.84689C38.2646 9.92577 38.1562 9.97659 38.0402 9.99265C37.9242 10.0087 37.806 9.98928 37.7012 9.93689L37.1512 9.68689C37.0429 9.64023 36.9513 9.56163 36.8888 9.46157C36.8262 9.36151 36.7957 9.24476 36.8012 9.12689V8.47689C36.8176 8.01502 36.6516 7.56526 36.3391 7.22473C36.0267 6.8842 35.5928 6.68024 35.1312 6.65689L32.7912 6.56689C31.7912 6.56689 31.2512 7.76689 31.2512 7.76689C31.2512 7.76689 30.6512 9.44689 31.0912 10.1869C31.1669 10.2601 31.2592 10.3138 31.3603 10.3434C31.4613 10.373 31.568 10.3776 31.6712 10.3569Z" fill="#858D96"/>
<path d="M32.5197 23.5178C32.5818 23.5258 32.6445 23.5293 32.7072 23.5283C33.388 23.5962 34.0756 23.5256 34.7284 23.3208C35.3813 23.116 35.9859 22.7811 36.5059 22.3364C37.026 21.8917 37.4506 21.3463 37.7543 20.7331C38.0579 20.12 38.2343 19.4517 38.2729 18.7685C38.3115 18.0854 38.2113 17.4015 37.9786 16.7581C37.7459 16.1146 37.3853 15.5249 36.9186 15.0245C36.4519 14.5241 35.8888 14.1234 35.2631 13.8464C34.6375 13.5694 33.9622 13.4219 33.2781 13.4127L33.0906 13.4021" stroke="#858D96" stroke-miterlimit="10" stroke-linecap="round"/>
</svg>
