<svg xmlns="http://www.w3.org/2000/svg" xmlns:xlink="http://www.w3.org/1999/xlink" width="150" zoomAndPan="magnify" viewBox="0 0 112.5 30.000001" height="40" preserveAspectRatio="xMidYMid meet" version="1.0"><defs><g/></defs><g fill="#f64647" fill-opacity="1"><g transform="translate(8.762832, 22.163139)"><g><path d="M 11.375 -15.8125 C 13.75 -15.8125 15.535156 -15.359375 16.734375 -14.453125 C 17.941406 -13.546875 18.546875 -12.210938 18.546875 -10.453125 C 18.546875 -9.578125 18.390625 -8.570312 18.078125 -7.4375 C 17.554688 -5.59375 16.847656 -4.132812 15.953125 -3.0625 C 15.066406 -1.988281 13.898438 -1.203125 12.453125 -0.703125 C 11.003906 -0.210938 9.148438 0.0195312 6.890625 0 L 0.421875 -0.03125 C 0.0859375 -0.03125 -0.164062 -0.0820312 -0.34375 -0.1875 C -0.53125 -0.300781 -0.625 -0.453125 -0.625 -0.640625 C -0.625 -0.734375 -0.597656 -0.835938 -0.546875 -0.953125 C -0.492188 -1.085938 -0.425781 -1.1875 -0.34375 -1.25 C -0.257812 -1.320312 -0.128906 -1.410156 0.046875 -1.515625 C 0.296875 -1.660156 0.492188 -1.816406 0.640625 -1.984375 C 0.796875 -2.160156 0.929688 -2.441406 1.046875 -2.828125 L 3.9375 -13.03125 C 4 -13.238281 4.03125 -13.4375 4.03125 -13.625 C 4.03125 -13.800781 4.003906 -13.945312 3.953125 -14.0625 C 3.898438 -14.1875 3.828125 -14.328125 3.734375 -14.484375 C 3.585938 -14.691406 3.515625 -14.859375 3.515625 -14.984375 C 3.515625 -15.035156 3.53125 -15.125 3.5625 -15.25 C 3.625 -15.457031 3.757812 -15.601562 3.96875 -15.6875 C 4.1875 -15.769531 4.519531 -15.8125 4.96875 -15.8125 Z M 12 -7.953125 C 12.40625 -9.441406 12.609375 -10.613281 12.609375 -11.46875 C 12.609375 -12.3125 12.429688 -12.890625 12.078125 -13.203125 C 11.734375 -13.523438 11.238281 -13.6875 10.59375 -13.6875 L 10.0625 -13.6875 L 6.859375 -2.140625 L 7.4375 -2.140625 C 8.164062 -2.140625 8.773438 -2.289062 9.265625 -2.59375 C 9.765625 -2.90625 10.226562 -3.476562 10.65625 -4.3125 C 11.09375 -5.144531 11.539062 -6.359375 12 -7.953125 Z M 12 -7.953125 "/></g></g></g><g fill="#000000" fill-opacity="1"><g transform="translate(27.100786, 22.163139)"><g><path d="M 6.25 -12.5625 C 7.164062 -12.5625 7.835938 -12.382812 8.265625 -12.03125 C 8.691406 -11.6875 8.90625 -11.210938 8.90625 -10.609375 C 8.90625 -10.242188 8.851562 -9.898438 8.75 -9.578125 L 6.5625 -2.46875 C 6.507812 -2.28125 6.484375 -2.113281 6.484375 -1.96875 C 6.484375 -1.757812 6.523438 -1.597656 6.609375 -1.484375 C 6.691406 -1.367188 6.800781 -1.253906 6.9375 -1.140625 C 7.050781 -1.023438 7.128906 -0.929688 7.171875 -0.859375 C 7.222656 -0.796875 7.234375 -0.707031 7.203125 -0.59375 C 7.117188 -0.382812 6.957031 -0.234375 6.71875 -0.140625 C 6.488281 -0.046875 6.128906 0 5.640625 0 L 0.21875 0 C -0.1875 0 -0.484375 -0.0664062 -0.671875 -0.203125 C -0.867188 -0.335938 -0.9375 -0.515625 -0.875 -0.734375 C -0.8125 -0.921875 -0.644531 -1.085938 -0.375 -1.234375 C -0.132812 -1.359375 0.0625 -1.507812 0.21875 -1.6875 C 0.375 -1.863281 0.507812 -2.140625 0.625 -2.515625 L 2.6875 -9.375 C 2.738281 -9.519531 2.765625 -9.640625 2.765625 -9.734375 C 2.765625 -9.910156 2.722656 -10.050781 2.640625 -10.15625 C 2.566406 -10.257812 2.445312 -10.363281 2.28125 -10.46875 C 2.125 -10.59375 2.015625 -10.703125 1.953125 -10.796875 C 1.890625 -10.898438 1.882812 -11.03125 1.9375 -11.1875 C 2.03125 -11.550781 2.523438 -11.867188 3.421875 -12.140625 C 4.328125 -12.421875 5.269531 -12.5625 6.25 -12.5625 Z M 7.84375 -17.8125 C 8.457031 -17.8125 8.96875 -17.609375 9.375 -17.203125 C 9.789062 -16.796875 10 -16.300781 10 -15.71875 C 10 -15.3125 9.890625 -14.910156 9.671875 -14.515625 C 9.460938 -14.117188 9.164062 -13.796875 8.78125 -13.546875 C 8.394531 -13.304688 7.960938 -13.1875 7.484375 -13.1875 C 6.878906 -13.1875 6.375 -13.382812 5.96875 -13.78125 C 5.570312 -14.1875 5.363281 -14.691406 5.34375 -15.296875 C 5.34375 -15.691406 5.445312 -16.082031 5.65625 -16.46875 C 5.863281 -16.851562 6.15625 -17.171875 6.53125 -17.421875 C 6.914062 -17.679688 7.351562 -17.8125 7.84375 -17.8125 Z M 7.84375 -17.8125 "/></g></g></g><g fill="#000000" fill-opacity="1"><g transform="translate(35.792344, 22.163139)"><g><path d="M 14.390625 -16.4375 C 14.898438 -16.4375 15.394531 -16.328125 15.875 -16.109375 C 16.351562 -15.898438 16.75 -15.609375 17.0625 -15.234375 C 17.375 -14.859375 17.53125 -14.457031 17.53125 -14.03125 C 17.53125 -13.101562 16.894531 -12.640625 15.625 -12.640625 C 15.257812 -12.640625 14.976562 -12.664062 14.78125 -12.71875 C 14.582031 -12.769531 14.347656 -12.859375 14.078125 -12.984375 C 14.035156 -12.878906 14.015625 -12.722656 14.015625 -12.515625 C 14.015625 -12.265625 14.054688 -11.960938 14.140625 -11.609375 C 14.234375 -11.265625 14.34375 -10.941406 14.46875 -10.640625 C 14.800781 -10.148438 14.96875 -9.5625 14.96875 -8.875 C 14.96875 -8.582031 14.925781 -8.222656 14.84375 -7.796875 C 14.65625 -6.972656 14.238281 -6.21875 13.59375 -5.53125 C 12.957031 -4.851562 12.132812 -4.316406 11.125 -3.921875 C 10.125 -3.535156 9.019531 -3.34375 7.8125 -3.34375 C 6.894531 -3.34375 6.03125 -3.40625 5.21875 -3.53125 C 4.988281 -3.332031 4.875 -3.082031 4.875 -2.78125 C 4.875 -2.570312 4.96875 -2.398438 5.15625 -2.265625 C 5.34375 -2.128906 5.660156 -2.0625 6.109375 -2.0625 L 9.671875 -2.0625 C 10.890625 -2.0625 11.835938 -1.851562 12.515625 -1.4375 C 13.191406 -1.019531 13.53125 -0.421875 13.53125 0.359375 C 13.53125 0.640625 13.484375 0.929688 13.390625 1.234375 C 13.203125 1.847656 12.769531 2.421875 12.09375 2.953125 C 11.425781 3.484375 10.484375 3.914062 9.265625 4.25 C 8.046875 4.582031 6.566406 4.75 4.828125 4.75 C 3.273438 4.75 1.957031 4.613281 0.875 4.34375 C -0.195312 4.070312 -1 3.703125 -1.53125 3.234375 C -2.0625 2.773438 -2.328125 2.257812 -2.328125 1.6875 C -2.328125 1.5625 -2.296875 1.367188 -2.234375 1.109375 C -2.085938 0.648438 -1.765625 0.273438 -1.265625 -0.015625 C -0.765625 -0.304688 0.0507812 -0.5 1.1875 -0.59375 C 0.8125 -0.957031 0.625 -1.394531 0.625 -1.90625 C 0.625 -2.070312 0.644531 -2.253906 0.6875 -2.453125 C 0.9375 -3.273438 1.679688 -3.882812 2.921875 -4.28125 C 1.734375 -4.925781 1.140625 -5.875 1.140625 -7.125 C 1.140625 -7.46875 1.1875 -7.832031 1.28125 -8.21875 C 1.46875 -9.039062 1.882812 -9.785156 2.53125 -10.453125 C 3.1875 -11.128906 4.019531 -11.664062 5.03125 -12.0625 C 6.050781 -12.457031 7.160156 -12.65625 8.359375 -12.65625 C 10.242188 -12.65625 11.722656 -12.410156 12.796875 -11.921875 C 12.554688 -12.285156 12.367188 -12.675781 12.234375 -13.09375 C 12.109375 -13.519531 12.046875 -13.90625 12.046875 -14.25 C 12.046875 -14.851562 12.238281 -15.367188 12.625 -15.796875 C 13.007812 -16.222656 13.597656 -16.4375 14.390625 -16.4375 Z M 9.234375 -8 C 9.492188 -8.8125 9.625 -9.429688 9.625 -9.859375 C 9.625 -10.390625 9.394531 -10.65625 8.9375 -10.65625 C 8.539062 -10.65625 8.191406 -10.460938 7.890625 -10.078125 C 7.597656 -9.691406 7.300781 -9 7 -8 C 6.75 -7.175781 6.625 -6.550781 6.625 -6.125 C 6.625 -5.601562 6.847656 -5.34375 7.296875 -5.34375 C 7.691406 -5.34375 8.035156 -5.539062 8.328125 -5.9375 C 8.628906 -6.332031 8.929688 -7.019531 9.234375 -8 Z M 4.515625 0.328125 C 4.066406 0.328125 3.660156 0.304688 3.296875 0.265625 C 3.109375 0.503906 3.015625 0.820312 3.015625 1.21875 C 3.035156 1.613281 3.195312 1.894531 3.5 2.0625 C 3.8125 2.238281 4.289062 2.328125 4.9375 2.328125 C 5.726562 2.328125 6.375 2.207031 6.875 1.96875 C 7.375 1.726562 7.625 1.390625 7.625 0.953125 C 7.625 0.765625 7.550781 0.613281 7.40625 0.5 C 7.269531 0.382812 7.066406 0.328125 6.796875 0.328125 Z M 4.515625 0.328125 "/></g></g></g><g fill="#000000" fill-opacity="1"><g transform="translate(50.871955, 22.163139)"><g><path d="M 6.25 -12.5625 C 7.164062 -12.5625 7.835938 -12.382812 8.265625 -12.03125 C 8.691406 -11.6875 8.90625 -11.210938 8.90625 -10.609375 C 8.90625 -10.242188 8.851562 -9.898438 8.75 -9.578125 L 6.5625 -2.46875 C 6.507812 -2.28125 6.484375 -2.113281 6.484375 -1.96875 C 6.484375 -1.757812 6.523438 -1.597656 6.609375 -1.484375 C 6.691406 -1.367188 6.800781 -1.253906 6.9375 -1.140625 C 7.050781 -1.023438 7.128906 -0.929688 7.171875 -0.859375 C 7.222656 -0.796875 7.234375 -0.707031 7.203125 -0.59375 C 7.117188 -0.382812 6.957031 -0.234375 6.71875 -0.140625 C 6.488281 -0.046875 6.128906 0 5.640625 0 L 0.21875 0 C -0.1875 0 -0.484375 -0.0664062 -0.671875 -0.203125 C -0.867188 -0.335938 -0.9375 -0.515625 -0.875 -0.734375 C -0.8125 -0.921875 -0.644531 -1.085938 -0.375 -1.234375 C -0.132812 -1.359375 0.0625 -1.507812 0.21875 -1.6875 C 0.375 -1.863281 0.507812 -2.140625 0.625 -2.515625 L 2.6875 -9.375 C 2.738281 -9.519531 2.765625 -9.640625 2.765625 -9.734375 C 2.765625 -9.910156 2.722656 -10.050781 2.640625 -10.15625 C 2.566406 -10.257812 2.445312 -10.363281 2.28125 -10.46875 C 2.125 -10.59375 2.015625 -10.703125 1.953125 -10.796875 C 1.890625 -10.898438 1.882812 -11.03125 1.9375 -11.1875 C 2.03125 -11.550781 2.523438 -11.867188 3.421875 -12.140625 C 4.328125 -12.421875 5.269531 -12.5625 6.25 -12.5625 Z M 7.84375 -17.8125 C 8.457031 -17.8125 8.96875 -17.609375 9.375 -17.203125 C 9.789062 -16.796875 10 -16.300781 10 -15.71875 C 10 -15.3125 9.890625 -14.910156 9.671875 -14.515625 C 9.460938 -14.117188 9.164062 -13.796875 8.78125 -13.546875 C 8.394531 -13.304688 7.960938 -13.1875 7.484375 -13.1875 C 6.878906 -13.1875 6.375 -13.382812 5.96875 -13.78125 C 5.570312 -14.1875 5.363281 -14.691406 5.34375 -15.296875 C 5.34375 -15.691406 5.445312 -16.082031 5.65625 -16.46875 C 5.863281 -16.851562 6.15625 -17.171875 6.53125 -17.421875 C 6.914062 -17.679688 7.351562 -17.8125 7.84375 -17.8125 Z M 7.84375 -17.8125 "/></g></g></g><g fill="#f64647" fill-opacity="1"><g transform="translate(59.569287, 22.163139)"><g><path d="M 14.515625 -2.796875 C 14.453125 -2.597656 14.421875 -2.394531 14.421875 -2.1875 C 14.421875 -2.007812 14.441406 -1.859375 14.484375 -1.734375 C 14.535156 -1.617188 14.585938 -1.523438 14.640625 -1.453125 C 14.691406 -1.390625 14.726562 -1.34375 14.75 -1.3125 C 14.90625 -1.144531 14.984375 -0.984375 14.984375 -0.828125 C 14.984375 -0.796875 14.96875 -0.71875 14.9375 -0.59375 C 14.875 -0.375 14.734375 -0.21875 14.515625 -0.125 C 14.304688 -0.0390625 13.976562 0 13.53125 0 L 7.90625 0 C 7.570312 0 7.3125 -0.0507812 7.125 -0.15625 C 6.945312 -0.269531 6.859375 -0.425781 6.859375 -0.625 C 6.859375 -0.71875 6.882812 -0.816406 6.9375 -0.921875 C 6.976562 -1.046875 7.039062 -1.144531 7.125 -1.21875 C 7.21875 -1.289062 7.34375 -1.375 7.5 -1.46875 C 7.757812 -1.613281 7.96875 -1.769531 8.125 -1.9375 C 8.28125 -2.113281 8.414062 -2.398438 8.53125 -2.796875 L 9.140625 -4.84375 L 5.4375 -4.84375 L 4.796875 -3.484375 C 4.523438 -2.898438 4.390625 -2.441406 4.390625 -2.109375 C 4.390625 -1.921875 4.421875 -1.765625 4.484375 -1.640625 C 4.546875 -1.523438 4.644531 -1.40625 4.78125 -1.28125 C 4.882812 -1.15625 4.957031 -1.046875 5 -0.953125 C 5.039062 -0.867188 5.046875 -0.757812 5.015625 -0.625 C 4.953125 -0.382812 4.820312 -0.21875 4.625 -0.125 C 4.425781 -0.0390625 4.113281 0 3.6875 0 L 0.140625 0 C -0.222656 0 -0.5 -0.0664062 -0.6875 -0.203125 C -0.875 -0.335938 -0.96875 -0.515625 -0.96875 -0.734375 C -0.96875 -0.984375 -0.875 -1.179688 -0.6875 -1.328125 C -0.507812 -1.484375 -0.238281 -1.648438 0.125 -1.828125 C 0.59375 -2.066406 0.96875 -2.300781 1.25 -2.53125 C 1.539062 -2.757812 1.789062 -3.078125 2 -3.484375 L 6.21875 -12.25 C 6.875 -13.613281 7.640625 -14.597656 8.515625 -15.203125 C 9.390625 -15.816406 10.550781 -16.125 12 -16.125 C 13.613281 -16.125 14.863281 -15.796875 15.75 -15.140625 C 16.632812 -14.484375 17.078125 -13.566406 17.078125 -12.390625 C 17.078125 -11.898438 17 -11.394531 16.84375 -10.875 Z M 9.859375 -7.21875 L 11.109375 -11.40625 C 11.171875 -11.59375 11.203125 -11.789062 11.203125 -12 C 11.203125 -12.289062 11.117188 -12.507812 10.953125 -12.65625 C 10.796875 -12.8125 10.566406 -12.890625 10.265625 -12.890625 C 9.878906 -12.890625 9.550781 -12.78125 9.28125 -12.5625 C 9.007812 -12.34375 8.742188 -11.945312 8.484375 -11.375 L 6.53125 -7.21875 Z M 9.859375 -7.21875 "/></g></g></g><g fill="#000000" fill-opacity="1"><g transform="translate(76.149428, 22.163139)"><g><path d="M 13.28125 -3.421875 C 13.25 -3.296875 13.234375 -3.207031 13.234375 -3.15625 C 13.234375 -3.050781 13.265625 -2.960938 13.328125 -2.890625 C 13.390625 -2.828125 13.46875 -2.796875 13.5625 -2.796875 C 13.75 -2.796875 13.910156 -2.878906 14.046875 -3.046875 C 14.179688 -3.210938 14.273438 -3.296875 14.328125 -3.296875 C 14.398438 -3.296875 14.457031 -3.238281 14.5 -3.125 C 14.550781 -3.019531 14.578125 -2.894531 14.578125 -2.75 C 14.597656 -2.320312 14.4375 -1.882812 14.09375 -1.4375 C 13.75 -1 13.289062 -0.632812 12.71875 -0.34375 C 12.15625 -0.0625 11.539062 0.078125 10.875 0.078125 C 10.082031 0.078125 9.394531 -0.0703125 8.8125 -0.375 C 8.226562 -0.675781 7.820312 -1.070312 7.59375 -1.5625 C 7.164062 -1.007812 6.675781 -0.597656 6.125 -0.328125 C 5.570312 -0.0546875 4.988281 0.078125 4.375 0.078125 C 3.644531 0.078125 2.96875 -0.101562 2.34375 -0.46875 C 1.71875 -0.832031 1.21875 -1.351562 0.84375 -2.03125 C 0.46875 -2.707031 0.28125 -3.472656 0.28125 -4.328125 C 0.28125 -5.765625 0.550781 -7.117188 1.09375 -8.390625 C 1.644531 -9.671875 2.410156 -10.703125 3.390625 -11.484375 C 4.378906 -12.265625 5.5 -12.65625 6.75 -12.65625 C 7.425781 -12.65625 8.003906 -12.578125 8.484375 -12.421875 C 8.972656 -12.265625 9.414062 -12.023438 9.8125 -11.703125 L 10.609375 -14.375 C 10.660156 -14.507812 10.6875 -14.625 10.6875 -14.71875 C 10.6875 -14.894531 10.640625 -15.035156 10.546875 -15.140625 C 10.460938 -15.253906 10.351562 -15.367188 10.21875 -15.484375 C 10.050781 -15.609375 9.929688 -15.71875 9.859375 -15.8125 C 9.796875 -15.90625 9.785156 -16.035156 9.828125 -16.203125 C 9.921875 -16.566406 10.421875 -16.878906 11.328125 -17.140625 C 12.234375 -17.410156 13.175781 -17.546875 14.15625 -17.546875 C 15.070312 -17.546875 15.75 -17.367188 16.1875 -17.015625 C 16.625 -16.671875 16.84375 -16.203125 16.84375 -15.609375 C 16.84375 -15.253906 16.785156 -14.910156 16.671875 -14.578125 Z M 9.3125 -10.09375 C 9.0625 -10.3125 8.785156 -10.421875 8.484375 -10.421875 C 8.023438 -10.421875 7.570312 -10.082031 7.125 -9.40625 C 6.675781 -8.726562 6.316406 -7.90625 6.046875 -6.9375 C 5.785156 -5.96875 5.660156 -5.097656 5.671875 -4.328125 C 5.671875 -3.453125 5.957031 -3.015625 6.53125 -3.015625 C 6.738281 -3.015625 6.910156 -3.097656 7.046875 -3.265625 C 7.191406 -3.429688 7.328125 -3.703125 7.453125 -4.078125 Z M 9.3125 -10.09375 "/></g></g></g><g fill="#000000" fill-opacity="1"><g transform="translate(91.703986, 22.163139)"><g><path d="M 7.8125 -12.78125 C 9.125 -12.78125 10.257812 -12.660156 11.21875 -12.421875 C 12.175781 -12.179688 12.910156 -11.847656 13.421875 -11.421875 C 13.941406 -10.992188 14.203125 -10.507812 14.203125 -9.96875 C 14.203125 -9.414062 13.984375 -8.960938 13.546875 -8.609375 C 13.109375 -8.265625 12.503906 -8.09375 11.734375 -8.09375 C 10.941406 -8.09375 10.269531 -8.289062 9.71875 -8.6875 C 9.175781 -9.082031 8.90625 -9.582031 8.90625 -10.1875 C 8.90625 -10.394531 8.9375 -10.59375 9 -10.78125 C 8.71875 -10.863281 8.460938 -10.90625 8.234375 -10.90625 C 7.835938 -10.90625 7.507812 -10.804688 7.25 -10.609375 C 6.988281 -10.421875 6.867188 -10.15625 6.890625 -9.8125 C 6.890625 -9.394531 7.09375 -9.046875 7.5 -8.765625 C 7.914062 -8.484375 8.582031 -8.125 9.5 -7.6875 C 10.289062 -7.34375 10.941406 -7.023438 11.453125 -6.734375 C 11.972656 -6.441406 12.410156 -6.070312 12.765625 -5.625 C 13.117188 -5.1875 13.296875 -4.664062 13.296875 -4.0625 C 13.296875 -3.9375 13.265625 -3.695312 13.203125 -3.34375 C 12.953125 -2.28125 12.25 -1.441406 11.09375 -0.828125 C 9.9375 -0.210938 8.414062 0.09375 6.53125 0.09375 C 4.40625 0.09375 2.722656 -0.1875 1.484375 -0.75 C 0.242188 -1.320312 -0.375 -2.109375 -0.375 -3.109375 C -0.375 -3.785156 -0.171875 -4.296875 0.234375 -4.640625 C 0.648438 -4.992188 1.195312 -5.171875 1.875 -5.171875 C 2.664062 -5.171875 3.34375 -4.925781 3.90625 -4.4375 C 4.46875 -3.945312 4.75 -3.320312 4.75 -2.5625 C 4.75 -2.351562 4.722656 -2.140625 4.671875 -1.921875 C 5.054688 -1.828125 5.421875 -1.78125 5.765625 -1.78125 C 6.179688 -1.78125 6.523438 -1.890625 6.796875 -2.109375 C 7.066406 -2.335938 7.203125 -2.648438 7.203125 -3.046875 C 7.179688 -3.410156 6.992188 -3.722656 6.640625 -3.984375 C 6.296875 -4.242188 5.742188 -4.554688 4.984375 -4.921875 C 4.273438 -5.253906 3.691406 -5.566406 3.234375 -5.859375 C 2.773438 -6.148438 2.378906 -6.515625 2.046875 -6.953125 C 1.722656 -7.398438 1.5625 -7.925781 1.5625 -8.53125 C 1.5625 -9.820312 2.101562 -10.851562 3.1875 -11.625 C 4.28125 -12.394531 5.820312 -12.78125 7.8125 -12.78125 Z M 7.8125 -12.78125 "/></g></g></g></svg>