<svg xmlns="http://www.w3.org/2000/svg" xmlns:xlink="http://www.w3.org/1999/xlink" width="1200" zoomAndPan="magnify" viewBox="0 0 900 449.999984" height="600" preserveAspectRatio="xMidYMid meet" version="1.0"><defs><clipPath id="93162cf8ab"><path d="M 18 174 L 44.820312 174 L 44.820312 201 L 18 201 Z M 18 174 " clip-rule="nonzero"/></clipPath><clipPath id="ab88ccae91"><path d="M 0 205 L 16 205 L 16 295.914062 L 0 295.914062 Z M 0 205 " clip-rule="nonzero"/></clipPath></defs><path fill="#f6f6f6" d="M 409.128906 144.808594 L 409.128906 305.214844 C 400.777344 300.9375 393.167969 295.410156 386.578125 288.863281 C 382.113281 284.421875 378.109375 279.519531 374.640625 274.246094 C 365.390625 260.089844 360 243.179688 360 225 C 360 206.820312 365.390625 189.910156 374.640625 175.753906 C 378.085938 170.480469 382.089844 165.578125 386.554688 161.136719 C 393.167969 154.613281 400.753906 149.0625 409.128906 144.808594 Z M 409.128906 144.808594 " fill-opacity="1" fill-rule="nonzero"/><path fill="#014510" d="M 540 225 C 540 235.523438 538.195312 245.609375 534.886719 255 C 532.484375 261.824219 529.265625 268.277344 525.359375 274.246094 C 509.28125 298.785156 481.550781 315 450 315 C 435.289062 315 421.386719 311.460938 409.128906 305.191406 L 409.128906 144.808594 C 421.386719 138.539062 435.289062 135 450 135 C 481.527344 135 509.28125 151.214844 525.359375 175.753906 C 529.265625 181.722656 532.484375 188.152344 534.886719 195 C 538.195312 204.390625 540 214.476562 540 225 Z M 540 225 " fill-opacity="1" fill-rule="nonzero"/><path fill="#f6f6f6" d="M 457.101562 189.265625 C 453.285156 191.089844 449.699219 193.566406 446.554688 196.734375 C 431.65625 211.628906 431.65625 235.800781 446.554688 250.699219 C 461.449219 265.59375 485.621094 265.59375 500.515625 250.699219 C 503.683594 247.527344 506.160156 243.96875 507.988281 240.148438 C 493.878906 253.519531 471.605469 253.289062 457.792969 239.457031 C 443.984375 225.625 443.730469 203.351562 457.101562 189.265625 Z M 457.101562 189.265625 " fill-opacity="1" fill-rule="nonzero"/><path fill="#f6f6f6" d="M 496.097656 197.21875 L 489.945312 191.207031 L 491.171875 199.71875 L 483.539062 203.742188 L 492.027344 205.199219 L 493.507812 213.6875 L 497.507812 206.078125 L 506.042969 207.304688 L 500.03125 201.128906 L 503.847656 193.402344 Z M 496.097656 197.21875 " fill-opacity="1" fill-rule="nonzero"/><path fill="#f6f6f6" d="M 347.820312 24.519531 L 347.820312 425.539062 C 326.945312 414.84375 307.921875 401.023438 291.441406 384.65625 C 280.28125 373.554688 270.277344 361.296875 261.605469 348.109375 C 238.472656 312.722656 225 270.449219 225 225 C 225 179.550781 238.472656 137.277344 261.605469 101.890625 C 270.21875 88.703125 280.222656 76.445312 291.382812 65.34375 C 307.921875 49.035156 326.890625 35.15625 347.820312 24.519531 Z M 347.820312 24.519531 " fill-opacity="1" fill-rule="nonzero"/><path fill="#014510" d="M 675 225 C 675 251.3125 670.488281 276.523438 662.21875 300 C 656.207031 317.058594 648.167969 333.191406 638.394531 348.109375 C 598.207031 409.464844 528.875 450 450 450 C 413.222656 450 378.46875 441.152344 347.820312 425.480469 L 347.820312 24.519531 C 378.46875 8.847656 413.222656 0 450 0 C 528.816406 0 598.207031 40.535156 638.394531 101.890625 C 648.167969 116.808594 656.207031 132.882812 662.21875 150 C 670.488281 173.476562 675 198.6875 675 225 Z M 675 225 " fill-opacity="1" fill-rule="nonzero"/><path fill="#f6f6f6" d="M 467.753906 135.660156 C 458.210938 140.226562 449.25 146.414062 441.382812 154.335938 C 404.144531 191.578125 404.144531 252.003906 441.382812 289.246094 C 478.625 326.484375 539.050781 326.484375 576.292969 289.246094 C 584.214844 281.320312 590.402344 272.417969 594.96875 262.875 C 559.695312 296.300781 504.007812 295.722656 469.488281 261.140625 C 434.964844 226.5625 434.328125 170.875 467.753906 135.660156 Z M 467.753906 135.660156 " fill-opacity="1" fill-rule="nonzero"/><path fill="#f6f6f6" d="M 565.246094 155.550781 L 549.863281 140.515625 L 552.929688 161.796875 L 533.847656 171.859375 L 555.070312 175.5 L 558.769531 196.722656 L 568.773438 177.699219 L 590.113281 180.761719 L 575.078125 165.324219 L 584.617188 146.011719 Z M 565.246094 155.550781 " fill-opacity="1" fill-rule="nonzero"/><path fill="#ffffff" d="M 7.488281 205.210938 L -9.78125 194.050781 L -26.46875 206.058594 L -21.195312 186.183594 L -37.765625 174.015625 L -17.242188 172.890625 L -10.792969 153.363281 L -3.378906 172.542969 L 17.175781 172.644531 L 1.230469 185.625 Z M 7.488281 205.210938 " fill-opacity="1" fill-rule="nonzero"/><path fill="#006d00" d="M 6.449219 259.445312 L 4.617188 256.550781 L 1.257812 257.199219 L 3.445312 254.5625 L 1.789062 251.566406 L 4.96875 252.832031 L 7.308594 250.332031 L 7.089844 253.75 L 10.1875 255.199219 L 6.871094 256.046875 Z M 6.449219 259.445312 " fill-opacity="1" fill-rule="nonzero"/><g clip-path="url(#93162cf8ab)"><path fill="#006d00" d="M 44.8125 189.226562 L 35.148438 190.894531 L 33.171875 200.503906 L 28.597656 191.824219 L 18.847656 192.910156 L 25.6875 185.878906 L 21.640625 176.941406 L 30.441406 181.273438 L 37.6875 174.664062 L 36.289062 184.375 Z M 44.8125 189.226562 " fill-opacity="1" fill-rule="nonzero"/></g><path fill="#006d00" d="M 12.179688 149.453125 L 10.335938 153.300781 L 13.242188 156.421875 L 9.019531 155.855469 L 6.949219 159.585938 L 6.179688 155.390625 L 1.996094 154.574219 L 5.746094 152.546875 L 5.230469 148.3125 L 8.316406 151.253906 Z M 12.179688 149.453125 " fill-opacity="1" fill-rule="nonzero"/><path fill="#ffffff" d="M 30.011719 217.476562 L 28.167969 221.324219 L 31.074219 224.445312 L 26.847656 223.878906 L 24.78125 227.609375 L 24.011719 223.414062 L 19.828125 222.597656 L 23.578125 220.570312 L 23.058594 216.335938 L 26.144531 219.277344 Z M 30.011719 217.476562 " fill-opacity="1" fill-rule="nonzero"/><path fill="#ffffff" d="M 44 154.007812 L 39.46875 154.960938 L 38.703125 159.527344 L 36.398438 155.511719 L 31.820312 156.191406 L 34.925781 152.761719 L 32.863281 148.617188 L 37.085938 150.507812 L 40.390625 147.265625 L 39.894531 151.867188 Z M 44 154.007812 " fill-opacity="1" fill-rule="nonzero"/><g clip-path="url(#ab88ccae91)"><path fill="#006d00" d="M -234.222656 277.992188 C -212.226562 286.382812 -180.542969 292.304688 -148.347656 291.246094 C -116.09375 290.511719 -83.328125 282.796875 -57.761719 271.300781 C -31.707031 259.949219 -12.851562 244.804688 -1.167969 232.179688 C 10.632812 219.453125 15.265625 209.242188 15.605469 205.511719 C 12.847656 218.089844 5.328125 232.644531 -8.460938 246.367188 C -22.117188 260.078125 -42.042969 272.960938 -66.511719 281.871094 C -90.882812 290.839844 -119.800781 295.835938 -149.300781 295.152344 C -178.75 294.605469 -208.785156 288.382812 -234.222656 277.992188 Z M -234.222656 277.992188 " fill-opacity="1" fill-rule="nonzero"/></g></svg>