<svg width="141" height="136" viewBox="0 0 141 136" fill="none" xmlns="http://www.w3.org/2000/svg">
<path fill-rule="evenodd" clip-rule="evenodd" d="M3.22161 56.1844C33.7645 92.1135 84.589 87.6985 128.057 67.3051C128.804 66.9562 129.661 67.2313 129.966 67.9224C130.271 68.6135 129.914 69.46 129.167 69.809C84.4831 90.7758 32.2929 94.9948 0.894901 58.0585C0.404461 57.4842 0.528499 56.597 1.17171 56.0769C1.81169 55.5589 2.72938 55.6071 3.22161 56.1844Z" fill="#F64747"/>
<path fill-rule="evenodd" clip-rule="evenodd" d="M127.797 68.9403C125.246 68.8303 122.04 68.7265 121.678 68.7045C111.851 68.1079 102.771 66.0687 93.794 62.658C93.065 62.382 92.7562 61.5681 93.1032 60.8443C93.4502 60.1205 94.3261 59.758 95.0551 60.034C103.759 63.3442 112.565 65.3241 122.096 65.9017C122.652 65.9357 129.859 66.1648 131.304 66.3167C131.897 66.3763 132.199 66.589 132.264 66.646C132.626 66.9353 132.722 67.2764 132.742 67.5554C132.761 67.8709 132.659 68.4092 132.16 68.955C131.635 69.5243 130.271 70.4661 129.945 70.7291C125.03 74.709 119.216 78.7665 114.558 83.5033C110.115 88.0202 106.719 93.1612 106.401 99.5211C106.363 100.295 105.675 100.944 104.868 100.97C104.062 100.995 103.438 100.385 103.476 99.6103C103.832 92.4997 107.539 86.7133 112.504 81.6654C117.135 76.9571 122.873 72.8975 127.797 68.9403Z" fill="#F64747"/>
</svg>
