<svg width="28" height="28" viewBox="0 0 28 28" fill="none" xmlns="http://www.w3.org/2000/svg">
<path fill-rule="evenodd" clip-rule="evenodd" d="M27.44 14.3182C27.44 13.3255 27.3509 12.371 27.1854 11.4546H14V16.87H21.5345C21.21 18.62 20.2236 20.1028 18.7409 21.0955V24.6082H23.2654C25.9127 22.1709 27.44 18.5819 27.44 14.3182Z" fill="#4285F4"/>
<path fill-rule="evenodd" clip-rule="evenodd" d="M13.9999 28C17.7799 28 20.949 26.7464 23.2653 24.6082L18.7408 21.0955C17.4872 21.9355 15.8835 22.4318 13.9999 22.4318C10.3535 22.4318 7.26719 19.9691 6.16628 16.66H1.48901V20.2873C3.79265 24.8627 8.52719 28 13.9999 28Z" fill="#34A853"/>
<path fill-rule="evenodd" clip-rule="evenodd" d="M6.16636 16.66C5.88636 15.82 5.72726 14.9228 5.72726 14C5.72726 13.0773 5.88636 12.18 6.16636 11.34V7.71277H1.48909C0.540908 9.60277 0 11.7409 0 14C0 16.2591 0.540908 18.3973 1.48909 20.2873L6.16636 16.66Z" fill="#FBBC05"/>
<path fill-rule="evenodd" clip-rule="evenodd" d="M13.9999 5.56817C16.0554 5.56817 17.9008 6.27454 19.3517 7.66181L23.3672 3.64636C20.9426 1.38727 17.7735 0 13.9999 0C8.52718 0 3.79265 3.13727 1.48901 7.71272L6.16628 11.34C7.26719 8.0309 10.3535 5.56817 13.9999 5.56817Z" fill="#EA4335"/>
</svg>
