<svg width="1200" height="272" viewBox="0 0 1200 272" fill="none" xmlns="http://www.w3.org/2000/svg">
<g clip-path="url(#clip0_5_18599)">
<path d="M1200 71.06H1166.02V11.96H1133.52V71.06H1099.54V100.61H1133.52V212.9H1166.02V100.61H1200V71.06Z" fill="white"/>
<path opacity="0.6" d="M1079.3 104.31C1072.7 93.18 1063.78 84.36 1052.55 77.86C1041.32 71.36 1028.71 68.11 1014.72 68.11C1000.73 68.11 988.43 71.42 977.19 78.01C965.96 84.61 957.05 93.42 950.45 104.45C943.85 115.49 940.55 127.9 940.55 141.68C940.55 155.46 943.84 167.98 950.45 179.21C957.05 190.44 965.96 199.36 977.19 205.96C988.42 212.56 1000.93 215.86 1014.72 215.86C1028.51 215.86 1041.32 212.57 1052.55 205.96C1063.78 199.36 1072.69 190.44 1079.3 179.21C1085.9 167.98 1089.2 155.47 1089.2 141.68C1089.2 127.89 1085.9 115.43 1079.3 104.3V104.31Z" fill="#F64747"/>
<path d="M913.53 104.6C907.52 93.47 899.34 84.6 889 78.01C878.66 71.41 867.08 68.11 854.28 68.11C843.64 68.11 834.08 70.43 825.62 75.06C819.87 78.2 814.95 82.16 810.84 86.89V71.07H778.34V272.01H810.84V197.36C814.86 201.97 819.68 205.84 825.32 208.92C833.79 213.55 843.45 215.87 854.28 215.87C867.08 215.87 878.66 212.62 889 206.12C899.34 199.62 907.51 190.81 913.53 179.68C919.54 168.55 922.54 156.09 922.54 142.3C922.54 128.51 919.54 115.76 913.53 104.63V104.6ZM883.98 164.44C880.53 170.94 875.8 176.01 869.79 179.66C863.78 183.31 856.84 185.12 848.96 185.12C841.08 185.12 834.08 183.3 827.98 179.66C821.87 176.01 817.15 170.94 813.79 164.44C810.44 157.93 808.77 150.45 808.77 141.98C808.77 133.51 810.44 126.02 813.79 119.52C817.14 113.02 821.86 107.95 827.98 104.3C834.08 100.65 841.08 98.83 848.96 98.83C856.84 98.83 863.78 100.65 869.79 104.3C875.8 107.95 880.53 113.02 883.98 119.52C887.42 126.02 889.15 133.51 889.15 141.98C889.15 150.45 887.43 157.94 883.98 164.44Z" fill="white"/>
<path d="M697.66 215.85C689.78 215.85 682.2 214.82 674.92 212.75C667.63 210.68 660.92 207.73 654.82 203.89C648.71 200.05 643.39 195.37 638.86 189.85L659.55 169.16C664.48 174.88 670.14 179.16 676.54 182.01C682.94 184.87 690.18 186.3 698.26 186.3C705.55 186.3 711.06 185.22 714.81 183.05C718.55 180.89 720.42 177.73 720.42 173.59C720.42 169.45 718.65 165.91 715.1 163.54C711.55 161.18 706.97 159.16 701.36 157.49C695.75 155.82 689.83 154.09 683.63 152.32C677.43 150.55 671.52 148.14 665.9 145.08C660.29 142.03 655.71 137.85 652.16 132.53C648.62 127.21 646.84 120.31 646.84 111.84C646.84 102.78 648.96 94.99 653.2 88.49C657.44 81.99 663.44 76.97 671.22 73.42C679 69.88 688.31 68.1 699.15 68.1C710.57 68.1 720.67 70.13 729.44 74.16C738.2 78.2 745.55 84.26 751.46 92.33L730.77 113.02C726.63 107.9 721.91 104.05 716.58 101.5C711.27 98.94 705.16 97.66 698.26 97.66C691.76 97.66 686.74 98.65 683.19 100.61C679.64 102.58 677.87 105.44 677.87 109.18C677.87 113.12 679.64 116.18 683.19 118.34C686.74 120.51 691.32 122.38 696.93 123.95C702.54 125.53 708.46 127.25 714.66 129.12C720.86 131 726.77 133.55 732.39 136.81C738 140.06 742.58 144.4 746.13 149.81C749.67 155.23 751.45 162.27 751.45 170.94C751.45 184.73 746.62 195.67 736.97 203.74C727.32 211.82 714.22 215.85 697.66 215.85Z" fill="white"/>
<path d="M582.72 0.140015V86.85C578.63 82.13 573.77 78.18 568.09 75.04C559.71 70.42 550.11 68.09 539.28 68.09C526.47 68.09 514.9 71.4 504.56 77.99C494.22 84.59 486.05 93.45 480.04 104.58C474.03 115.71 471.02 128.27 471.02 142.25C471.02 156.23 474.02 168.5 480.04 179.63C486.05 190.76 494.22 199.57 504.56 206.07C514.9 212.58 526.47 215.82 539.28 215.82C550.11 215.82 559.77 213.5 568.24 208.87C573.88 205.79 578.7 201.93 582.72 197.32V212.87H615.22V0.140015H582.72ZM565.73 179.66C559.72 183.31 552.68 185.12 544.6 185.12C536.52 185.12 529.78 183.3 523.77 179.66C517.76 176.01 513.03 170.94 509.58 164.44C506.13 157.93 504.41 150.45 504.41 141.98C504.41 133.51 506.13 126.02 509.58 119.52C513.02 113.02 517.75 107.95 523.77 104.3C529.78 100.65 536.81 98.83 544.89 98.83C552.97 98.83 559.71 100.65 565.73 104.3C571.74 107.95 576.41 113.02 579.77 119.52C583.11 126.02 584.79 133.51 584.79 141.98C584.79 150.45 583.11 157.94 579.77 164.44C576.41 170.94 571.74 176.01 565.73 179.66Z" fill="white"/>
<path d="M439.7 97.21C434.97 88.64 428.47 81.65 420.2 76.23C411.92 70.82 402.47 68.1 391.83 68.1C381.19 68.1 371.98 70.52 363.62 75.34C358.16 78.49 353.49 82.4 349.58 87.05V71.06H317.08V212.9H349.58V131.04C349.58 124.74 350.96 119.12 353.71 114.2C356.46 109.28 360.31 105.44 365.24 102.68C370.16 99.93 375.77 98.54 382.08 98.54C391.54 98.54 399.26 101.6 405.27 107.7C411.28 113.81 414.29 121.58 414.29 131.04V212.9H446.79V123.96C446.79 114.7 444.42 105.79 439.7 97.21Z" fill="white"/>
<path d="M248.22 212.9V71.0601H280.72V212.9H248.22Z" fill="white"/>
<path d="M179.37 212.9V0.140015H211.87V212.9H179.37Z" fill="white"/>
<path d="M138.59 120.11C133.09 112.83 125.97 106.79 117.22 101.97C123.24 98.0101 128.15 93.4201 131.94 88.2001C137.95 79.9301 140.95 70.3701 140.95 59.5401C140.95 50.2801 138.69 41.6201 134.16 33.5401C129.63 25.4601 122.74 18.8601 113.47 13.7401C104.21 8.62006 92.59 6.06006 78.61 6.06006H0V212.9H81.26C96.04 212.9 108.5 210.19 118.64 204.77C128.79 199.35 136.47 192.21 141.69 183.34C146.9 174.47 149.52 164.73 149.52 154.09C149.52 141.08 145.87 129.76 138.59 120.1V120.11ZM77.71 35.6001C86.58 35.6001 93.67 37.8701 98.99 42.3901C104.32 46.9301 106.97 53.6201 106.97 62.4901C106.97 71.3601 104.31 78.0501 98.99 82.5901C93.68 87.1201 86.58 89.3801 77.71 89.3801H33.98V35.6001H77.71ZM106.97 173.6C101.26 180.11 93.18 183.35 82.74 183.35H33.98V118.93H82.74C89.64 118.93 95.54 120.41 100.47 123.36C105.39 126.31 109.13 130.26 111.7 135.18C114.26 140.11 115.54 145.42 115.54 151.14C115.54 159.61 112.68 167.1 106.97 173.6Z" fill="white"/>
</g>
<defs>
<clipPath id="clip0_5_18599">
<rect width="1200" height="272" fill="white"/>
</clipPath>
</defs>
</svg>
