<svg width="57" height="59" viewBox="0 0 57 59" fill="none" xmlns="http://www.w3.org/2000/svg">
<path d="M17.5046 36.5654L21.741 53.6792C22.2556 55.7605 20.9867 57.8648 18.9067 58.3793C16.8254 58.8939 14.7211 57.625 14.2066 55.545L9.97019 38.4312L17.5046 36.5654Z" fill="url(#paint0_linear_818_59280)"/>
<path d="M10.1792 39.2096L19.6949 39.8546L18.9175 42.0873L19.4825 44.5708L11.0727 42.8232L10.1792 39.2096Z" fill="url(#paint1_linear_818_59280)"/>
<path fill-rule="evenodd" clip-rule="evenodd" d="M46.8154 49.4901L8.20855 41.1372L8.20566 41.1195L6.50554 40.7434C3.92863 40.1732 1.97086 38.2133 1.54457 35.7737L0.58147 30.2697C0.154053 27.8312 1.34157 25.3916 3.59031 24.0861L3.58918 24.0871L5.26307 23.1001L5.2616 23.0911L39.2059 2.89111L46.8154 49.4901Z" fill="url(#paint2_linear_818_59280)"/>
<path fill-rule="evenodd" clip-rule="evenodd" d="M46.8154 49.4901L8.20855 41.1372L8.20566 41.1195L6.50554 40.7434C3.92863 40.1732 1.97086 38.2133 1.54457 35.7737L0.58147 30.2697C0.154053 27.8312 1.34157 25.3916 3.59031 24.0861L3.58918 24.0871L5.26307 23.1001L5.2616 23.0911L39.2059 2.89111L46.8154 49.4901Z" fill="url(#paint3_linear_818_59280)"/>
<path d="M47.1896 51.7819C51.0458 51.1523 54.0533 47.6921 55.6575 42.0391C57.0923 36.9806 57.2945 30.5867 56.2242 24.0342C55.1539 17.4817 52.9297 11.4836 49.9598 7.14435C46.6412 2.29533 42.6893 -0.0292894 38.8319 0.601507C34.9757 1.23109 31.9682 4.69139 30.364 10.3443C28.9292 15.4028 28.727 21.7967 29.7973 28.3493C30.8676 34.9018 33.0918 40.8998 36.0617 45.2391C39.3803 50.0881 43.3322 52.4127 47.1896 51.7819ZM39.5801 5.18295C43.6543 4.51825 49.6765 12.7573 51.6403 24.7812C53.6041 36.8051 50.5143 46.5334 46.4402 47.1981C42.366 47.8628 36.3438 39.6237 34.38 27.5998C32.4162 15.5759 35.506 5.84765 39.5801 5.18295Z" fill="url(#paint4_linear_818_59280)"/>
<path d="M31.6477 27.6523C32.1937 30.9975 33.0437 34.1249 34.1079 36.8999C37.1372 44.8085 41.9111 49.896 46.3751 49.1671C52.4071 48.1828 55.5925 36.9532 53.4907 24.0866C51.3888 11.2177 44.7975 1.58381 38.7656 2.56935C34.3016 3.29822 31.3971 9.63524 31.0375 18.1007C30.9116 21.0731 31.1004 24.3082 31.6465 27.6535L31.6477 27.6523Z" fill="url(#paint5_linear_818_59280)"/>
<path d="M31.6476 28.0406C32.1936 31.3859 33.0436 34.5132 34.1078 37.2882L45.1909 33.9696L42.6011 18.1089L31.0374 18.4878C30.9114 21.4602 31.1003 24.6953 31.6464 28.0406H31.6476Z" fill="#942B2B"/>
<path d="M40.1806 26.6443C39.4657 22.2643 40.5505 18.4419 42.6036 18.1068C44.6567 17.7717 46.9006 21.0508 47.6155 25.4308C48.3304 29.8109 47.2456 33.6332 45.1925 33.9683C43.1394 34.3034 40.8955 31.0244 40.1806 26.6443Z" fill="#BA5656"/>
<defs>
<linearGradient id="paint0_linear_818_59280" x1="22.5735" y1="43.5645" x2="9.96277" y2="47.5258" gradientUnits="userSpaceOnUse">
<stop offset="0.12" stop-color="#999999"/>
<stop offset="0.500059" stop-color="#C7C7C7"/>
<stop offset="1" stop-color="#CCCCCC"/>
</linearGradient>
<linearGradient id="paint1_linear_818_59280" x1="15.3906" y1="38.7512" x2="14.6764" y2="43.5398" gradientUnits="userSpaceOnUse">
<stop stop-color="#1A1A1A"/>
<stop offset="1" stop-color="#1A1A1A" stop-opacity="0"/>
</linearGradient>
<linearGradient id="paint2_linear_818_59280" x1="2.68216" y1="24.0549" x2="8.33248" y2="41.6774" gradientUnits="userSpaceOnUse">
<stop stop-color="#AFAFAF"/>
<stop offset="1" stop-color="#8B8B8B"/>
</linearGradient>
<linearGradient id="paint3_linear_818_59280" x1="5.35822" y1="18.2752" x2="15.2708" y2="35.1876" gradientUnits="userSpaceOnUse">
<stop stop-color="#A9A9A9"/>
<stop offset="0.500059" stop-color="#E1E1E1"/>
<stop offset="1" stop-color="#EDEDED"/>
</linearGradient>
<linearGradient id="paint4_linear_818_59280" x1="43.0108" y1="0.5" x2="43.0108" y2="51.8834" gradientUnits="userSpaceOnUse">
<stop stop-color="#F64747"/>
<stop offset="1" stop-color="#EE3232"/>
</linearGradient>
<linearGradient id="paint5_linear_818_59280" x1="42.569" y1="2.5" x2="42.569" y2="49.2364" gradientUnits="userSpaceOnUse">
<stop stop-color="#A7ACB3"/>
<stop offset="1" stop-color="#858D96"/>
</linearGradient>
</defs>
</svg>
