<svg width="78" height="79" viewBox="0 0 78 79" fill="none" xmlns="http://www.w3.org/2000/svg">
<path opacity="0.6" d="M60.3484 80.3185C60.8348 79.5764 61.4459 78.9634 62.1327 78.2977C61.2287 78.8186 60.708 78.9441 60.2839 78.7432C59.671 79.701 59.671 79.701 58.6819 80.6604C59.577 80.3387 59.9954 80.2799 60.2716 80.4359C60.2941 80.4061 60.3229 80.3559 60.3484 80.3185ZM59.8061 82.2969C60.503 81.593 61.1197 81.0633 61.8558 80.4419C60.9621 80.9634 60.8204 81.0356 60.3361 81.1139C60.2811 81.1237 60.1987 81.1137 60.1501 81.1472C60.1203 81.1689 60.097 81.2142 60.0745 81.244C59.721 81.7059 59.0903 82.253 58.1986 82.8757C59.0745 82.4829 59.5228 82.3091 59.6989 82.4023C59.7345 82.3706 59.7758 82.3289 59.8061 82.2969ZM60.1707 77.7849C60.6069 76.7443 61.2861 76.0315 61.9428 75.3926C60.7497 76.0238 60.0924 76.0895 59.603 75.6282C59.1005 76.9191 59.1005 76.9191 58.0733 78.089C59.0547 77.71 59.6251 77.6678 60.1101 77.937C60.1283 77.8914 60.1525 77.8305 60.1707 77.7849ZM55.1738 83.2506C55.805 82.5609 55.805 82.5609 56.8686 81.6577C55.9843 81.9256 55.4893 81.9203 55.0937 81.6303C54.6597 82.3651 54.1527 82.8363 53.2246 83.3687C54.2536 83.1533 54.7389 83.1477 55.08 83.3489C55.1076 83.3194 55.1462 83.2801 55.1738 83.2506ZM54.716 85.1146C55.3469 84.5624 56.2406 83.9969 56.7195 83.6978C55.8627 84.0295 55.3921 84.0957 55.0389 83.9248C54.5019 84.511 53.8599 84.9407 52.8238 85.4124C53.0414 85.3705 53.0755 85.3647 53.454 85.2777C53.7534 85.212 53.8714 85.1903 53.9863 85.1762C54.0176 85.1728 54.062 85.1676 54.0933 85.1642C54.3019 85.1452 54.5194 85.2848 54.716 85.1146ZM52.7 86.6111C51.3563 87.1118 49.5557 87.7545 48.1832 88.1679L48.1148 88.1847C48.172 88.1387 48.172 88.1388 50.9446 87.1009C49.4812 87.5168 49.3349 87.4461 49.118 87.3402C49.3451 86.9566 49.42 86.8261 51.6475 85.8423C50.3871 86.1118 50.2661 86.097 49.551 85.8612C46.9985 87.713 43.9928 87.3551 44.0123 86.7935C44.0125 86.7443 44.0523 86.6843 44.0677 86.6411C44.7978 85.7653 48.1007 84.7504 49.4843 85.4009C50.3107 85.1012 50.8817 84.421 51.6152 83.9784C50.3659 84.0566 50.3659 84.0566 49.5376 83.7157C47.8195 85.9374 44.2616 85.5761 44.0113 84.8822C43.6274 83.8071 47.431 82.1598 49.2171 83.0696C49.3153 83.1194 49.4431 83.1968 49.5356 83.2566C49.8976 82.4684 50.3499 82.0459 51.6356 81.293C47.5953 81.9204 49.3283 79.3961 49.348 79.3687C50.6018 77.644 54.1491 76.8429 54.3336 78.63C54.4297 79.5692 53.2499 80.419 52.5438 80.9254C53.805 80.5963 54.3286 80.6006 54.9824 80.9548C55.2979 80.208 55.6805 79.7348 56.611 78.9354C53.1337 79.1545 54.1753 77.555 55.9027 75.4428C52.5542 76.4395 52.9293 73.9431 53.3356 73.1497C54.4123 71.0336 57.3768 70.3103 57.9994 72.0112C58.3082 72.8589 57.8741 73.8633 56.7089 74.9993C58.0238 74.5047 58.6377 74.5169 59.3355 75.0526C59.945 71.6413 63.2006 70.4576 63.9128 71.4168C64.2425 71.8586 64.286 72.8103 62.634 74.8309C63.9195 74.1272 64.2474 74.0165 64.7885 74.4368C66.2465 70.2551 68.3766 69.8336 68.6017 70.2019C69.135 71.0704 66.5292 75.2791 65.1462 74.9321C65.0772 74.9151 64.9972 74.8638 64.9342 74.8316C64.3367 75.7021 63.9065 76.6835 63.1818 77.4663C64.5119 76.664 64.6318 76.7436 64.8889 76.9166C67.2825 72.7008 68.7072 72.638 68.7173 72.6437C68.8124 73.5543 65.9004 77.4082 64.936 77.2228C62.9644 79.5231 62.9644 79.5231 62.7891 79.6842C63.7298 79.0228 63.8565 78.9394 64.1425 78.7925C64.1556 78.8348 64.1757 78.8904 64.1888 78.9326C63.89 79.3018 63.3567 79.87 61.6663 81.2531C61.7179 81.212 61.7832 81.1587 61.8321 81.12C61.1841 81.609 60.3188 82.2669 59.6707 82.7559L59.8032 82.6624C60.2875 82.3144 60.5312 82.1366 61.0358 81.7508C61.0222 81.763 58.5847 83.4633 57.1039 84.3606C57.602 84.0886 57.8083 83.9734 58.2277 83.7176C58.2006 83.7368 58.1657 83.7581 58.1362 83.7745C56.7493 84.5735 54.8727 85.5879 53.4346 86.2854L53.4638 86.2741C53.8075 86.115 54.825 85.6059 56.2257 84.8389C56.2044 84.848 53.0579 86.2973 51.6406 86.8585C52.1637 86.6916 52.6847 86.5169 53.21 86.3579C53.0602 86.4375 52.8593 86.5477 52.7 86.6111Z" fill="#F64747"/>
<path opacity="0.6" d="M67.9112 74.8821L67.9309 74.8547C68.077 74.6609 68.1252 74.5885 68.1577 74.5203C67.8291 74.6414 64.8485 78.066 64.3369 78.7962C64.3224 78.8239 64.2996 78.8589 64.2875 78.8893C64.375 78.8555 64.3829 78.8534 64.6332 78.6059C65.6452 77.5182 66.9904 76.0503 67.9112 74.8821Z" fill="#F64747"/>
<path opacity="0.6" d="M46.7689 82.8474C47.5614 82.5976 49.0055 81.8408 48.7816 80.7802C48.0867 79.1633 44.1258 80.2102 43.5037 81.7302C43.4009 81.9836 43.429 82.1253 43.466 82.2934C43.8844 83.2641 45.6488 83.2028 46.7689 82.8474Z" fill="#F64747"/>
<path opacity="0.6" d="M66.7359 70.8537C68.1839 69.1325 68.4483 66.8916 67.1913 66.9227C65.7136 66.9591 63.7041 70.0042 64.1666 71.5143C64.6195 72.6063 65.9648 71.7661 66.7359 70.8537Z" fill="#F64747"/>
<path opacity="0.6" d="M51.3181 77.8538C53.2098 76.8454 53.5885 74.8705 51.9962 74.3324C50.198 73.7227 47.1824 75.6438 47.8465 77.4794C48.5015 78.6661 50.2693 78.4104 51.3181 77.8538Z" fill="#F64747"/>
<path opacity="0.6" d="M61.3753 71.5684C62.0385 70.9532 63.0298 69.5505 62.5371 68.2046C61.5723 66.4113 58.7936 68.0037 58.1448 70.2094C57.9057 71.0255 58.0826 71.5103 58.1652 71.7407C58.9006 73.1058 60.5229 72.3619 61.3753 71.5684Z" fill="#F64747"/>
<path opacity="0.6" d="M70.3697 71.0587C70.8108 70.3373 71.596 68.9123 71.736 68.1502C71.7444 68.0495 71.7539 67.84 71.5033 68.0485C70.817 68.6157 69.1244 71.4716 68.9121 72.5874C68.9034 72.6933 68.8933 72.9131 69.163 72.6875C69.373 72.5103 69.8024 71.9906 70.3697 71.0587Z" fill="#F64747"/>
<path opacity="0.6" d="M70.6254 68.9728C71.0218 68.3059 71.7497 66.7946 71.6749 65.8463C71.4755 64.9893 70.5161 66.1086 69.9605 67.0153C69.514 67.7415 68.7797 69.2292 68.8588 70.1933C69.0567 71.032 69.9624 70.034 70.4897 69.2113C70.5279 69.1331 70.585 69.0431 70.6254 68.9728Z" fill="#F64747"/>
<path opacity="0.6" d="M45.8021 79.9676C47.613 79.2813 48.17 77.6772 46.8293 77.0032C44.9365 76.0561 41.9806 77.8406 42.3408 79.2359C42.3537 79.2833 42.3787 79.3444 42.3942 79.3894C42.9864 80.4506 44.7444 80.3655 45.8021 79.9676Z" fill="#F64747"/>
<path opacity="0.6" d="M71.2101 69.7562C70.9621 70.1879 69.0872 73.1474 68.333 74.3045C68.3133 74.3319 68.296 74.362 68.2763 74.3894C69.2081 73.0299 70.3887 71.1791 71.2101 69.7562Z" fill="#F64747"/>
<path opacity="0.6" d="M65.6642 67.498C67.0837 65.7777 66.9365 63.3004 65.4186 63.3579C63.8957 63.415 62.1667 66.0484 62.8664 67.8964C63.5789 69.2083 64.9615 68.3495 65.6642 67.498Z" fill="#F64747"/>
<path opacity="0.6" d="M70.1593 66.3631C71.2819 64.5297 71.3428 62.2641 70.2564 62.5747C69.0724 62.9134 67.7363 65.8392 68.1515 67.1806C68.5645 68.2003 69.5725 67.3172 70.1593 66.3631Z" fill="#F64747"/>
<path opacity="0.6" d="M54.7732 71.2019C56.6393 69.7849 56.3871 67.2393 54.3619 67.0133C52.2748 66.7785 50.3532 69.2452 51.2969 70.9543C52.2005 72.3706 53.9082 71.8547 54.7732 71.2019Z" fill="#F64747"/>
<path opacity="0.6" d="M49.6345 74.1856C51.5049 73.0541 51.4722 70.8375 49.5729 70.3621C47.6352 69.8766 45.1971 71.857 46.096 73.758C46.97 75.1026 48.729 74.7323 49.6345 74.1856Z" fill="#F64747"/>
<path opacity="0.6" d="M59.5756 67.6263C60.1968 67.019 61.0692 65.6094 60.3818 64.1771C60.3818 64.1771 60.3819 64.1771 60.3794 64.1744C60.3794 64.1744 60.3794 64.1744 60.377 64.1716C59.1266 62.2503 56.3976 63.7445 55.9973 66.0034C55.8467 66.8583 56.0993 67.3786 56.2197 67.6293C56.8764 68.785 58.3855 68.7893 59.5756 67.6263Z" fill="#F64747"/>
<path opacity="0.6" d="M40.1555 81.3683C40.9051 81.186 42.2296 80.5702 41.8798 79.5334C40.9985 77.9549 37.3241 78.6683 36.8725 80.11C36.7994 80.3418 36.8464 80.4716 36.8973 80.6224C37.4252 81.5398 39.1535 81.6086 40.1555 81.3683Z" fill="#F64747"/>
<path d="M69.1209 63.1056C70.2517 61.2649 69.8992 58.7938 68.5581 59.1597C67.4726 59.4548 66.1739 61.8668 66.8528 63.6254C67.5096 64.8692 68.5915 63.9645 69.1209 63.1056Z" fill="#F64747"/>
<path opacity="0.6" d="M73.1474 64.0646C73.8241 62.3636 74.061 60.5542 73.5759 60.7803C72.979 61.057 71.7944 64.0978 71.9134 65.404C72.0286 65.9241 72.3411 65.5869 72.5803 65.2169C72.706 65.0167 72.9109 64.6577 73.1474 64.0646Z" fill="#F64747"/>
<path opacity="0.6" d="M72.9083 66.0861C73.4249 64.8219 73.9565 63.2059 73.8691 63.0141C73.5436 63.1275 72.0875 66.8711 71.9719 67.7046C71.9638 67.8001 71.9654 67.8183 71.9839 67.8557C72.1852 67.7844 72.649 66.7142 72.9083 66.0861Z" fill="#F64747"/>
<path opacity="0.6" d="M44.2926 76.5611C45.0208 76.2116 46.1008 75.2937 45.527 74.0495C44.2558 72.0829 40.9315 73.5141 40.6713 75.1432C40.623 75.4413 40.6737 75.7295 40.8184 76.0075C41.5734 77.1689 43.3058 77.0331 44.2926 76.5611Z" fill="#F64747"/>
<path opacity="0.6" d="M63.8898 63.5578C64.3623 62.9653 65.0784 61.4793 64.4017 60.0865C63.2807 58.349 61.0736 59.697 60.6437 61.8401C60.4507 62.8014 60.6985 63.4485 60.8627 63.7485C61.7331 65.111 63.1853 64.4403 63.8898 63.5578Z" fill="#F64747"/>
<path opacity="0.6" d="M73.0916 65.6537C72.7203 66.6021 72.218 67.7556 71.7741 68.661C72.1736 67.7609 72.73 66.569 73.0916 65.6537Z" fill="#F64747"/>
<path opacity="0.6" d="M72.7151 61.5807C72.9963 60.889 73.3983 59.4522 73.1349 58.4463C72.7874 57.5497 72.0698 58.434 71.6718 59.3524C71.3902 60.0052 70.9269 61.5162 71.2052 62.5774C71.564 63.5032 72.2479 62.6195 72.6168 61.8006C72.649 61.7377 72.6854 61.6464 72.7151 61.5807Z" fill="#F64747"/>
<path opacity="0.6" d="M52.3182 66.8774C54.0417 65.4599 53.5015 62.8276 51.4278 62.5418C49.3207 62.2514 47.6564 64.7537 48.7719 66.5401C49.7932 67.9399 51.4609 67.5773 52.3182 66.8774Z" fill="#F64747"/>
<path opacity="0.6" d="M67.3865 59.2861C68.5464 57.4341 67.7867 54.8306 66.2118 55.2478C64.9423 55.5842 64.0297 57.868 64.8606 59.555C65.678 60.847 66.8294 60.1745 67.3865 59.2861Z" fill="#F64747"/>
<path opacity="0.6" d="M38.7861 78.3223C40.5427 77.7237 40.6331 76.2507 39.4137 75.6304C37.736 74.7762 34.9199 76.1175 35.4486 77.5148C35.4641 77.5597 35.4949 77.6108 35.5156 77.6561C36.1706 78.6612 37.8232 78.6505 38.7861 78.3223Z" fill="#F64747"/>
<path opacity="0.6" d="M57.0141 63.2641C58.6987 61.6214 57.9302 58.7658 55.8063 58.7649C53.9573 58.7643 52.4445 61.0679 53.5874 63.0556C54.6932 64.5614 56.2774 63.9839 57.0141 63.2641Z" fill="#F64747"/>
<path opacity="0.6" d="M47.3188 70.0556C49.0489 68.8382 48.5651 66.3518 46.5327 66.0243C44.6004 65.7155 42.6808 67.744 43.7676 69.6247C44.804 71.0305 46.4969 70.6357 47.3188 70.0556Z" fill="#F64747"/>
<path opacity="0.6" d="M71.7148 58.5149C72.4722 56.6734 72.0644 54.487 71.0438 54.9155C70.1162 55.3054 69.3436 57.7243 69.9264 59.2155C70.511 60.3177 71.3251 59.4701 71.7148 58.5149Z" fill="#F64747"/>
<path opacity="0.6" d="M34.5636 82.0537C35.2786 81.9758 36.5532 81.5957 36.2662 80.7285C35.4763 79.3187 31.7557 79.7986 31.5136 80.892C31.4857 81.0148 31.5214 81.1154 31.5504 81.1975C31.9862 81.9566 33.6059 82.1566 34.5636 82.0537Z" fill="#F64747"/>
<path opacity="0.6" d="M61.3611 59.2105C62.8377 57.4443 61.835 54.557 59.8321 54.7965C58.1165 55.0007 57.1755 57.5059 58.2052 59.1188C59.2429 60.5481 60.6757 60.0319 61.3611 59.2105Z" fill="#F64747"/>
<path opacity="0.6" d="M75.0931 58.3004L75.0979 58.2618C75.1097 58.1925 75.1191 58.1204 75.1309 58.0511C75.1351 58.0228 75.1375 57.9814 75.139 57.9556C75.0366 58.0663 74.1672 61.8905 74.0724 62.5437C74.0679 62.5772 74.0655 62.6185 74.0661 62.6523C74.1071 62.6158 74.1181 62.606 74.2484 62.1467C74.5199 60.9929 74.8912 59.4609 75.0931 58.3004Z" fill="#F64747"/>
<path opacity="0.6" d="M74.7784 58.9436C74.9192 58.3034 75.1671 56.8862 75.0824 56.1085C75.0625 56.0036 75.0219 55.8094 74.8859 56.009C74.5352 56.5125 73.9043 59.2613 74.0219 60.4117C74.0442 60.5194 74.0906 60.7477 74.2485 60.5286C74.3721 60.3646 74.5726 59.8575 74.7784 58.9436Z" fill="#F64747"/>
<path opacity="0.6" d="M42.0916 72.7744C42.7216 72.4192 43.7222 71.3956 42.9975 70.07C42.9975 70.07 42.9975 70.07 42.995 70.0673C42.995 70.0673 42.995 70.0673 42.9926 70.0646C42.9926 70.0646 42.9926 70.0646 42.9902 70.0618C42.9902 70.0618 42.9902 70.0618 42.9877 70.0591C42.9877 70.0591 42.9877 70.0591 42.9853 70.0564C42.9853 70.0564 42.9853 70.0564 42.9828 70.0536C42.9828 70.0536 42.9828 70.0536 42.9804 70.0509C42.9804 70.0509 42.9804 70.0509 42.978 70.0482C41.5405 68.0875 38.6599 69.3784 38.4224 71.11C38.3684 71.5062 38.4554 71.8847 38.6713 72.2317C39.5638 73.4373 41.2043 73.2754 42.0916 72.7744Z" fill="#F64747"/>
<path opacity="0.6" d="M74.3841 56.6671C74.7398 55.1342 74.6788 53.1391 74.1556 53.4433C73.6432 53.7379 73.01 56.3465 73.3882 57.7454C73.6403 58.4083 73.9633 57.846 74.0931 57.5735C74.1945 57.3459 74.3018 57.015 74.3841 56.6671Z" fill="#F64747"/>
<path opacity="0.6" d="M70.0522 54.98C70.8483 53.2314 70.1033 50.8207 68.8939 51.2409C67.8908 51.59 67.2403 53.8708 68.0314 55.304C68.8166 56.5708 69.6872 55.7758 70.0522 54.98Z" fill="#F64747"/>
<path opacity="0.6" d="M33.382 79.4384C34.8713 79.1122 35.3342 78.0134 34.2532 77.3778C32.628 76.4229 29.9278 77.509 30.3059 78.5941C30.3169 78.6285 30.3403 78.6713 30.3541 78.7032C30.7208 79.3572 32.1658 79.7078 33.382 79.4384Z" fill="#F64747"/>
<path opacity="0.6" d="M64.9446 55.0479C65.0524 54.8882 65.971 53.4423 64.9851 51.7464C63.8356 50.1421 62.1893 50.9416 61.8472 52.6879C61.7879 52.9956 61.6348 54.0734 62.2512 55.0297C63.264 56.4419 64.44 55.7915 64.9446 55.0479Z" fill="#F64747"/>
<path opacity="0.6" d="M36.8657 74.8945C38.4409 74.1583 38.4313 72.485 36.8487 71.9138C34.9282 71.2218 32.9298 72.9087 33.552 74.2128C33.5727 74.2581 33.6108 74.3173 33.6342 74.3601C34.4085 75.4111 35.9914 75.3055 36.8657 74.8945Z" fill="#F64747"/>
<path opacity="0.6" d="M29.0125 82.0365C30.4216 82.0661 30.9689 81.5247 30.499 81.0411C29.5691 80.0797 26.3249 80.2137 26.2122 80.9514C26.2083 80.9745 26.2004 81.0208 26.2373 81.1007C26.5797 81.6833 28.0696 82.0183 29.0125 82.0365Z" fill="#F64747"/>
<path d="M49.247 62.1796C49.8354 61.6457 50.5791 60.3558 49.6213 58.8896L49.6189 58.8869L49.6164 58.8842L49.614 58.8814L49.6116 58.8787L49.6091 58.876L49.6067 58.8732L49.6043 58.8705L49.6018 58.8678C48.0203 56.9766 45.4231 58.2112 45.2923 60.338C45.246 61.1392 45.5722 61.643 45.7318 61.8883C45.7318 61.8883 45.7318 61.8883 45.7342 61.891C45.7342 61.891 45.7342 61.891 45.7366 61.8937C45.7366 61.8937 45.7366 61.8937 45.7391 61.8964C45.7391 61.8964 45.7391 61.8964 45.7415 61.8992C45.7415 61.8992 45.7415 61.8992 45.7439 61.9019C45.7439 61.9019 45.7439 61.9019 45.7464 61.9047C45.7464 61.9047 45.7464 61.9047 45.7488 61.9074C45.7488 61.9074 45.7488 61.9074 45.7512 61.9101C46.937 63.335 48.5246 62.8329 49.247 62.1796Z" fill="#F64747"/>
<path opacity="0.6" d="M73.455 53.8463C73.8929 52.103 73.4546 50.1301 72.7374 50.6021C72.0717 51.0382 71.6759 53.2637 72.2127 54.6096C72.684 55.5185 73.1789 54.764 73.3971 54.0401C73.4156 53.9893 73.4359 53.9075 73.455 53.8463Z" fill="#F64747"/>
<path opacity="0.6" d="M53.9064 58.4266C55.4223 56.8312 54.4652 54.1437 52.3757 54.1318C50.5428 54.1218 49.1785 56.3224 50.4292 58.2386C51.2833 59.3901 52.9068 59.4788 53.9064 58.4266Z" fill="#F64747"/>
<path opacity="0.6" d="M44.3551 65.6102C45.9659 64.3471 45.3033 61.9022 43.2799 61.6452C41.4185 61.4105 39.747 63.4533 40.9167 65.2455C42.0203 66.6111 43.6107 66.1948 44.3551 65.6102Z" fill="#F64747"/>
<path opacity="0.6" d="M39.4168 68.6207C40.9108 67.5401 40.4577 65.4185 38.6546 65.0731C36.8232 64.7234 34.9657 66.574 36.0632 68.2686C37.0502 69.4538 38.6481 69.1779 39.4168 68.6207Z" fill="#F64747"/>
<path opacity="0.6" d="M58.2097 54.4665C59.6068 52.8642 58.4163 49.9972 56.4462 50.2075C55.0005 50.3625 53.779 52.3821 55.0266 54.2618C56.2106 55.7176 57.6069 55.1604 58.2097 54.4665Z" fill="#F64747"/>
<path opacity="0.6" d="M75.5815 53.1781C75.5454 54.4752 75.3504 56.4582 75.2762 57.0685C75.3851 55.9027 75.5319 54.35 75.5815 53.1781Z" fill="#F64747"/>
<path opacity="0.6" d="M75.5298 53.6705C75.5958 52.484 75.5686 51.0716 75.4732 50.9261C75.3156 51.0518 75.1224 54.3031 75.2254 55.1674C75.245 55.2775 75.2468 55.2905 75.273 55.3309C75.2782 55.3312 75.2858 55.3343 75.291 55.3346C75.4089 55.2247 75.4919 54.3711 75.5298 53.6705Z" fill="#F64747"/>
<path opacity="0.6" d="M31.7366 76.5014C32.3509 76.2827 33.2509 75.6527 32.7126 74.6906C31.5563 73.1611 28.8401 74.1192 28.6556 75.3378C28.6106 75.623 28.726 75.8242 28.7891 75.9446C29.2401 76.6216 30.6457 76.8895 31.7366 76.5014Z" fill="#F64747"/>
<path opacity="0.6" d="M71.9498 50.51C72.4103 48.8251 71.6599 46.7771 70.7692 47.2909C70.0529 47.7033 69.7481 49.6566 70.4321 51.0136C70.9283 51.8954 71.6369 51.6615 71.9498 50.51Z" fill="#F64747"/>
<path opacity="0.6" d="M67.7635 50.9631C68.6189 49.2646 67.4752 46.7089 66.0895 47.2175C65.1807 47.5514 64.5257 49.3262 65.5229 51.0073C66.4282 52.2603 67.3766 51.7342 67.7635 50.9631Z" fill="#F64747"/>
<path d="M27.9732 79.9223C29.3094 79.8207 29.7342 79.158 29.211 78.6532C28.1643 77.6487 25.247 78.0946 25.2789 78.9782C25.2801 79.0016 25.2817 79.0639 25.3307 79.1575C25.7558 79.789 27.1319 79.9852 27.9732 79.9223Z" fill="#F64747"/>
<path opacity="0.6" d="M75.1855 51.594C75.2647 50.18 75.0514 48.5754 74.8114 48.7794C74.5632 48.9906 74.3037 51.5067 74.6589 52.7643C74.7492 53.0418 74.8556 53.0842 74.9579 52.8853C75.0683 52.679 75.1509 52.1937 75.1855 51.594Z" fill="#F64747"/>
<path opacity="0.6" d="M61.9217 50.4543C63.0861 48.8386 61.743 46.0976 59.9802 46.491C58.6824 46.7791 58.0042 48.7315 59.1113 50.2608C60.2408 51.672 61.434 51.1289 61.9217 50.4543Z" fill="#F64747"/>
<path opacity="0.6" d="M34.4379 71.2221C35.8934 70.313 35.5616 68.4707 33.8847 68.1404C32.2385 67.817 30.4136 69.4179 31.3388 70.864C31.9475 71.6849 33.4235 71.8559 34.4379 71.2221Z" fill="#F64747"/>
<path opacity="0.6" d="M23.6056 81.3169C24.792 81.5204 25.3792 81.2768 25.1091 80.9241C24.6031 80.2569 21.1402 79.6884 21.1685 80.2761C21.1676 80.2917 21.177 80.3078 21.1813 80.3236C21.4219 80.6928 22.6583 81.1506 23.6056 81.3169Z" fill="#F64747"/>
<path opacity="0.6" d="M74.3452 49.1261C74.4601 47.6312 74.0507 45.966 73.6475 46.3006C73.2635 46.6181 73.0905 48.7579 73.5853 49.9795C73.918 50.6392 74.1294 50.1665 74.2052 49.9323C74.271 49.7364 74.3218 49.4411 74.3452 49.1261Z" fill="#F64747"/>
<path opacity="0.6" d="M45.7205 57.3334C47.1348 55.8825 46.0765 53.3732 44.081 53.4394C42.5064 53.4936 41.0159 55.4095 42.3286 57.1969C43.1862 58.2423 44.7722 58.3055 45.7205 57.3334Z" fill="#F64747"/>
<path opacity="0.6" d="M40.9764 61.0246C42.385 59.716 41.5995 57.4248 39.7053 57.3075C37.7854 57.1887 36.5264 59.4085 37.7006 60.8534C38.7849 62.0597 40.2695 61.6788 40.9764 61.0246Z" fill="#F64747"/>
<path opacity="0.6" d="M50.2064 53.5735C51.6611 52.0965 50.6292 49.4902 48.6066 49.5314C47.0021 49.5632 45.5197 51.521 46.8871 53.392C48.0478 54.6676 49.526 54.2629 50.2064 53.5735Z" fill="#F64747"/>
<path opacity="0.6" d="M26.6534 77.5379C27.9669 77.2456 28.1174 76.3467 27.2741 75.8622C25.9941 75.1243 23.8261 75.9326 24.0091 76.8041C24.0213 76.8619 24.0588 76.9315 24.0844 76.9822C24.4763 77.5599 25.7523 77.7374 26.6534 77.5379Z" fill="#F64747"/>
<path opacity="0.6" d="M36.2185 64.4244C37.6152 63.2785 36.969 61.1328 35.1874 60.9986C33.3723 60.86 32.0751 62.9323 33.1422 64.2569C34.098 65.308 35.5432 64.9818 36.2185 64.4244Z" fill="#F64747"/>
<path opacity="0.6" d="M64.8629 46.5449C65.7146 45.0459 64.4423 42.6047 63.0002 42.9674C61.9317 43.2375 61.4771 44.9566 62.4534 46.416C63.445 47.6559 64.4786 47.2255 64.8629 46.5449Z" fill="#F64747"/>
<path opacity="0.6" d="M69.8354 46.8865C70.38 45.362 69.3786 43.1698 68.3251 43.5835C67.5237 43.9002 67.2712 45.6206 68.1036 47.012C68.923 48.1797 69.588 47.5776 69.8354 46.8865Z" fill="#F64747"/>
<path opacity="0.6" d="M29.6088 73.3368C31.0135 72.6348 30.732 71.2233 29.4865 70.8323C27.9964 70.365 26.1926 71.7363 26.8064 72.8713C26.825 72.9087 26.8588 72.9522 26.8826 72.9898C27.5733 73.8259 28.8931 73.6948 29.6088 73.3368Z" fill="#F64747"/>
<path opacity="0.6" d="M54.6213 49.5132C55.8838 47.9965 54.6002 45.4379 52.6894 45.6542C51.3033 45.8101 50.1488 47.6131 51.4474 49.3738C52.3172 50.4329 53.802 50.498 54.6213 49.5132Z" fill="#F64747"/>
<path opacity="0.6" d="M72.9947 46.2495C73.1585 44.8975 72.5548 42.9591 71.9541 43.4353C71.4267 43.856 71.4472 45.7892 71.9894 46.7723C72.4987 47.6083 72.8319 47.0025 72.9349 46.5676C72.9636 46.4733 72.9839 46.3474 72.9947 46.2495Z" fill="#F64747"/>
<path opacity="0.6" d="M22.8303 79.7468C23.6027 79.7992 24.3457 79.6425 24.1497 79.1747C23.502 78.2218 20.6139 78.4309 20.5453 78.8548C20.5417 78.8728 20.5372 78.9062 20.5698 78.9703C20.867 79.3921 22.0762 79.6928 22.8303 79.7468Z" fill="#F64747"/>
<path opacity="0.6" d="M19.0112 81.4322C20.0181 81.9572 20.6994 82.1496 20.6798 81.9955C20.6427 81.6951 17.1127 79.9999 16.9008 80.0317C16.9005 80.0369 16.895 80.0418 16.8947 80.0469C16.9833 80.218 18.0243 80.9188 19.0112 81.4322Z" fill="#F64747"/>
<path opacity="0.6" d="M75.0776 45.9734C75.2467 47.2643 75.314 48.5674 75.491 49.8562C75.5021 49.9346 75.5063 49.9504 75.5155 49.9717C75.5252 49.9385 75.5267 49.9127 75.5069 49.5822C75.393 48.502 75.2407 47.0539 75.0776 45.9734Z" fill="#F64747"/>
<path opacity="0.6" d="M18.8526 80.7252C19.8613 81.1751 20.4905 81.2815 20.4462 81.1052C20.3498 80.7106 16.9709 79.4053 16.7764 79.4952C16.7761 79.5004 16.7731 79.508 16.7752 79.5159C16.8964 79.707 17.9652 80.329 18.8526 80.7252Z" fill="#F64747"/>
<path opacity="0.6" d="M75.0863 46.5783C74.9719 45.5966 74.7265 44.3688 74.6074 44.1855C74.5995 44.1877 74.5892 44.1871 74.584 44.1868C74.5161 44.4188 74.73 46.9104 74.9966 47.8153C75.039 47.9345 75.0527 47.9664 75.0932 47.9843C75.2005 47.923 75.1575 47.1867 75.0863 46.5783Z" fill="#F64747"/>
<path opacity="0.6" d="M31.5672 67.4537C32.8278 66.5074 32.435 64.7342 30.9166 64.4883C29.2416 64.2151 27.8353 66.0658 28.7643 67.3124C28.7691 67.3179 28.7764 67.3261 28.7813 67.3316C29.6053 68.2402 30.9058 67.9497 31.5672 67.4537Z" fill="#F64747"/>
<path opacity="0.6" d="M58.4181 45.6511C59.4687 44.2544 58.2194 41.9104 56.5117 42.0684C55.156 42.1923 54.435 43.9426 55.585 45.4925C56.4234 46.5109 57.7185 46.5831 58.4181 45.6511Z" fill="#F64747"/>
<path opacity="0.6" d="M18.6222 79.9058C19.5454 80.2211 20.0951 80.2218 20.008 80.0248C19.8544 79.6762 16.7464 78.62 16.5466 78.847C16.5463 78.8522 16.5484 78.8601 16.5505 78.868C16.7016 79.0816 17.7879 79.6242 18.6222 79.9058Z" fill="#F64747"/>
<path opacity="0.6" d="M74.3733 44.5114C74.2587 43.3974 73.8415 41.8666 73.6727 42.1395C73.4985 42.4173 73.6733 44.4631 74.0713 45.4275C74.1841 45.6752 74.2821 45.7301 74.3479 45.5784C74.4167 45.419 74.427 45.0176 74.3733 44.5114Z" fill="#F64747"/>
<path opacity="0.6" d="M67.1947 42.8157C67.7755 41.3814 66.4954 39.2561 65.3703 39.7875C64.6345 40.134 64.413 41.5423 65.2444 42.773C65.2444 42.773 65.2444 42.773 65.2468 42.7757C65.2468 42.7757 65.2468 42.7757 65.2492 42.7784C65.2492 42.7784 65.2492 42.7784 65.2517 42.7812C65.2517 42.7812 65.2517 42.7812 65.2541 42.7839C65.2541 42.7839 65.2541 42.7839 65.2566 42.7866C66.0548 43.7819 66.8862 43.5758 67.1947 42.8157Z" fill="#F64747"/>
<path opacity="0.6" d="M24.9469 74.9837C25.4405 74.7893 26.1506 74.2598 25.6831 73.5092C24.7445 72.3839 22.6343 73.224 22.4893 74.2063C22.4555 74.4325 22.5481 74.5805 22.6072 74.6799C23.1469 75.3024 24.3232 75.2304 24.9469 74.9837Z" fill="#F64747"/>
<path opacity="0.6" d="M21.8321 77.9879C22.5147 77.934 23.135 77.656 22.8882 77.1698C22.1789 76.2522 19.7723 76.6992 19.6638 77.2764C19.652 77.3458 19.6773 77.4017 19.7004 77.4497C20.0387 77.879 21.1782 78.0408 21.8321 77.9879Z" fill="#F64747"/>
<path opacity="0.6" d="M71.1383 42.9659C71.3838 41.5901 70.4853 39.7721 69.777 40.2265C69.3029 40.531 69.1411 41.9402 69.8961 43.1898C70.5218 44.074 71.0007 43.7308 71.1383 42.9659Z" fill="#F64747"/>
<path opacity="0.6" d="M41.8116 52.6318C43.1137 51.2367 42.0661 48.9926 40.1615 49.1003C38.5224 49.1923 37.434 51.108 38.6655 52.6393C39.8361 53.8324 41.2148 53.2664 41.8116 52.6318Z" fill="#F64747"/>
<path opacity="0.6" d="M37.2607 56.5333C38.5294 55.2219 37.7149 53.1624 35.9136 53.1438C34.1409 53.1243 33.1013 55.2711 34.2502 56.5719C35.3453 57.6804 36.6787 57.1351 37.2607 56.5333Z" fill="#F64747"/>
<path opacity="0.6" d="M46.236 48.7303C46.7162 48.2291 47.2662 47.0576 46.2966 45.8423C44.8195 44.3435 42.6456 45.3874 42.5619 47.1487C42.5226 47.9633 42.9339 48.4746 43.108 48.6921C44.292 49.8783 45.6285 49.3695 46.236 48.7303Z" fill="#F64747"/>
<path opacity="0.6" d="M27.1798 70.0969C28.2718 69.3302 28.0849 67.8983 26.8508 67.6246C25.4782 67.3223 23.9968 68.8134 24.6176 69.8736C24.6176 69.8736 24.6721 69.9623 24.7135 70.0088C25.4063 70.7646 26.5958 70.5092 27.1798 70.0969Z" fill="#F64747"/>
<path opacity="0.6" d="M61.58 42.1437C62.4563 40.8485 61.2116 38.6474 59.728 38.8754C58.608 39.0493 58.1107 40.6543 59.1288 41.9294C60.1464 43.0774 61.1744 42.7453 61.58 42.1437Z" fill="#F64747"/>
<path opacity="0.6" d="M32.8373 60.2375C34.0119 59.0295 33.2565 57.1134 31.614 57.13C29.9949 57.1453 29.0187 59.0935 30.0048 60.3383C30.707 61.1102 32.0296 61.0647 32.8373 60.2375Z" fill="#F64747"/>
<path opacity="0.6" d="M50.6308 44.7523C51.8515 43.4199 50.6287 41.1112 48.7832 41.2742C47.3104 41.4043 46.4547 43.152 47.6046 44.6137L47.6071 44.6164L47.6095 44.6191L47.612 44.6219L47.6144 44.6246L47.6168 44.6273L47.6193 44.6301L47.6217 44.6328L47.6241 44.6355C48.7917 45.8363 50.0884 45.3433 50.6308 44.7523Z" fill="#F64747"/>
<path opacity="0.6" d="M73.2339 42.1089C73.1653 41.0079 72.6088 39.4198 72.3194 39.7609C72.0716 40.0552 72.1882 41.7165 72.6999 42.6433C73.0453 43.2183 73.1712 42.8806 73.2069 42.7115C73.2408 42.5735 73.2488 42.3457 73.2339 42.1089Z" fill="#F64747"/>
<path opacity="0.6" d="M18.1222 78.9194C19.0769 79.1379 19.4663 78.9971 19.325 78.7944C18.9343 78.2402 16.2214 77.8863 16.2286 78.1201C16.2308 78.128 16.2353 78.1386 16.2375 78.1465C16.4214 78.375 17.4185 78.7568 18.1222 78.9194Z" fill="#F64747"/>
<path opacity="0.6" d="M14.0397 78.4323C14.7743 79.0479 15.367 79.4711 15.517 79.5239C15.5173 79.4746 15.5172 79.4746 13.9032 78.191C13.3305 77.7352 13.3305 77.7352 12.2952 76.8481C12.2852 76.8423 12.2852 76.8423 12.2852 76.8423C12.2903 76.8426 13.1197 77.6581 14.0397 78.4323Z" fill="#F64747"/>
<path opacity="0.6" d="M14.0634 78.2492C14.8065 78.8082 15.3822 79.1683 15.5105 79.1913C15.4693 79.0514 12.3182 76.8128 12.2856 76.7927C12.293 76.8009 13.1439 77.5581 14.0634 78.2492Z" fill="#F64747"/>
<path opacity="0.6" d="M13.9552 78.5465C14.6568 79.1965 15.252 79.6666 15.4184 79.7488C15.3598 79.595 12.3174 76.9114 12.2876 76.8889C12.2925 76.8944 13.0665 77.7249 13.9552 78.5465Z" fill="#F64747"/>
<path opacity="0.6" d="M13.9799 77.985C14.7415 78.4933 15.2699 78.7728 15.3964 78.7827C15.3909 78.7435 15.3845 78.7198 14.9972 78.4666C14.1051 77.8834 13.1927 77.3379 12.303 76.7574C12.2954 76.7544 12.2954 76.7544 12.2954 76.7544C12.3398 76.7933 13.1435 77.4258 13.9799 77.985Z" fill="#F64747"/>
<path opacity="0.6" d="M73.515 39.8923C73.8627 40.9212 74.0918 41.9822 74.4133 43.0147C74.4377 43.0862 74.4423 43.0968 74.4563 43.1235C74.4599 43.1056 74.4669 43.0749 74.3591 42.6512C74.1166 41.8228 73.7916 40.7148 73.515 39.8923Z" fill="#F64747"/>
<path opacity="0.6" d="M54.5968 41.0526C55.6175 39.815 54.4138 37.7148 52.7595 37.8448C51.5534 37.9384 50.6187 39.3937 51.827 40.8769C52.6239 41.7606 53.9442 41.8447 54.5968 41.0526Z" fill="#F64747"/>
<path opacity="0.6" d="M28.5419 63.7547C29.6391 62.6745 29.0189 60.9322 27.5539 60.972C26.1903 61.0099 25.0764 62.6934 26.0195 63.8734C26.8389 64.6832 28.0109 64.2816 28.5419 63.7547Z" fill="#F64747"/>
<path opacity="0.6" d="M68.7692 39.442C69.1423 38.2369 68.0921 36.4413 67.249 36.8489C66.6382 37.143 66.6842 38.4993 67.3355 39.3902C68.012 40.2488 68.5807 40.056 68.7692 39.442Z" fill="#F64747"/>
<path opacity="0.6" d="M20.6009 76.0989C21.1647 75.9448 21.6381 75.5624 21.3466 75.0866C20.6513 74.2839 18.7175 74.9424 18.6151 75.5925C18.5982 75.7057 18.6363 75.7649 18.6789 75.8348C19.0418 76.2422 20.0449 76.2509 20.6009 76.0989Z" fill="#F64747"/>
<path opacity="0.6" d="M22.999 72.3347C23.9708 71.7192 23.8614 70.6055 22.8144 70.4153C21.58 70.191 20.4006 71.4817 20.8471 72.2362C20.8611 72.2629 20.8879 72.293 20.9046 72.3173C21.4519 72.8987 22.4582 72.6743 22.999 72.3347Z" fill="#F64747"/>
<path opacity="0.6" d="M64.1796 38.8083C64.8497 37.623 63.5698 35.674 62.3539 36.0265C61.5627 36.2556 61.3222 37.4995 62.1647 38.627C63.0042 39.5806 63.8248 39.4283 64.1796 38.8083Z" fill="#F64747"/>
<path opacity="0.6" d="M17.4621 77.8208C18.0608 77.871 18.6166 77.7683 18.4755 77.4723C18.0003 76.9002 15.826 77.0079 15.7673 77.2612C15.7637 77.2792 15.7728 77.3005 15.7795 77.319C15.9618 77.5292 16.8506 77.7673 17.4621 77.8208Z" fill="#F64747"/>
<path opacity="0.6" d="M13.8147 78.5982C14.4861 79.2749 15.0318 79.75 15.2049 79.8507C15.2201 79.8568 15.2201 79.8568 15.2201 79.8568C15.1552 79.7234 12.3338 76.9851 12.3067 76.9602C12.3457 77.004 13.0331 77.8087 13.8147 78.5982Z" fill="#F64747"/>
<path opacity="0.6" d="M71.6579 39.3598C71.6608 38.9502 71.5131 38.0963 71.0962 37.4135C70.6412 36.7596 70.4321 37.1469 70.3792 37.4783C70.314 37.8895 70.3964 38.7967 70.8864 39.6057C71.3441 40.2571 71.5873 39.9522 71.6396 39.587C71.6538 39.5204 71.6564 39.4297 71.6579 39.3598Z" fill="#F64747"/>
<path opacity="0.6" d="M73.5655 40.1912C73.329 39.3917 72.9439 38.3814 72.8441 38.2252C72.8386 38.2301 72.8356 38.2377 72.8301 38.2426C72.8555 38.4307 73.3513 40.3525 73.6618 41.081C73.7103 41.185 73.7222 41.2038 73.7544 41.229C73.8386 41.1639 73.6497 40.4839 73.5655 40.1912Z" fill="#F64747"/>
<path opacity="0.6" d="M13.9023 77.7161C14.5299 78.074 15.0607 78.3121 15.1611 78.2816C15.0864 78.0932 12.3341 76.7152 12.3062 76.7058C12.3807 76.762 13.1441 77.2833 13.9023 77.7161Z" fill="#F64747"/>
<path opacity="0.6" d="M24.5528 66.9059C25.524 65.9869 25.1385 64.5798 23.908 64.558C22.5117 64.5317 21.653 66.287 22.3763 67.099C23.0462 67.7576 24.0507 67.3826 24.5528 66.9059Z" fill="#F64747"/>
<path opacity="0.6" d="M57.9559 37.7769C58.878 36.6762 57.6677 34.7338 56.1573 34.8877C54.9442 35.0121 54.6112 36.4658 55.556 37.5266C56.4613 38.4659 57.4685 38.3582 57.9559 37.7769Z" fill="#F64747"/>
<path opacity="0.6" d="M13.6702 78.639C14.2528 79.2821 14.7273 79.7323 14.8971 79.8458C14.9147 79.8546 14.9147 79.8546 14.9147 79.8546C14.904 79.8151 14.904 79.8151 13.6162 78.4518C13.4451 78.2707 13.4451 78.2707 12.3094 77.0121C12.3021 77.0039 12.3021 77.0039 12.3021 77.0039C12.328 77.0495 12.9412 77.837 13.6702 78.639Z" fill="#F64747"/>
<path opacity="0.6" d="M13.7503 77.386C14.3292 77.6451 14.7903 77.7884 14.8535 77.7273C14.8538 77.7221 14.8516 77.7142 14.8492 77.7115C14.6675 77.4909 12.3129 76.6364 12.2949 76.6328C12.3698 76.6838 13.0957 77.0914 13.7503 77.386Z" fill="#F64747"/>
<path opacity="0.6" d="M72.6442 38.232C72.4443 37.5177 71.9758 36.3806 71.8484 36.3862C71.7594 36.49 72.107 38.0142 72.5423 38.8277C72.5968 38.9165 72.7196 39.1259 72.7632 38.9987C72.7859 38.9196 72.7687 38.6801 72.6442 38.232Z" fill="#F64747"/>
<path opacity="0.6" d="M66.1278 35.8814C66.5756 34.9088 65.4972 33.2853 64.5866 33.562C63.9926 33.7429 63.8635 34.765 64.5644 35.695C65.1166 36.3701 65.8611 36.4572 66.1278 35.8814Z" fill="#F64747"/>
<path opacity="0.6" d="M19.147 74.1531C19.4922 73.9682 19.9871 73.5274 19.6524 73.0361C18.9612 72.2985 17.4157 73.2387 17.4148 73.9259C17.4159 74.0427 17.4539 74.1019 17.4969 74.1667C17.8685 74.5564 18.7003 74.3892 19.147 74.1531Z" fill="#F64747"/>
<path opacity="0.6" d="M16.708 76.6443C17.442 76.5545 17.6551 76.2323 17.3462 76.0121C16.7809 75.6086 15.2093 76.0572 15.2099 76.3606C15.2115 76.3789 15.2231 76.4029 15.2298 76.4214C15.4398 76.6462 16.2328 76.6998 16.708 76.6443Z" fill="#F64747"/>
<path opacity="0.6" d="M69.6598 36.3294C69.7695 35.3736 68.8896 33.9508 68.4081 34.2964C68.0644 34.5437 68.1396 35.575 68.695 36.3306C69.2741 37.0799 69.6076 36.7828 69.6598 36.3294Z" fill="#F64747"/>
<path opacity="0.6" d="M20.8484 69.7933C21.1552 69.5102 21.613 68.8132 21.1329 68.1915C20.2639 67.3426 18.9038 68.4854 18.8826 69.48C18.8783 69.778 18.9892 69.9244 19.0641 70.0195C19.5556 70.4888 20.4158 70.1884 20.8484 69.7933Z" fill="#F64747"/>
<path opacity="0.6" d="M14.3067 79.5576C14.4366 79.687 14.4811 79.7259 14.5237 79.7517C14.5327 79.6848 12.298 77.0712 12.2761 77.0466C12.2925 77.0761 12.302 77.0922 12.4076 77.2383C13.0141 78.0514 13.6461 78.827 14.3067 79.5576Z" fill="#F64747"/>
<path opacity="0.6" d="M60.8679 34.8594C61.0974 34.5666 61.3026 33.8446 60.5999 32.9897C59.5313 31.8724 58.3824 32.4102 58.3517 33.3446C58.3277 33.9397 58.7153 34.4134 58.8413 34.5659C59.6951 35.4529 60.5432 35.2711 60.8679 34.8594Z" fill="#F64747"/>
<path opacity="0.6" d="M71.3922 36.0563C71.2206 35.3021 70.6447 34.1381 70.495 34.3499C70.3848 34.5069 70.5872 35.5819 71.0662 36.3564C71.2806 36.6852 71.4032 36.6741 71.4355 36.5178C71.4498 36.4512 71.4524 36.3165 71.3922 36.0563Z" fill="#F64747"/>
<path opacity="0.6" d="M13.5228 77.0097C14.1755 77.203 14.4844 77.1975 14.4503 77.1152C14.3585 76.9076 12.31 76.5454 12.2894 76.5442C12.2866 76.5466 12.2866 76.5466 12.2866 76.5466C12.3237 76.5773 12.9823 76.8488 13.5228 77.0097Z" fill="#F64747"/>
<path opacity="0.6" d="M15.7917 75.4451C16.1686 75.2957 16.4936 75.0111 16.3252 74.7394C15.8452 74.2501 14.5224 75.0605 14.5584 75.4257C14.5621 75.4518 14.5709 75.4783 14.588 75.4974C14.7794 75.6848 15.42 75.5948 15.7917 75.4451Z" fill="#F64747"/>
<path opacity="0.6" d="M67.4259 33.3373C67.6511 32.5386 66.7017 31.2415 66.1255 31.5635C65.8256 31.7277 65.7244 32.4013 66.3224 33.1827C66.7708 33.7247 67.2981 33.7993 67.4259 33.3373Z" fill="#F64747"/>
<path opacity="0.6" d="M17.541 72.2783C18.2553 71.6765 18.0818 70.9092 17.4347 70.8873C16.5988 70.8572 15.815 72.08 16.2043 72.5226C16.5632 72.8649 17.2166 72.5526 17.541 72.2783Z" fill="#F64747"/>
<path opacity="0.6" d="M70.7842 33.8869C71.0301 34.3446 71.2465 34.8187 71.4978 35.2715C71.5401 35.3466 71.5495 35.3627 71.5666 35.3818C71.5699 35.369 71.5702 35.3639 71.5245 35.2575C71.2994 34.8451 71.0124 34.2917 70.7842 33.8869Z" fill="#F64747"/>
<path opacity="0.6" d="M63.2149 32.3468C63.7378 31.6016 62.7162 30.207 61.7391 30.3321C61.1067 30.4148 60.9133 31.249 61.5995 32.0745C62.3184 32.8266 62.9775 32.6858 63.2149 32.3468Z" fill="#F64747"/>
<path opacity="0.6" d="M13.2504 76.6102C13.8075 76.6632 14.0251 76.5772 13.9676 76.4961C13.8166 76.2825 12.3052 76.4078 12.2395 76.4221L12.2368 76.4246C12.2791 76.4555 12.8454 76.5739 13.2504 76.6102Z" fill="#F64747"/>
<path opacity="0.6" d="M69.8053 33.6798C69.7213 33.0241 69.0558 31.886 68.8466 32.1851C68.7196 32.3619 68.8292 33.0684 69.2866 33.725C69.5463 34.0772 69.7756 34.1475 69.8116 33.8851C69.8142 33.8386 69.8163 33.7583 69.8053 33.6798Z" fill="#F64747"/>
<path opacity="0.6" d="M70.3274 33.1214C70.2381 32.9606 70.1532 32.8157 70.1011 32.7297L69.6163 31.9651C69.6114 31.9597 69.6065 31.9542 69.6044 31.9463C69.6108 31.97 70.1193 32.9978 70.4047 33.4448C70.4668 33.5366 70.5076 33.5934 70.5356 33.6028C70.5434 33.5566 70.4748 33.397 70.3274 33.1214Z" fill="#F64747"/>
<path opacity="0.6" d="M14.8199 74.2657C15.2911 73.8755 15.2961 73.4297 14.9565 73.3841C14.4212 73.3117 13.6666 74.2535 13.8798 74.5589C14.0292 74.7102 14.4988 74.5273 14.8199 74.2657Z" fill="#F64747"/>
<path opacity="0.6" d="M64.941 30.3931C65.3293 29.8658 64.4366 28.7095 63.7322 28.8269C63.2714 28.904 63.2906 29.5587 63.7728 30.1C64.2814 30.6325 64.7524 30.6494 64.941 30.3931Z" fill="#F64747"/>
<path opacity="0.6" d="M12.9412 76.2083C13.4006 76.1129 13.5312 75.9623 13.4235 75.8964C13.2004 75.7617 12.244 76.2017 12.1878 76.2762L12.1875 76.2814C12.2277 76.3045 12.6789 76.2605 12.9412 76.2083Z" fill="#F64747"/>
<path opacity="0.6" d="M68.0261 31.3028C68.0348 31.1529 67.9617 30.7571 67.6164 30.3144C67.2158 29.8426 66.9873 29.9824 66.9791 30.2594C66.9761 30.3552 66.995 30.7012 67.3592 31.1761C67.6815 31.5656 68.0073 31.6285 68.0261 31.3028Z" fill="#F64747"/>
<path opacity="0.6" d="M69.1987 31.4352C69.0333 31.1118 68.6009 30.4722 68.5352 30.4425C68.5018 30.482 68.7873 31.1054 69.0848 31.5219C69.2194 31.7061 69.2875 31.7385 69.2902 31.692C69.2959 31.682 69.2944 31.6196 69.1987 31.4352Z" fill="#F64747"/>
<path opacity="0.6" d="M66.078 28.9388C66.2385 28.541 65.4498 27.694 65.094 27.8835C64.9119 27.9819 65.0063 28.3686 65.2936 28.6912C65.6577 29.0779 65.9995 29.1314 66.078 28.9388Z" fill="#F64747"/>
<path opacity="0.6" d="M12.6008 75.8202C12.9715 75.5538 12.9677 75.3954 12.8834 75.3723C12.6587 75.3127 12.0759 76.0181 12.0975 76.0919C12.0975 76.0919 12.0976 76.0919 12.1 76.0947C12.1377 76.115 12.4574 75.9234 12.6008 75.8202Z" fill="#F64747"/>
<path opacity="0.6" d="M67.9393 29.7575C67.8348 29.5025 67.3531 28.8627 67.3161 28.9643C67.2921 29.0199 67.3995 29.3166 67.6725 29.6617C67.8251 29.8495 67.9574 29.9375 67.9671 29.8603C67.968 29.8448 67.967 29.8162 67.9393 29.7575Z" fill="#F64747"/>
<path opacity="0.6" d="M66.5544 28.098C66.5707 27.9511 66.0286 27.37 65.9466 27.4431C65.9056 27.4796 65.9933 27.6662 66.1687 27.8631C66.4076 28.1258 66.5478 28.1676 66.5544 28.098Z" fill="#F64747"/>
<path opacity="0.6" d="M65.0958 26.5095C65.1423 26.5122 65.1173 26.4511 65.0297 26.3527C65.0175 26.339 65.0004 26.3198 64.9883 26.3062C64.753 26.0695 64.5181 25.9159 64.5063 25.9853C64.5027 26.0032 64.5176 26.0585 64.6421 26.1928C64.843 26.3963 65.0441 26.5065 65.0958 26.5095Z" fill="#F64747"/>
<path opacity="0.6" d="M19.9158 20.9968L19.9453 20.9803C20.1547 20.8576 20.2322 20.818 20.3036 20.7936C20.1455 21.106 16.4002 23.6721 15.6159 24.0962C15.5867 24.1075 15.5493 24.126 15.5177 24.1346C15.5614 24.0515 15.5644 24.0439 15.8391 23.8238C17.0362 22.9439 18.6493 21.7768 19.9158 20.9968Z" fill="#F64747"/>
<path opacity="0.6" d="M4.05185 41.109C4.30251 40.317 4.91329 38.7237 5.43409 38.3726C6.1293 38.1897 5.02555 41.8058 4.21841 43.1621C4.01746 43.498 3.91204 43.5723 3.84185 43.6201C3.40626 43.7531 3.70602 42.2015 4.05185 41.109Z" fill="#F64747"/>
<path opacity="0.6" d="M9.56643 41.0797C9.90591 40.3213 10.824 38.974 11.8518 39.3187C13.3779 40.1953 11.8815 44.0091 10.2999 44.4519C10.0363 44.5249 9.89886 44.4806 9.73613 44.4245C8.82007 43.897 9.08436 42.1514 9.56643 41.0797Z" fill="#F64747"/>
<path opacity="0.6" d="M23.7811 22.6283C25.6578 21.3883 27.9142 21.3839 27.7385 22.6289C27.532 24.0925 24.2756 25.7377 22.8289 25.1043C21.7963 24.5286 22.786 23.2891 23.7811 22.6283Z" fill="#F64747"/>
<path opacity="0.6" d="M15.051 37.1358C16.2707 35.3728 18.2761 35.2242 18.6271 36.8679C19.0255 38.7244 16.7697 41.4985 15.0229 40.6273C13.9196 39.84 14.3773 38.1134 15.051 37.1358Z" fill="#F64747"/>
<path opacity="0.6" d="M22.4539 27.8703C23.1414 27.2824 24.649 26.4593 25.9291 27.1039C27.5993 28.2689 25.6972 30.8456 23.4315 31.2358C22.5933 31.3793 22.1321 31.1478 21.9128 31.0391C20.6415 30.1513 21.5674 28.6256 22.4539 27.8703Z" fill="#F64747"/>
<path opacity="0.6" d="M18.4015 32.5112C18.9775 31.8327 20.3107 30.7954 21.6454 31.2139C23.4357 32.0733 21.9857 34.8696 19.8543 35.6095C19.0657 35.8824 18.5849 35.7323 18.3565 35.6623C16.9937 35.0072 17.6585 33.3834 18.4015 32.5112Z" fill="#F64747"/>
<path opacity="0.6" d="M15.1898 30.9965C15.7333 30.27 16.9883 29.1057 18.2363 29.3536C19.9084 29.9753 18.5337 32.86 16.5326 33.8305C15.7923 34.1886 15.3428 34.0999 15.1292 34.0591C13.8563 33.5849 14.4886 31.9308 15.1898 30.9965Z" fill="#F64747"/>
<path opacity="0.6" d="M19.3596 26.356C20.0423 25.7301 21.5007 24.7782 22.6274 25.1833C24.0705 26.0043 22.1028 28.5943 19.9814 29.2601C19.1967 29.5056 18.7907 29.3603 18.5975 29.2925C17.4992 28.6666 18.4795 27.1607 19.3596 26.356Z" fill="#F64747"/>
<path opacity="0.6" d="M16.8248 25.6419C17.5236 25.0206 18.9456 24.0132 19.8348 24.1813C20.918 24.6477 18.7594 27.0907 16.8229 27.9596C16.1068 28.2803 15.7863 28.2202 15.6336 28.1928C14.8093 27.837 15.9243 26.441 16.8248 25.6419Z" fill="#F64747"/>
<path opacity="0.6" d="M21.4401 21.7732C22.2036 21.2968 23.7064 20.5569 24.4883 20.8075C25.3891 21.3464 22.9273 23.2861 20.9802 23.8442C20.2603 24.05 19.9784 23.9602 19.8437 23.9184C19.1584 23.5076 20.4566 22.3857 21.4401 21.7732Z" fill="#F64747"/>
<path opacity="0.6" d="M19.1768 21.8493C19.9207 21.343 21.3486 20.4809 21.9743 20.4647C22.6491 20.6162 20.1759 22.5234 18.3998 23.3679C17.7432 23.6798 17.5175 23.686 17.4095 23.6897C16.8962 23.5738 18.2187 22.5007 19.1768 21.8493Z" fill="#F64747"/>
<path opacity="0.6" d="M14.6028 25.6934C15.2827 25.0627 16.6185 23.9788 17.3057 23.9207C18.0945 24.053 15.8973 26.4078 14.1715 27.4933C13.5334 27.8943 13.2856 27.9156 13.1673 27.9267C12.5672 27.8254 13.7271 26.5049 14.6028 25.6934Z" fill="#F64747"/>
<path opacity="0.6" d="M13.1359 26.3727C13.779 25.7564 14.9866 24.6347 15.4282 24.3447C15.8634 24.1262 13.6712 26.2999 12.2243 27.5681C11.6895 28.0368 11.5301 28.1416 11.4537 28.1922C11.1229 28.358 12.308 27.166 13.1359 26.3727Z" fill="#F64747"/>
<path opacity="0.6" d="M9.33615 30.7091C9.8582 29.9874 10.865 28.6816 11.3221 28.3707C11.8225 28.1576 10.0968 30.7186 8.83437 32.1782C8.36765 32.7175 8.20278 32.8299 8.12393 32.8843C7.74335 33.0459 8.66379 31.638 9.33615 30.7091Z" fill="#F64747"/>
<path opacity="0.6" d="M6.30353 35.6275C6.6785 34.8537 7.43639 33.4527 7.89428 33.1163C8.4469 32.8832 7.27817 35.6275 6.25616 37.1953C5.87822 37.7746 5.71317 37.8962 5.63447 37.955C5.21398 38.1318 5.8204 36.6235 6.30353 35.6275Z" fill="#F64747"/>
<path opacity="0.6" d="M11.8831 36.1322C12.3245 35.3546 13.3987 34.0565 14.6176 34.1276C16.2819 34.5035 15.2779 37.4848 13.4701 38.6962C12.8011 39.1435 12.3621 39.1184 12.1537 39.1078C10.8867 38.8208 11.3134 37.1324 11.8831 36.1322Z" fill="#F64747"/>
<path opacity="0.6" d="M9.45873 35.3321C9.88687 34.527 10.8836 33.143 11.8967 33.067C13.2587 33.2331 12.1921 36.2379 10.5891 37.6252C9.99595 38.1376 9.63105 38.1655 9.4577 38.18C8.42087 38.0527 8.90632 36.3679 9.45873 35.3321Z" fill="#F64747"/>
<path opacity="0.6" d="M7.55301 35.1939C7.97148 34.3854 8.88345 32.9591 9.64138 32.748C10.6263 32.7138 9.45689 35.6583 8.09666 37.1715C7.5935 37.7306 7.32045 37.8072 7.19056 37.8447C6.44092 37.8699 7.01345 36.2345 7.55301 35.1939Z" fill="#F64747"/>
<path opacity="0.6" d="M7.16271 40.8774C7.42225 40.0389 8.10497 38.5475 9.01212 38.2824C10.2746 38.178 9.78823 41.2061 8.55581 42.8164C8.09968 43.4114 7.77304 43.5074 7.61805 43.5542C6.65681 43.6329 6.82739 41.9565 7.16271 40.8774Z" fill="#F64747"/>
<path opacity="0.6" d="M5.41044 40.7012C5.66677 39.8614 6.27914 38.3483 6.94403 38.0113C7.84647 37.8001 7.23983 40.7941 6.22816 42.4707C5.85383 43.0902 5.61437 43.2121 5.50064 43.2712C4.81363 43.4312 5.07963 41.7823 5.41044 40.7012Z" fill="#F64747"/>
<path opacity="0.6" d="M12.6569 30.1476C13.2121 29.3982 14.4286 28.1481 15.4581 28.2201C16.8005 28.5877 15.2619 31.4629 13.4359 32.6272C12.7604 33.0572 12.3895 33.0317 12.2131 33.0209C11.1913 32.7403 11.9409 31.1116 12.6569 30.1476Z" fill="#F64747"/>
<path opacity="0.6" d="M10.6306 30.1293C11.1891 29.4024 12.3422 28.148 13.1146 28.0617C14.0726 28.1851 12.3812 30.8884 10.7785 32.1567C10.1858 32.6252 9.90739 32.6568 9.77476 32.6729C9.04578 32.5782 9.91086 31.0645 10.6306 30.1293Z" fill="#F64747"/>
<path opacity="0.6" d="M4.07309 45.9824C4.38429 44.3225 5.10828 43.1481 5.50438 43.6533C6.05026 44.3488 5.32549 48.6766 4.36818 48.8624C3.86761 48.7738 3.82599 47.2959 4.07309 45.9824Z" fill="#F64747"/>
<path opacity="0.6" d="M23.9968 18.9945C24.7642 18.6395 26.2702 18.0237 27.0433 17.9725C27.1443 17.9757 27.3535 17.9904 27.1175 18.2153C26.475 18.8317 23.4431 20.1839 22.3102 20.2662C22.2041 20.2627 21.9846 20.2474 22.2397 20.0054C22.4399 19.8173 23.0057 19.4506 23.9968 18.9945Z" fill="#F64747"/>
<path opacity="0.6" d="M5.73114 46.0164C6.11532 44.3504 7.02162 43.3421 7.52978 44.0172C8.33846 45.1013 7.18085 49.29 6.12284 49.1095C6.12041 49.1068 6.11524 49.1065 6.11524 49.1065C5.42899 48.8205 5.47955 47.0937 5.73114 46.0164Z" fill="#F64747"/>
<path opacity="0.6" d="M3.27911 42.3998C3.53669 41.5329 4.02229 40.0413 4.32184 39.4803C4.33884 39.4554 4.36131 39.4256 4.38074 39.4033C4.55002 39.6154 3.10962 44.0756 2.87591 44.4848C2.86164 44.5073 2.84189 44.5347 2.82275 44.5518C2.69945 44.3968 3.18214 42.7313 3.27911 42.3998Z" fill="#F64747"/>
<path opacity="0.6" d="M26.0978 18.9809C26.806 18.664 28.3911 18.1151 29.3244 18.2987C30.1527 18.5955 28.9303 19.4196 27.9657 19.8669C27.1928 20.2268 25.6305 20.7848 24.6819 20.5951C23.8716 20.3019 24.9673 19.5172 25.8453 19.0882C25.9273 19.0592 26.0234 19.0129 26.0978 18.9809Z" fill="#F64747"/>
<path opacity="0.6" d="M2.86828 46.5897C3.11869 44.9496 3.66979 43.5811 3.94288 43.9263C4.30792 44.3856 3.71716 48.6382 3.05055 49.1339C2.70096 49.2148 2.67283 47.8621 2.86828 46.5897Z" fill="#F64747"/>
<path opacity="0.6" d="M12.3157 42.3722C13.2061 40.6524 14.8638 40.2841 15.3788 41.6935C16.1014 43.6828 13.9882 46.4133 12.6437 45.8947C12.5981 45.8765 12.5403 45.8446 12.4974 45.824C11.5115 45.1135 11.7986 43.377 12.3157 42.3722Z" fill="#F64747"/>
<path opacity="0.6" d="M25.3873 18.3099C24.9299 18.5065 21.774 20.0278 20.5377 20.6436C20.5083 20.66 20.4764 20.6738 20.4469 20.6902C21.9047 19.9213 23.8792 18.9618 25.3873 18.3099Z" fill="#F64747"/>
<path opacity="0.6" d="M26.9911 24.0791C28.8635 22.8674 31.3074 23.2991 31.0754 24.8002C30.8431 26.3064 28.028 27.7204 26.273 26.8124C25.0519 25.9535 26.0644 24.6791 26.9911 24.0791Z" fill="#F64747"/>
<path opacity="0.6" d="M7.85633 46.5308C8.377 44.8363 9.5156 44.1164 10.0314 45.1524C10.7148 46.5197 9.55587 50.283 8.22943 49.8562C7.59607 49.5525 7.41811 47.9655 7.85633 46.5308Z" fill="#F64747"/>
<path opacity="0.6" d="M28.637 19.7449C30.5876 18.8411 32.8451 19.0416 32.4114 20.085C31.9385 21.222 28.8782 22.2121 27.5936 21.6451C26.6283 21.1173 27.6216 20.2178 28.637 19.7449Z" fill="#F64747"/>
<path opacity="0.6" d="M22.0568 34.4709C23.6794 32.7805 26.179 33.3243 26.1701 35.3622C26.1628 37.4623 23.4911 39.0869 21.9022 37.9525C20.5994 36.8917 21.3087 35.2549 22.0568 34.4709Z" fill="#F64747"/>
<path opacity="0.6" d="M18.5011 39.2316C19.8406 37.5041 22.0386 37.792 22.292 39.7335C22.5509 41.7142 20.3028 43.9078 18.5181 42.7958C17.2831 41.7727 17.8537 40.0682 18.5011 39.2316Z" fill="#F64747"/>
<path opacity="0.6" d="M26.1625 30.1128C26.8372 29.5657 28.338 28.8615 29.6816 29.7094C29.6816 29.7094 29.6816 29.7094 29.684 29.7121C29.684 29.7121 29.684 29.7121 29.6864 29.7149C31.4509 31.1783 29.6522 33.717 27.3621 33.8543C26.4956 33.9053 26.0079 33.5944 25.7727 33.446C24.7004 32.6605 24.8701 31.161 26.1625 30.1128Z" fill="#F64747"/>
<path opacity="0.6" d="M2.18051 47.6731C2.34648 46.4171 2.66272 44.9391 2.85326 44.8282C3.09511 44.9511 2.53896 49.1435 2.18576 49.8699C2.17179 49.8873 2.15206 49.9146 2.12561 49.9235C1.98048 49.8321 2.04201 48.7231 2.18051 47.6731Z" fill="#F64747"/>
<path opacity="0.6" d="M3.58655 51.7507C3.64404 50.2629 4.071 49.1128 4.4523 49.4253C5.09836 49.958 4.863 54.4774 4.18869 54.5681C3.77082 54.4843 3.53948 53.0135 3.58655 51.7507Z" fill="#F64747"/>
<path opacity="0.6" d="M10.2737 47.8192C10.5411 47.0956 11.3055 45.8509 12.2951 46.3178C13.7614 47.3751 12.6293 50.9429 11.1452 51.2253C10.9065 51.2712 10.783 51.2096 10.6392 51.1416C9.78867 50.5115 9.9195 48.7868 10.2737 47.8192Z" fill="#F64747"/>
<path d="M31.7533 21.152C33.7121 20.2408 36.1261 20.8757 35.608 22.1658C35.1898 23.21 32.6443 24.2221 30.9756 23.345C29.8157 22.5492 30.8392 21.5789 31.7533 21.152Z" fill="#F64747"/>
<path opacity="0.6" d="M5.02896 51.7408C5.16702 50.2499 5.75346 49.2568 6.21065 49.7371C6.98805 50.5548 6.58236 54.7014 5.71952 54.7786C5.6961 54.7798 5.66781 54.7756 5.6447 54.7717C5.08405 54.5111 4.92882 52.845 5.02896 51.7408Z" fill="#F64747"/>
<path opacity="0.6" d="M31.2644 17.0418C33.032 16.5657 34.8567 16.5389 34.5762 16.9947C34.2326 17.5557 31.0754 18.382 29.7917 18.1133C29.2883 17.9389 29.6593 17.6673 30.0544 17.4723C30.2677 17.3706 30.6479 17.2084 31.2644 17.0418Z" fill="#F64747"/>
<path opacity="0.6" d="M29.2286 17.0452C30.5439 16.6778 32.2104 16.3359 32.3908 16.4449C32.2406 16.7552 28.3542 17.7701 27.5129 17.7889C27.4171 17.7859 27.3992 17.7823 27.3642 17.7595C27.4583 17.5679 28.5747 17.2304 29.2286 17.0452Z" fill="#F64747"/>
<path opacity="0.6" d="M15.526 44.2643C15.957 43.5813 16.9932 42.6142 18.1631 43.3276C19.9701 44.8169 18.1653 47.9542 16.517 48.0249C16.2154 48.0386 15.935 47.9549 15.6755 47.7791C14.6088 46.8954 14.9434 45.1902 15.526 44.2643Z" fill="#F64747"/>
<path opacity="0.6" d="M30.7009 26.2957C31.3439 25.8946 32.9025 25.3545 34.2081 26.1872C35.8048 27.501 34.2115 29.538 32.0331 29.718C31.0559 29.799 30.4417 29.4782 30.1627 29.2806C28.9095 28.259 29.7431 26.8938 30.7009 26.2957Z" fill="#F64747"/>
<path opacity="0.6" d="M2.54486 52.2373C2.54349 51.1844 2.704 49.9333 3.00873 49.6864C3.63951 49.5413 3.4233 54.3576 3.11354 54.7364C3.10231 54.7514 3.08044 54.7708 3.06433 54.7803C2.77066 54.8359 2.54794 53.4849 2.54486 52.2373Z" fill="#F64747"/>
<path opacity="0.6" d="M29.6795 16.9137C28.6946 17.1732 27.4909 17.5392 26.5404 17.8759C27.4806 17.5827 28.7286 17.1674 29.6795 16.9137Z" fill="#F64747"/>
<path opacity="0.6" d="M33.6816 17.7573C34.4011 17.5577 35.8747 17.3239 36.8435 17.7015C37.6941 18.15 36.733 18.761 35.7748 19.0505C35.094 19.2549 33.5396 19.5411 32.5175 19.1422C31.6392 18.6791 32.5958 18.1017 33.4518 17.8296C33.5181 17.8049 33.6129 17.7793 33.6816 17.7573Z" fill="#F64747"/>
<path opacity="0.6" d="M6.83959 52.32C7.09538 50.5869 7.90142 49.967 8.37921 50.6741C9.26108 51.9725 8.38559 55.498 7.52226 55.404C7.48881 55.3995 7.44805 55.3868 7.41764 55.3746C6.77111 54.9846 6.691 53.3202 6.83959 52.32Z" fill="#F64747"/>
<path opacity="0.6" d="M2.31385 46.4903C2.31296 46.5058 2.05969 48.016 1.78832 51.1849C1.78622 51.2211 1.78139 51.2597 1.7793 51.2959C1.89916 49.8506 2.10124 47.925 2.31385 46.4903Z" fill="#F64747"/>
<path opacity="0.6" d="M26.0699 37.408C27.6765 35.8593 30.229 36.6993 30.274 38.7921C30.3196 40.9186 27.6422 42.2835 25.9962 40.9695C24.7235 39.7938 25.2758 38.179 26.0699 37.408Z" fill="#F64747"/>
<path opacity="0.6" d="M1.9413 53.1673C1.91028 51.9544 2.02139 50.5709 2.21565 50.5302C2.52906 50.761 2.54512 54.9242 2.3361 55.3996C2.16936 55.5923 2.02574 54.5778 1.97701 53.8955C1.96039 53.6897 1.94669 53.388 1.9413 53.1673Z" fill="#F64747"/>
<path opacity="0.6" d="M35.3472 23.315C37.3206 22.3762 39.8192 23.4309 39.2232 24.9473C38.7428 26.1695 36.3691 26.8128 34.789 25.793C33.5998 24.8322 34.4006 23.766 35.3472 23.315Z" fill="#F64747"/>
<path opacity="0.6" d="M13.1416 49.5306C13.9387 47.8547 15.4122 47.9347 15.8878 49.2174C16.5431 50.9824 14.8861 53.6251 13.5591 52.939C13.5162 52.9184 13.4691 52.8819 13.4265 52.8561C12.5035 52.0896 12.7047 50.4493 13.1416 49.5306Z" fill="#F64747"/>
<path opacity="0.6" d="M30.2003 33.1603C32.0262 31.6761 34.7742 32.7686 34.5304 34.8784C34.3179 36.7152 31.8553 37.9525 30.0125 36.5882C28.6442 35.3161 29.4004 33.809 30.2003 33.1603Z" fill="#F64747"/>
<path opacity="0.6" d="M22.3367 42.0077C23.7453 40.4294 26.1594 41.1965 26.2506 43.2531C26.3347 45.2082 24.0985 46.8813 22.3555 45.585C21.0785 44.3934 21.6658 42.7573 22.3367 42.0077Z" fill="#F64747"/>
<path opacity="0.6" d="M36.6119 19.1043C38.5285 18.5642 40.6533 19.2213 40.11 20.1857C39.6159 21.0622 37.124 21.5509 35.71 20.8001C34.6825 20.0923 35.6182 19.3814 36.6119 19.1043Z" fill="#F64747"/>
<path opacity="0.6" d="M8.94861 53.2949C9.10845 52.5936 9.63292 51.3713 10.4613 51.7564C11.7706 52.7034 10.8651 56.3439 9.75117 56.4585C9.62591 56.472 9.53008 56.4249 9.4519 56.3867C8.74808 55.8663 8.73611 54.2344 8.94861 53.2949Z" fill="#F64747"/>
<path opacity="0.6" d="M34.7279 29.3083C36.6525 28.0452 39.405 29.3739 38.9363 31.3358C38.5358 33.0165 35.9388 33.6625 34.4553 32.4538C33.1551 31.2584 33.833 29.8946 34.7279 29.3083Z" fill="#F64747"/>
<path opacity="0.6" d="M37.214 15.7727L37.2529 15.7723C37.3231 15.7686 37.3958 15.7676 37.466 15.7639C37.4946 15.7629 37.536 15.7654 37.5618 15.7668C37.44 15.8558 33.5411 16.2787 32.8813 16.2976C32.8476 16.2982 32.8062 16.2959 32.7728 16.2913C32.8138 16.2548 32.8247 16.245 33.2959 16.1685C34.4734 16.0317 36.0379 15.8395 37.214 15.7727Z" fill="#F64747"/>
<path opacity="0.6" d="M36.5393 16.0109C37.1914 15.9449 38.6277 15.862 39.3905 16.0357C39.4924 16.0676 39.6807 16.1303 39.4667 16.2424C38.9261 16.5327 36.1229 16.8427 34.9937 16.5933C34.8894 16.5587 34.668 16.4863 34.9038 16.3547C35.0809 16.2508 35.6077 16.1101 36.5393 16.0109Z" fill="#F64747"/>
<path opacity="0.6" d="M3.95474 57.5861C3.83969 56.5707 3.89205 55.4404 4.21699 55.3373C4.96971 55.5053 5.18401 59.9627 4.85374 60.2029C4.8428 60.2126 4.8191 60.219 4.80085 60.2206C4.48394 60.14 4.0891 58.7609 3.95474 57.5861Z" fill="#F64747"/>
<path opacity="0.6" d="M5.12963 57.5838C5.08226 56.7434 5.17466 55.504 5.6396 55.536C6.56681 55.9605 6.44805 60.3026 6.00754 60.386C5.99174 60.3903 5.97135 60.3839 5.9531 60.3855C5.51199 60.1655 5.18905 58.6194 5.12963 57.5838Z" fill="#F64747"/>
<path opacity="0.6" d="M19.0335 46.8863C19.4589 46.3015 20.591 45.4256 21.8242 46.2982C21.8242 46.2982 21.8242 46.2982 21.8267 46.3009C21.8267 46.3009 21.8266 46.3009 21.8291 46.3037C21.8291 46.3037 21.8291 46.3037 21.8315 46.3064C21.8315 46.3064 21.8315 46.3064 21.834 46.3091C21.834 46.3091 21.834 46.3091 21.8364 46.3119C21.8364 46.3119 21.8364 46.3119 21.8388 46.3146C21.8388 46.3146 21.8388 46.3146 21.8413 46.3173C21.8413 46.3173 21.8413 46.3173 21.8437 46.3201C23.6256 47.9739 22.0114 50.6865 20.264 50.7229C19.8641 50.731 19.4982 50.6009 19.1784 50.3464C18.0836 49.321 18.4335 47.71 19.0335 46.8863Z" fill="#F64747"/>
<path opacity="0.6" d="M1.77953 54.6986C1.76153 54.3371 1.75576 54.0333 1.75225 53.8697L1.74298 53.1327C1.7427 52.5544 1.74846 52.2305 1.76827 51.9775C1.76977 51.9517 1.7743 51.9182 1.78097 51.8927C1.86347 51.9908 2.00086 56.4774 1.99846 56.5188C1.99727 56.5394 1.9903 56.5702 1.98394 56.5905C1.90054 56.5079 1.8169 55.5773 1.77953 54.6986Z" fill="#F64747"/>
<path opacity="0.6" d="M3.10955 57.986C2.94311 56.9623 2.90304 55.8164 3.14335 55.6072C3.66715 55.5182 4.17187 60.0209 3.95815 60.3534C3.94965 60.3659 3.93841 60.3808 3.92777 60.3854C3.68456 60.4206 3.29651 59.1482 3.10955 57.986Z" fill="#F64747"/>
<path opacity="0.6" d="M38.7549 16.6653C40.3185 16.4886 42.2933 16.7791 41.9308 17.2638C41.5791 17.7388 38.915 18.0672 37.569 17.5303C36.9395 17.2035 37.5352 16.9475 37.821 16.8499C38.0587 16.7755 38.3998 16.707 38.7549 16.6653Z" fill="#F64747"/>
<path opacity="0.6" d="M6.59898 58.0009C6.60771 57.3116 6.77642 56.0533 7.35309 56.2163C8.31238 56.8033 8.06273 60.7178 7.4648 60.8777C7.43319 60.8863 7.3967 60.8893 7.33587 60.8651C6.8883 60.5773 6.58582 59.1257 6.59898 58.0009Z" fill="#F64747"/>
<path opacity="0.6" d="M39.9317 21.1629C41.7603 20.5736 44.0692 21.5914 43.5124 22.7443C43.0499 23.7005 40.7094 24.0838 39.3769 23.1328C38.209 22.2069 39.0991 21.4337 39.9317 21.1629Z" fill="#F64747"/>
<path opacity="0.6" d="M11.4098 54.7703C11.9055 53.3285 13.0502 52.9953 13.557 54.1424C14.3183 55.8668 12.9283 58.4239 11.894 57.9232C11.8611 57.9084 11.8213 57.8801 11.7912 57.8628C11.1838 57.4231 11.002 55.9474 11.4098 54.7703Z" fill="#F64747"/>
<path opacity="0.6" d="M39.2758 26.2285C39.4469 26.1399 40.989 25.394 42.5601 26.5688C44.0212 27.8955 43.0373 29.4387 41.2632 29.5773C40.9507 29.6007 39.8625 29.6285 38.9836 28.9061C37.6975 27.7373 38.479 26.6441 39.2758 26.2285Z" fill="#F64747"/>
<path opacity="0.6" d="M16.3255 51.8338C17.2383 50.3539 18.8993 50.5563 19.2844 52.1942C19.7504 54.1817 17.8445 55.9724 16.6208 55.204C16.5782 55.1782 16.5237 55.1336 16.4839 55.1054C15.5291 54.2151 15.8164 52.655 16.3255 51.8338Z" fill="#F64747"/>
<path opacity="0.6" d="M2.60861 58.7555C2.40504 57.7012 2.30041 56.4608 2.46838 56.2915C2.80802 56.293 3.45939 60.5915 3.34841 60.8963C3.34021 60.9036 3.33201 60.9109 3.32381 60.9182C3.15317 60.8642 2.81983 59.8569 2.60861 58.7555Z" fill="#F64747"/>
<path opacity="0.6" d="M8.32628 58.8113C8.45926 57.4082 9.06019 56.9268 9.48641 57.4494C10.3343 58.4839 9.82729 61.691 9.08146 61.7179C9.05805 61.7192 9.01121 61.7216 8.93606 61.6758C8.39686 61.2686 8.2357 59.75 8.32628 58.8113Z" fill="#F64747"/>
<path d="M30.3827 40.9999C30.9809 40.4769 32.348 39.8869 33.694 41.0072L33.6964 41.0099L33.6988 41.0127L33.7013 41.0154L33.7037 41.0181L33.7062 41.0209L33.7086 41.0236L33.711 41.0263L33.7135 41.0291C35.4098 42.818 33.884 45.2557 31.7564 45.1404C30.9552 45.0941 30.4923 44.7121 30.2671 44.5253C30.2671 44.5253 30.2671 44.5253 30.2647 44.5226C30.2647 44.5226 30.2647 44.5226 30.2622 44.5198C30.2622 44.5198 30.2622 44.5198 30.2598 44.5171C30.2598 44.5171 30.2598 44.5171 30.2574 44.5144C30.2574 44.5144 30.2574 44.5144 30.2549 44.5116C30.2549 44.5116 30.2549 44.5116 30.2525 44.5089C30.2525 44.5089 30.2525 44.5089 30.2501 44.5062C30.2501 44.5062 30.2501 44.5062 30.2476 44.5034C28.9689 43.1614 29.6506 41.6422 30.3827 40.9999Z" fill="#F64747"/>
<path opacity="0.6" d="M41.4497 17.913C43.2319 17.6789 45.1411 18.3416 44.5896 18.9996C44.0797 19.6106 41.8234 19.7473 40.5484 19.059C39.6998 18.486 40.5064 18.0814 41.2506 17.9481C41.3032 17.9356 41.3868 17.9249 41.4497 17.913Z" fill="#F64747"/>
<path opacity="0.6" d="M34.6473 36.8033C36.4068 35.4813 38.9662 36.7418 38.7372 38.8188C38.5359 40.6406 36.1927 41.7422 34.4335 40.279C33.388 39.2979 33.487 37.675 34.6473 36.8033Z" fill="#F64747"/>
<path opacity="0.6" d="M26.4105 45.4638C27.8509 44.0092 30.2032 44.9491 30.2253 46.9887C30.2439 48.8648 28.022 50.2897 26.3766 48.9213C25.1472 47.6676 25.7441 46.1358 26.4105 45.4638Z" fill="#F64747"/>
<path opacity="0.6" d="M22.8516 50.0223C24.0971 48.6628 26.1524 49.3573 26.2877 51.1883C26.424 53.0478 24.3717 54.6796 22.8148 53.3941C21.7513 52.2771 22.2095 50.7217 22.8516 50.0223Z" fill="#F64747"/>
<path opacity="0.6" d="M2.46438 59.9035C2.26274 58.9505 2.1139 57.8916 2.12961 57.4854C2.13324 57.4674 2.13747 57.4391 2.14627 57.4215C2.34959 57.6277 3.07231 61.4998 3.07103 61.7461C3.07044 61.7565 3.0671 61.7692 3.06377 61.782C3.05343 61.7814 3.04034 61.7832 3.03518 61.7829C2.89513 61.6037 2.65564 60.8119 2.46438 59.9035Z" fill="#F64747"/>
<path opacity="0.6" d="M39.0767 32.9855C40.8294 31.7823 43.5401 33.2953 43.1042 35.2281C42.7836 36.6463 40.6367 37.6269 38.9133 36.171C37.6036 34.8271 38.318 33.5043 39.0767 32.9855Z" fill="#F64747"/>
<path opacity="0.6" d="M42.3584 15.8783C41.0657 15.7646 39.0735 15.7299 38.4586 15.7332C39.6293 15.7594 41.1886 15.7925 42.3584 15.8783Z" fill="#F64747"/>
<path opacity="0.6" d="M6.04991 63.3296C5.84796 62.3817 5.79928 61.4297 6.09726 61.434C6.7504 61.7544 7.34524 65.7747 7.0796 65.8839C7.06896 65.8884 7.0562 65.8851 7.04586 65.8845C6.76141 65.7358 6.27659 64.3878 6.04991 63.3296Z" fill="#F64747"/>
<path opacity="0.6" d="M41.8635 15.8727C43.0497 15.9438 44.4495 16.1337 44.583 16.2451C44.44 16.3873 41.1882 16.2045 40.3414 16.0025C40.2344 15.9704 40.2216 15.9671 40.1845 15.9364C40.1848 15.9312 40.1826 15.9233 40.1829 15.9181C40.3057 15.8137 41.1632 15.8296 41.8635 15.8727Z" fill="#F64747"/>
<path opacity="0.6" d="M5.18732 63.3576C4.92578 62.4089 4.77634 61.3604 5.01464 61.2756C5.25431 61.3465 5.53305 62.1769 5.72438 62.8596C5.98622 63.8032 6.42044 65.6229 6.26976 65.762C6.2643 65.7668 6.25122 65.7687 6.24575 65.7735C6.02705 65.6987 5.50256 64.4988 5.18732 63.3576Z" fill="#F64747"/>
<path opacity="0.6" d="M14.1384 56.7432C14.4263 56.1582 15.1559 55.3369 16.0495 55.9824C17.4356 57.3073 16.1708 59.8949 14.9391 59.9378C14.6506 59.9497 14.4641 59.8118 14.3518 59.7353C13.7313 59.2093 13.6271 57.7821 14.1384 56.7432Z" fill="#F64747"/>
<path opacity="0.6" d="M4.53022 63.5554C4.24685 62.6703 4.03175 61.6361 4.19182 61.469C4.34477 61.4701 4.58399 61.9974 4.96678 63.1813C4.97563 63.2078 5.77509 65.7072 5.62934 65.8959C5.44687 65.8672 4.89929 64.7075 4.53022 63.5554Z" fill="#F64747"/>
<path opacity="0.6" d="M44.5907 19.7934C46.3175 19.5301 48.2654 20.5115 47.6523 21.3371C47.1601 22.001 45.1847 22.0787 43.9156 21.2429C43.0968 20.6484 43.4108 19.9715 44.5907 19.7934Z" fill="#F64747"/>
<path opacity="0.6" d="M7.1301 63.6618C6.94455 62.3855 7.14941 61.7128 7.45403 61.9612C7.99632 62.4049 8.51888 66.1954 8.04488 66.2302C8.03181 66.232 8.01659 66.226 8.00382 66.2226C7.68677 66.0098 7.28043 64.6949 7.1301 63.6618Z" fill="#F64747"/>
<path opacity="0.6" d="M43.6581 23.899C45.4438 23.245 47.8507 24.6756 47.1858 25.9934C46.7495 26.8577 44.911 27.3038 43.356 26.1195C42.2156 25.0759 42.8475 24.1944 43.6581 23.899Z" fill="#F64747"/>
<path d="M10.3067 60.0872C10.5617 58.7716 11.2689 58.4261 11.71 59.004C12.5872 60.1595 11.808 63.0059 10.934 62.8724C10.9109 62.8685 10.8492 62.8598 10.7619 62.8002C10.1837 62.3052 10.1473 60.9157 10.3067 60.0872Z" fill="#F64747"/>
<path opacity="0.6" d="M43.8863 16.454C45.2999 16.5383 46.8693 16.935 46.639 17.1499C46.4006 17.3721 43.8714 17.34 42.6631 16.8423C42.3979 16.7206 42.3679 16.61 42.5774 16.5313C42.795 16.4454 43.2866 16.4193 43.8863 16.454Z" fill="#F64747"/>
<path opacity="0.6" d="M43.4908 29.7608C45.2299 28.7903 47.7979 30.4403 47.2039 32.1461C46.7683 33.402 44.7507 33.8507 43.3592 32.5747C42.0875 31.2901 42.7645 30.1674 43.4908 29.7608Z" fill="#F64747"/>
<path opacity="0.6" d="M19.6938 54.6684C20.7646 53.3274 22.5564 53.8692 22.6913 55.573C22.8228 57.2456 21.0223 58.8738 19.6924 57.7881C18.9471 57.0889 18.9474 55.603 19.6938 54.6684Z" fill="#F64747"/>
<path opacity="0.6" d="M4.1884 64.2176C3.84112 63.2718 3.54684 62.1266 3.67897 61.9942C3.95667 62.0803 5.26355 66.0303 5.21998 66.2456C5.05457 66.236 4.5314 65.1477 4.1884 64.2176Z" fill="#F64747"/>
<path opacity="0.6" d="M8.41792 64.265C8.35255 63.0631 8.66214 62.5079 8.98141 62.8168C9.58586 63.3963 9.75146 66.9017 9.17091 66.8059C9.1554 66.805 9.14048 66.7937 9.12527 66.7877C8.78627 66.5061 8.47393 65.2251 8.41792 64.265Z" fill="#F64747"/>
<path opacity="0.6" d="M46.2413 17.573C47.7395 17.6311 49.3464 18.2297 48.9676 18.5916C48.608 18.9364 46.4624 18.8617 45.3061 18.2295C44.689 17.8229 45.183 17.6674 45.4243 17.6191C45.6265 17.5763 45.9257 17.5599 46.2413 17.573Z" fill="#F64747"/>
<path opacity="0.6" d="M34.79 45.0615C36.3942 43.8238 38.7648 45.1642 38.4691 47.1387C38.2338 48.6967 36.1589 49.9564 34.5346 48.4465C33.595 47.4742 33.715 45.8914 34.79 45.0615Z" fill="#F64747"/>
<path opacity="0.6" d="M2.573 60.8568L2.23736 59.0818C2.23552 59.0687 2.23368 59.0556 2.23184 59.0425C2.23581 59.0635 3.0854 62.7148 3.13155 62.9482C3.13552 62.9692 3.1389 63.0005 3.14287 63.0215C3.14044 63.0188 3.13284 63.0157 3.1304 63.013C2.91198 62.3054 2.72546 61.584 2.573 60.8568Z" fill="#F64747"/>
<path opacity="0.6" d="M30.5766 49.348C32.0388 48.0996 34.2243 49.1439 34.1225 51.0389C34.0192 52.9598 31.6692 53.9546 30.3692 52.6217C29.2959 51.4056 29.8454 49.9748 30.5766 49.348Z" fill="#F64747"/>
<path opacity="0.6" d="M39.0421 41.0386C40.677 39.7639 43.147 41.0892 42.873 43.0936C42.6565 44.6837 40.5409 45.9307 38.8399 44.3568C37.7066 43.0568 38.2789 41.6351 39.0421 41.0386Z" fill="#F64747"/>
<path opacity="0.6" d="M12.5225 61.6732C12.9643 60.4021 13.8746 60.3562 14.2586 61.2497C14.8441 62.6062 13.7914 64.6666 12.9467 64.3844C12.8907 64.3656 12.8259 64.3204 12.7785 64.2891C12.2499 63.8332 12.2206 62.5452 12.5225 61.6732Z" fill="#F64747"/>
<path opacity="0.6" d="M26.6514 53.6833C27.9506 52.4281 30.0076 53.3172 29.9355 55.1024C29.8641 56.9214 27.6561 57.9711 26.4633 56.7585C25.5294 55.6879 26.0199 54.2899 26.6514 53.6833Z" fill="#F64747"/>
<path opacity="0.6" d="M47.7126 27.29C49.2997 26.6167 51.5781 28.1618 51.0516 29.5525C50.6601 30.5828 48.9002 30.8363 47.563 29.6983C46.4456 28.5705 46.9923 27.5933 47.7126 27.29Z" fill="#F64747"/>
<path opacity="0.6" d="M47.9461 22.3109C49.5232 21.9457 51.5854 23.193 51.053 24.1918C50.6461 24.9514 48.9081 25.004 47.6218 24.0168C46.5564 23.0682 47.2311 22.4771 47.9461 22.3109Z" fill="#F64747"/>
<path opacity="0.6" d="M4.07913 65.0803C3.6981 64.1351 3.40639 63.125 3.44693 62.9173C3.69202 62.9392 5.00091 66.7648 4.99608 66.8034C4.99305 66.811 4.99001 66.8186 4.98971 66.8238C4.84249 66.7686 4.40132 65.8769 4.07913 65.0803Z" fill="#F64747"/>
<path opacity="0.6" d="M17.0369 59.2213C17.8961 57.9069 19.2657 58.3491 19.5105 59.6314C19.8031 61.1654 18.233 62.7992 17.1763 62.0587C17.1413 62.0359 17.102 61.9973 17.0673 61.9694C16.3164 61.1869 16.5988 59.891 17.0369 59.2213Z" fill="#F64747"/>
<path opacity="0.6" d="M43.5837 37.1207C45.2358 36.0414 47.6294 37.6113 47.1944 39.4844C46.8798 40.8433 44.9557 41.7823 43.3564 40.2895C42.4046 39.3035 42.511 37.8211 43.5837 37.1207Z" fill="#F64747"/>
<path opacity="0.6" d="M7.2596 68.8711C6.81559 67.8937 6.56271 67.0648 6.68122 66.9886C7.05717 67.1245 8.49563 70.9965 8.47102 71.0184C8.33503 70.9483 7.71244 69.8749 7.2596 68.8711Z" fill="#F64747"/>
<path opacity="0.6" d="M48.9427 19.2464C50.3046 19.2396 52.1605 20.0626 51.6183 20.6044C51.1396 21.0798 49.2216 20.8367 48.3075 20.1848C47.5358 19.5826 48.1759 19.3214 48.6198 19.2693C48.7168 19.2515 48.8442 19.2459 48.9427 19.2464Z" fill="#F64747"/>
<path opacity="0.6" d="M9.88798 65.2162C9.92491 64.443 10.1662 63.723 10.6083 63.9716C11.4802 64.7248 10.9397 67.5695 10.5107 67.5888C10.4924 67.5903 10.4587 67.591 10.3987 67.5512C10.0141 67.2074 9.85469 65.9716 9.88798 65.2162Z" fill="#F64747"/>
<path opacity="0.6" d="M7.77379 68.8158C7.36831 67.755 7.25571 67.0561 7.40656 67.0933C7.70066 67.1648 8.97781 70.8667 8.92176 71.0735C8.91659 71.0732 8.91113 71.0781 8.90596 71.0778C8.74622 70.97 8.17011 69.8553 7.77379 68.8158Z" fill="#F64747"/>
<path opacity="0.6" d="M49.457 17.209C48.1942 16.8922 46.9074 16.6752 45.6477 16.3508C45.5711 16.3308 45.5559 16.3248 45.5358 16.3132C45.5698 16.3074 45.5957 16.3089 45.9217 16.3667C46.9816 16.6043 48.4025 16.9224 49.457 17.209Z" fill="#F64747"/>
<path opacity="0.6" d="M6.8521 69.0136C6.38413 68.0919 6.06889 67.2645 6.13656 67.1258C6.39378 67.1173 8.14062 71.0383 8.13306 71.0793C7.96542 70.9737 7.31763 69.9326 6.8521 69.0136Z" fill="#F64747"/>
<path opacity="0.6" d="M8.45748 69.0541C8.12682 68.0003 8.09363 67.363 8.26367 67.4273C8.64449 67.5686 9.5517 71.0753 9.43999 71.2582C9.43482 71.2579 9.42692 71.26 9.41932 71.257C9.24343 71.1146 8.7488 69.9812 8.45748 69.0541Z" fill="#F64747"/>
<path opacity="0.6" d="M48.8576 17.1305C49.8196 17.3573 51.011 17.7425 51.1793 17.8819C51.1762 17.8895 51.1756 17.8999 51.1753 17.905C50.937 17.9457 48.4867 17.4462 47.6185 17.077C47.505 17.0212 47.4749 17.0039 47.4618 16.9616C47.535 16.8621 48.2615 16.9897 48.8576 17.1305Z" fill="#F64747"/>
<path opacity="0.6" d="M23.1059 57.9539C24.1912 56.8107 25.9073 57.4053 25.9766 58.9419C26.055 60.6373 24.0545 61.8209 22.9232 60.7545C22.9184 60.749 22.9111 60.7408 22.9062 60.7353C22.0986 59.8121 22.537 58.5538 23.1059 57.9539Z" fill="#F64747"/>
<path opacity="0.6" d="M47.858 33.7946C49.3665 32.9119 51.5509 34.423 51.1971 36.1012C50.9178 37.4336 49.0961 37.948 47.6891 36.6271C46.7741 35.6769 46.8515 34.3821 47.858 33.7946Z" fill="#F64747"/>
<path opacity="0.6" d="M6.58597 69.3098C6.11595 68.4683 5.75875 67.6489 5.789 67.4847C5.7969 67.4826 5.80481 67.4805 5.80998 67.4808C6.09387 67.6839 7.89538 71.2423 7.89662 71.2657C7.74815 71.1871 7.07243 70.1808 6.58597 69.3098Z" fill="#F64747"/>
<path opacity="0.6" d="M3.64599 64.5887C3.52823 64.2032 3.53092 64.1567 3.53485 64.1336C3.63922 64.2122 4.98646 67.4643 5.03227 67.6589C5.03167 67.6692 5.03351 67.6823 5.03565 67.6902C5.02774 67.6923 5.01983 67.6945 5.01466 67.6942C5.00492 67.6832 4.9903 67.6668 4.98056 67.6559C4.47329 66.6515 4.02924 65.63 3.64599 64.5887Z" fill="#F64747"/>
<path opacity="0.6" d="M9.24529 69.3777C9.03848 68.4244 9.10117 67.8783 9.28676 67.9875C9.61534 68.1803 10.3064 71.3893 10.0578 71.5616C10.0526 71.5613 10.045 71.5583 10.0374 71.5552C9.84266 71.3806 9.4289 70.239 9.24529 69.3777Z" fill="#F64747"/>
<path opacity="0.6" d="M50.8283 18.0769C51.9217 18.319 53.3942 18.9098 53.1037 19.046C52.8076 19.1871 50.7956 18.7778 49.8835 18.2712C49.6504 18.1306 49.6072 18.027 49.7655 17.9791C49.9318 17.9291 50.3317 17.9652 50.8283 18.0769Z" fill="#F64747"/>
<path opacity="0.6" d="M51.6861 25.4033C53.1777 24.9916 55.1414 26.5081 54.4838 27.5644C54.0549 28.2554 52.6304 28.3131 51.5038 27.3455C51.5038 27.3455 51.5038 27.3455 51.5014 27.3428C51.5014 27.3428 51.5014 27.3428 51.4989 27.34C51.4989 27.34 51.4989 27.34 51.4965 27.3373C51.4965 27.3373 51.4965 27.3373 51.4941 27.3345C51.4941 27.3345 51.4941 27.3345 51.4916 27.3318C50.5949 26.4242 50.8955 25.6221 51.6861 25.4033Z" fill="#F64747"/>
<path opacity="0.6" d="M14.8632 63.6627C15.1133 63.1948 15.7211 62.5505 16.4128 63.1013C17.4224 64.1633 16.3447 66.1627 15.3523 66.1935C15.1236 66.201 14.9873 66.092 14.8954 66.0219C14.3393 65.414 14.5464 64.2538 14.8632 63.6627Z" fill="#F64747"/>
<path opacity="0.6" d="M11.52 66.4106C11.6522 65.7388 11.9998 65.1547 12.4544 65.4558C13.284 66.2662 12.5627 68.6052 11.9769 68.6465C11.9066 68.6503 11.854 68.6187 11.8089 68.5901C11.4215 68.2047 11.3921 67.0541 11.52 66.4106Z" fill="#F64747"/>
<path opacity="0.6" d="M51.9913 21.4688C53.3862 21.3835 55.0885 22.4855 54.5556 23.1368C54.1984 23.5725 52.78 23.5709 51.6258 22.6769C50.8196 21.9535 51.2156 21.5174 51.9913 21.4688Z" fill="#F64747"/>
<path opacity="0.6" d="M19.9749 62.0079C20.8624 61.0115 22.2632 61.3622 22.3928 62.6197C22.535 64.0179 20.8831 65.3176 19.9015 64.5788C19.9015 64.5788 19.8196 64.5145 19.7782 64.468C19.1073 63.6927 19.4981 62.5405 19.9749 62.0079Z" fill="#F64747"/>
<path opacity="0.6" d="M51.7065 31.0575C53.0941 30.3364 55.137 31.8263 54.7396 33.2738C54.4378 34.3663 52.7862 34.6753 51.6369 33.5171C50.6138 32.374 51.0622 31.3911 51.7065 31.0575Z" fill="#F64747"/>
<path opacity="0.6" d="M6.50207 69.8209C6.05466 69.0819 5.67625 68.3157 5.65962 68.1099C5.66752 68.1078 5.68059 68.1059 5.6885 68.1038C5.91737 68.3167 7.73181 71.4272 7.75595 71.5479C7.63552 71.5228 6.99182 70.635 6.50207 69.8209Z" fill="#F64747"/>
<path opacity="0.6" d="M53.0832 19.4859C54.1689 19.6809 55.6824 20.4168 55.3101 20.665C54.9893 20.8772 53.3525 20.5699 52.4908 19.9548C51.9595 19.5454 52.3093 19.4593 52.4814 19.4433C52.6225 19.4256 52.8496 19.4439 53.0832 19.4859Z" fill="#F64747"/>
<path opacity="0.6" d="M10.1671 69.9887C10.06 69.0152 10.2448 68.6447 10.4298 68.8084C10.9353 69.2603 10.9743 71.9959 10.7428 71.9618C10.7352 71.9588 10.7252 71.953 10.7176 71.95C10.5118 71.741 10.2475 70.7065 10.1671 69.9887Z" fill="#F64747"/>
<path opacity="0.6" d="M10.1809 74.0996C9.65406 73.2989 9.30192 72.6613 9.26679 72.5063C9.31575 72.5117 9.31575 72.5117 10.4048 74.2629C10.7916 74.8844 10.7916 74.8844 11.5535 76.015C11.5581 76.0256 11.5581 76.0256 11.5581 76.0256C11.5584 76.0205 10.8438 75.1026 10.1809 74.0996Z" fill="#F64747"/>
<path opacity="0.6" d="M10.365 74.0975C9.89536 73.2949 9.60405 72.6816 9.59601 72.5515C9.73016 72.6085 11.5908 75.9966 11.6069 76.0312C11.5996 76.023 10.9456 75.0906 10.365 74.0975Z" fill="#F64747"/>
<path opacity="0.6" d="M10.0578 74.1703C9.49303 73.3985 9.09466 72.7531 9.03216 72.5783C9.17818 72.6542 11.4933 75.9856 11.5122 76.0178C11.5073 76.0124 10.7715 75.1477 10.0578 74.1703Z" fill="#F64747"/>
<path opacity="0.6" d="M10.6182 74.2105C10.2011 73.3955 9.98432 72.8383 9.98905 72.7115C10.0274 72.7215 10.0502 72.7306 10.2571 73.1445C10.7336 74.0979 11.1703 75.0671 11.6444 76.0177C11.6465 76.0256 11.6465 76.0256 11.6465 76.0256C11.613 75.977 11.0773 75.1058 10.6182 74.2105Z" fill="#F64747"/>
<path opacity="0.6" d="M55.3173 19.4617C54.3353 18.9977 53.3078 18.6479 52.3192 18.2095C52.251 18.1771 52.241 18.1713 52.2161 18.1543C52.2343 18.1527 52.2656 18.1494 52.6741 18.3052C53.469 18.6416 54.5321 19.0921 55.3173 19.4617Z" fill="#F64747"/>
<path opacity="0.6" d="M55.2184 24.2275C56.4584 23.9958 58.1211 25.2459 57.619 26.0364C57.2565 26.6093 55.9145 26.4072 55.1046 25.6576C54.3297 24.8867 54.5867 24.344 55.2184 24.2275Z" fill="#F64747"/>
<path opacity="0.6" d="M5.87939 69.2868C5.75904 69.0361 5.75138 68.989 5.75134 68.9449C5.93445 69.0073 7.7396 71.9643 7.74844 71.9908C7.74297 71.9956 7.73507 71.9978 7.7299 71.9975C7.70008 71.975 7.69521 71.9695 7.64133 71.9146C7.00073 71.0632 6.41362 70.1839 5.87939 69.2868Z" fill="#F64747"/>
<path opacity="0.6" d="M13.2543 67.8511C13.4724 67.3087 13.9068 66.8826 14.3459 67.227C15.063 68.0101 14.1862 69.8552 13.5285 69.882C13.4142 69.8857 13.3597 69.8411 13.2952 69.7907C12.9324 69.3833 13.0393 68.3859 13.2543 67.8511Z" fill="#F64747"/>
<path opacity="0.6" d="M17.2702 65.9025C17.9935 65.0081 19.0872 65.2451 19.1554 66.3071C19.2361 67.5592 17.8181 68.5819 17.12 68.0514C17.095 68.0344 17.0683 68.0044 17.046 67.9849C16.5316 67.3743 16.8705 66.4006 17.2702 65.9025Z" fill="#F64747"/>
<path opacity="0.6" d="M55.3187 28.8601C56.5733 28.331 58.3618 29.827 57.8716 30.9941C57.5528 31.7537 56.2895 31.8493 55.2666 30.8825C54.4161 29.9386 54.6619 29.1411 55.3187 28.8601Z" fill="#F64747"/>
<path opacity="0.6" d="M11.1825 70.7711C11.2017 70.1706 11.3678 69.6304 11.6456 69.8046C12.1591 70.3426 11.8015 72.4899 11.5431 72.5191C11.5249 72.5206 11.5048 72.5091 11.4871 72.5003C11.2993 72.2949 11.1652 71.3847 11.1825 70.7711Z" fill="#F64747"/>
<path opacity="0.6" d="M9.99016 74.3041C9.39528 73.5591 8.98632 72.9623 8.90616 72.7788C8.90189 72.7629 8.90189 72.763 8.90189 72.763C9.02694 72.8428 11.4218 75.9609 11.4434 75.9907C11.4045 75.947 10.6843 75.1714 9.99016 74.3041Z" fill="#F64747"/>
<path opacity="0.6" d="M55.6328 21.368C56.04 21.4123 56.8712 21.6575 57.5014 22.1503C58.0985 22.6776 57.6897 22.8406 57.3544 22.855C56.9384 22.8724 56.0467 22.686 55.2997 22.106C54.7053 21.5763 55.0362 21.3698 55.405 21.36C55.4728 21.3536 55.5631 21.3614 55.6328 21.368Z" fill="#F64747"/>
<path opacity="0.6" d="M55.0266 19.3773C55.7935 19.7043 56.7527 20.2032 56.8963 20.3204C56.8908 20.3253 56.8829 20.3274 56.8775 20.3323C56.6935 20.2854 54.8416 19.5715 54.1537 19.179C54.0561 19.1189 54.0387 19.1049 54.0174 19.07C54.0918 18.9939 54.7455 19.2599 55.0266 19.3773Z" fill="#F64747"/>
<path opacity="0.6" d="M10.8762 74.3188C10.593 73.6541 10.4176 73.0994 10.4595 73.0033C10.6381 73.0992 11.6897 75.9919 11.6958 76.0208C11.6486 75.9402 11.2187 75.1218 10.8762 74.3188Z" fill="#F64747"/>
<path opacity="0.6" d="M9.93272 74.4436C9.36104 73.7907 8.96857 73.2675 8.87535 73.0858C8.86864 73.0673 8.86864 73.0673 8.86864 73.0673C8.90666 73.0824 8.90665 73.0824 10.1125 74.5188C10.2726 74.7096 10.2726 74.7096 11.3919 75.9828C11.3992 75.991 11.3993 75.991 11.3993 75.991C11.357 75.96 10.6454 75.2602 9.93272 74.4436Z" fill="#F64747"/>
<path opacity="0.6" d="M11.1866 74.5078C10.996 73.9029 10.9067 73.4284 10.9748 73.3727C10.9799 73.373 10.9875 73.376 10.99 73.3787C11.1881 73.5847 11.7656 76.022 11.7671 76.0403C11.725 75.9601 11.4038 75.192 11.1866 74.5078Z" fill="#F64747"/>
<path opacity="0.6" d="M56.8669 20.519C57.5534 20.7999 58.6289 21.3963 58.6087 21.5222C58.4953 21.5987 57.0213 21.0778 56.2634 20.5516C56.1815 20.4872 55.9877 20.3412 56.119 20.3124C56.2002 20.299 56.4362 20.3437 56.8669 20.519Z" fill="#F64747"/>
<path opacity="0.6" d="M58.4506 27.262C59.4683 26.9292 60.9567 28.1874 60.5769 29.0602C60.3287 29.6293 59.2986 29.6398 58.4555 28.8364C57.8486 28.21 57.8478 27.4605 58.4506 27.262Z" fill="#F64747"/>
<path opacity="0.6" d="M15.0202 69.5195C15.2437 69.1979 15.7385 68.7571 16.188 69.1461C16.841 69.9178 15.729 71.3447 15.0463 71.2663C14.9304 71.2518 14.8759 71.2072 14.8166 71.1571C14.4723 70.743 14.7342 69.936 15.0202 69.5195Z" fill="#F64747"/>
<path opacity="0.6" d="M12.2646 71.6555C12.4384 70.9368 12.783 70.7623 12.9661 71.0944C13.3018 71.7025 12.6751 73.2119 12.3737 73.1763C12.3558 73.1727 12.3333 73.1584 12.3156 73.1496C12.1166 72.9151 12.1547 72.1211 12.2646 71.6555Z" fill="#F64747"/>
<path opacity="0.6" d="M58.4125 23.702C59.3746 23.7032 60.6864 24.7411 60.2876 25.1797C60.0024 25.4925 58.9867 25.299 58.3001 24.6602C57.6226 23.9986 57.9561 23.7015 58.4125 23.702Z" fill="#F64747"/>
<path opacity="0.6" d="M9.0939 73.7045C8.98034 73.5605 8.94685 73.5119 8.92613 73.4666C8.99363 73.4653 11.3323 75.9864 11.3542 76.011C11.3268 75.9912 11.3119 75.98 11.1789 75.8582C10.4411 75.162 9.74352 74.4449 9.0939 73.7045Z" fill="#F64747"/>
<path opacity="0.6" d="M58.8837 22.0123C59.6131 22.2697 60.7029 22.9758 60.4753 23.1001C60.3066 23.1915 59.2621 22.8666 58.5479 22.3015C58.2461 22.0506 58.2712 21.9302 58.4302 21.916C58.498 21.9096 58.6321 21.9225 58.8837 22.0123Z" fill="#F64747"/>
<path opacity="0.6" d="M11.5341 74.7768C11.4172 74.1062 11.4583 73.7999 11.5362 73.8433C11.7318 73.9584 11.8555 76.035 11.8543 76.0557C11.8516 76.0581 11.8516 76.0581 11.8516 76.0581C11.8254 76.0177 11.6316 75.3322 11.5341 74.7768Z" fill="#F64747"/>
<path opacity="0.6" d="M13.3503 72.7033C13.5421 72.3461 13.8623 72.056 14.1127 72.2546C14.5435 72.7878 13.586 74.0084 13.2274 73.9306C13.2019 73.9239 13.1766 73.9121 13.1596 73.893C12.9955 73.6812 13.1588 73.0553 13.3503 72.7033Z" fill="#F64747"/>
<path opacity="0.6" d="M61.1274 26.2654C61.9467 26.1338 63.1257 27.2263 62.7395 27.7616C62.5419 28.0406 61.8611 28.0635 61.1538 27.3794C60.6671 26.8715 60.6537 26.3391 61.1274 26.2654Z" fill="#F64747"/>
<path opacity="0.6" d="M60.9683 22.8669C60.542 22.57 60.096 22.3004 59.6752 21.9986C59.6055 21.9479 59.5906 21.9366 59.5735 21.9175C59.5866 21.9157 59.5918 21.916 59.6922 21.9736C60.0759 22.2448 60.5925 22.5936 60.9683 22.8669Z" fill="#F64747"/>
<path opacity="0.6" d="M11.8996 75.094C11.9112 74.5346 12.0217 74.3283 12.0957 74.3948C12.2905 74.5695 11.9918 76.0563 11.97 76.1199L11.9673 76.1223C11.9414 76.0767 11.8891 75.5006 11.8996 75.094Z" fill="#F64747"/>
<path opacity="0.6" d="M61.0613 23.8628C61.703 24.0218 62.7568 24.814 62.4356 24.9874C62.2453 25.0931 61.5562 24.9028 60.9566 24.3728C60.6368 24.0742 60.5933 23.8383 60.8582 23.8329C60.9047 23.8356 60.9847 23.8428 61.0613 23.8628Z" fill="#F64747"/>
<path opacity="0.6" d="M61.6762 23.4083C61.8256 23.5155 61.9598 23.6167 62.0392 23.6783L62.7428 24.248C62.7477 24.2535 62.7525 24.2589 62.7601 24.262C62.7373 24.2529 61.7749 23.6293 61.3638 23.2943C61.2798 23.2221 61.2281 23.175 61.222 23.1461C61.2688 23.1436 61.4194 23.2301 61.6762 23.4083Z" fill="#F64747"/>
<path opacity="0.6" d="M63.2176 25.9038C63.3675 25.9125 63.7522 26.0307 64.1522 26.4246C64.5747 26.8769 64.4095 27.0878 64.1334 27.0641C64.0379 27.056 63.6964 26.9973 63.2666 26.5809C62.9169 26.2158 62.8919 25.885 63.2176 25.9038Z" fill="#F64747"/>
<path opacity="0.6" d="M63.2212 24.7239C63.5234 24.9255 64.1089 25.4287 64.1309 25.4974C64.0877 25.526 63.5014 25.1706 63.1219 24.827C62.9545 24.6721 62.9301 24.6007 62.9767 24.6034C62.9873 24.5988 63.049 24.6076 63.2212 24.7239Z" fill="#F64747"/>
<path opacity="0.6" d="M64.7428 26.1685C64.984 26.3017 65.5641 26.8539 65.4589 26.879C65.4009 26.8964 65.1186 26.7555 64.8072 26.4445C64.6383 26.2714 64.5661 26.1297 64.6439 26.1291C64.6594 26.13 64.6877 26.1342 64.7428 26.1685Z" fill="#F64747"/>
<path opacity="0.6" d="M12.055 75.2081C12.2026 74.7628 12.3673 74.6504 12.4203 74.765C12.5285 75.0021 11.9812 75.9014 11.9007 75.9486L11.8955 75.9483C11.8772 75.9058 11.9728 75.4627 12.055 75.2081Z" fill="#F64747"/>
<g filter="url(#filter0_f_818_58076)">
<ellipse cx="40.045" cy="55" rx="41.0425" ry="39.5" fill="url(#paint0_radial_818_58076)" fill-opacity="0.1"/>
</g>
<g filter="url(#filter1_f_818_58076)">
<rect width="79" height="23" transform="translate(-1 55.5)" fill="url(#paint1_linear_818_58076)"/>
</g>
<g filter="url(#filter2_f_818_58076)">
<ellipse cx="41.2378" cy="78" rx="46.2378" ry="44.5" fill="url(#paint2_radial_818_58076)" fill-opacity="0.5"/>
</g>
<defs>
<filter id="filter0_f_818_58076" x="-5.40481" y="11.0927" width="90.8995" height="87.8145" filterUnits="userSpaceOnUse" color-interpolation-filters="sRGB">
<feFlood flood-opacity="0" result="BackgroundImageFix"/>
<feBlend mode="normal" in="SourceGraphic" in2="BackgroundImageFix" result="shape"/>
<feGaussianBlur stdDeviation="2.20363" result="effect1_foregroundBlur_818_58076"/>
</filter>
<filter id="filter1_f_818_58076" x="-14.7423" y="41.7577" width="106.485" height="50.4846" filterUnits="userSpaceOnUse" color-interpolation-filters="sRGB">
<feFlood flood-opacity="0" result="BackgroundImageFix"/>
<feBlend mode="normal" in="SourceGraphic" in2="BackgroundImageFix" result="shape"/>
<feGaussianBlur stdDeviation="6.87115" result="effect1_foregroundBlur_818_58076"/>
</filter>
<filter id="filter2_f_818_58076" x="-9.96513" y="28.5349" width="102.406" height="98.9303" filterUnits="userSpaceOnUse" color-interpolation-filters="sRGB">
<feFlood flood-opacity="0" result="BackgroundImageFix"/>
<feBlend mode="normal" in="SourceGraphic" in2="BackgroundImageFix" result="shape"/>
<feGaussianBlur stdDeviation="2.48257" result="effect1_foregroundBlur_818_58076"/>
</filter>
<radialGradient id="paint0_radial_818_58076" cx="0" cy="0" r="1" gradientUnits="userSpaceOnUse" gradientTransform="translate(40.045 55) rotate(90) scale(176.837 183.743)">
<stop stop-color="white" stop-opacity="0"/>
<stop offset="1" stop-color="white" stop-opacity="0.85"/>
</radialGradient>
<linearGradient id="paint1_linear_818_58076" x1="39.5" y1="15.881" x2="39.5" y2="47.6429" gradientUnits="userSpaceOnUse">
<stop stop-color="#080707" stop-opacity="0.5"/>
<stop offset="1" stop-color="#080707"/>
</linearGradient>
<radialGradient id="paint2_radial_818_58076" cx="0" cy="0" r="1" gradientUnits="userSpaceOnUse" gradientTransform="translate(41.2378 160.039) scale(48.4028 126.538)">
<stop/>
<stop offset="0.678" stop-color="#030303"/>
<stop offset="1" stop-color="#050505" stop-opacity="0.2"/>
</radialGradient>
</defs>
</svg>
