<svg width="61" height="55" viewBox="0 0 61 55" fill="none" xmlns="http://www.w3.org/2000/svg">
<g clip-path="url(#clip0_818_57448)">
<path d="M3.64795 27.8386L7.54327 29.971H53.1151L57.1317 27.8386H3.64795Z" fill="#808080"/>
<path d="M57.0181 2.15332H3.76142C2.86432 2.15332 2.13708 2.8799 2.13708 3.77618V26.2155C2.13708 27.1117 2.86432 27.8383 3.76142 27.8383H57.0181C57.9152 27.8383 58.6424 27.1117 58.6424 26.2155V3.77618C58.6424 2.8799 57.9152 2.15332 57.0181 2.15332Z" fill="#999999"/>
<path d="M56.7719 3.06104H3.99636C3.48829 3.06104 3.07642 3.47253 3.07642 3.98014V25.9118C3.07642 26.4194 3.48829 26.8309 3.99636 26.8309H56.7719C57.2799 26.8309 57.6918 26.4194 57.6918 25.9118V3.98014C57.6918 3.47253 57.2799 3.06104 56.7719 3.06104Z" fill="#4F4F4F"/>
<path d="M57.253 26.0153V4.09137C57.253 3.76005 56.9842 3.49146 56.6525 3.49146L4.12337 3.49146C3.79175 3.49146 3.52291 3.76005 3.52291 4.09137V26.0153C3.52291 26.3467 3.79175 26.6153 4.12337 26.6153L56.6525 26.6153C56.9842 26.6153 57.253 26.3467 57.253 26.0153Z" fill="#EBEBEB"/>
<path style="mix-blend-mode:color" d="M57.1374 2.06299H3.64793C3.22341 2.0635 2.81643 2.23221 2.51625 2.53212C2.21607 2.83202 2.0472 3.23864 2.04669 3.66277V26.3328C2.04687 26.6259 2.12777 26.9134 2.28052 27.1637C2.43327 27.414 2.65199 27.6174 2.91275 27.7518L7.55096 30.0381H27.3066V29.9746V54.7405L27.2893 54.7597C27.2893 54.7597 27.2893 54.7597 27.2778 54.7597L27.22 54.829L25.7285 56.4057V60.4244L24.4737 62.0453V63.2278H36.3002V62.0453L35.0473 60.4244V56.4095L33.4653 54.7117V30.0342H53.2075L57.5666 27.8711C57.8998 27.7741 58.1925 27.5717 58.4007 27.2943C58.609 27.0169 58.7215 26.6795 58.7214 26.3328V3.66277C58.7214 3.24146 58.5551 2.83716 58.2585 2.53763C57.962 2.2381 57.5591 2.06755 57.1374 2.06299ZM58.5578 3.66277V3.77814C58.4519 3.41275 58.2552 3.08008 57.986 2.81111C57.7168 2.54214 57.3838 2.34563 57.0181 2.23989H57.1336C57.5105 2.24091 57.8715 2.39133 58.1375 2.65812C58.4034 2.9249 58.5525 3.28624 58.552 3.66277H58.5578ZM27.3759 55.3674L27.3856 55.3789L27.3759 55.3674ZM24.6565 62.2357H25.5899H24.6565ZM3.64793 2.24373H3.76341C3.39752 2.34915 3.06437 2.54555 2.79511 2.81457C2.52584 3.08359 2.32926 3.41644 2.22375 3.78199V3.66662C2.2235 3.47969 2.26016 3.29455 2.33164 3.1218C2.40313 2.94906 2.50802 2.7921 2.64032 2.65992C2.77262 2.52775 2.92972 2.42295 3.10262 2.35153C3.27552 2.28011 3.46084 2.24348 3.64793 2.24373ZM2.2276 26.3328V26.2174C2.33311 26.583 2.52969 26.9158 2.79895 27.1848C3.06822 27.4539 3.40137 27.6503 3.76726 27.7557H3.65178C3.56778 27.7553 3.48401 27.7469 3.40159 27.7307C3.32431 27.7157 3.24836 27.6945 3.17449 27.6672C2.89781 27.5701 2.65813 27.3896 2.48853 27.1505C2.31892 26.9115 2.22775 26.6258 2.2276 26.3328ZM57.5743 27.6788C57.5113 27.6999 57.447 27.7172 57.3819 27.7307H57.3588C57.2857 27.7435 57.2117 27.7506 57.1374 27.7518H57.0201C57.3859 27.6463 57.7189 27.4498 57.9881 27.1808C58.2574 26.9118 58.454 26.5791 58.5597 26.2136V26.329C58.5595 26.6292 58.464 26.9216 58.2869 27.1641C58.1099 27.4066 57.8604 27.5868 57.5743 27.6788Z" fill="url(#paint0_linear_818_57448)"/>
<path d="M33.4652 55.0016C33.4652 55.0016 32.6087 55.715 30.4802 55.5785C27.5702 55.6535 27.3046 54.8978 27.3046 54.8978V29.132C27.3046 29.132 27.3508 28.1226 30.3839 28.1226C33.5075 28.1226 33.4632 29.132 33.4632 29.132L33.4652 55.0016Z" fill="#4D4D4D"/>
<path d="M33.4652 55.3673C33.4652 55.3673 32.6087 56.0864 30.4802 55.9576C27.5702 56.0326 27.3046 55.2712 27.3046 55.2712V29.2516C27.3046 29.2516 27.3508 28.2363 30.3839 28.2363C33.5075 28.2363 33.4632 29.2516 33.4632 29.2516L33.4652 55.3673Z" fill="url(#paint1_linear_818_57448)"/>
<path d="M33.5096 54.8118C33.5346 54.831 33.5577 54.8522 33.5596 54.8541C33.5615 54.856 33.5943 54.9002 33.6116 54.9214L33.7309 55.0598L34.0504 55.4444L34.7182 56.2327L34.9107 56.4519L25.8998 56.4808C25.8998 56.4808 27.3144 54.7272 27.2855 54.7695C27.3144 54.7272 27.3356 54.9752 27.3375 55.0175C27.3471 55.1579 27.2932 55.3598 27.4722 55.4463C27.5511 55.4848 27.5992 55.5232 27.6781 55.5636C28.0424 55.7256 28.4344 55.8164 28.8329 55.8309C29.3102 55.877 29.7952 55.9097 30.2705 55.927C30.9936 55.9767 31.7201 55.9275 32.4299 55.7809C32.7379 55.7307 33.0336 55.6231 33.3017 55.4636C33.3404 55.4393 33.3749 55.4087 33.4037 55.3732C33.4493 55.2956 33.4676 55.2049 33.4557 55.1156C33.4557 55.0079 33.4557 54.8983 33.4557 54.7887C33.4518 54.7695 33.4807 54.7906 33.5096 54.8118Z" fill="#CCCCCC"/>
<path style="mix-blend-mode:lighten" opacity="0.5" d="M58.6271 5.35864H57.7706V26.2135H58.6271V5.35864Z" fill="url(#paint2_linear_818_57448)"/>
<path style="mix-blend-mode:lighten" opacity="0.5" d="M51.0693 27.7539V27.0847L7.32001 27.0847V27.7539L51.0693 27.7539Z" fill="url(#paint3_linear_818_57448)"/>
<path style="mix-blend-mode:multiply" d="M29.0483 27.844L55.8748 27.9574L52.0584 29.836L33.4902 29.8918L33.469 28.8919C33.469 28.8919 31.4405 28.1228 29.2754 28.5266C27.1103 28.9304 29.0483 27.844 29.0483 27.844Z" fill="url(#paint4_linear_818_57448)"/>
<path style="mix-blend-mode:multiply" opacity="0.6" d="M29.5141 55.9445L32.8321 56.3598L34.9048 56.4444C34.6681 56.1675 34.4333 55.8887 34.1966 55.6099L33.7135 55.0331C33.6421 54.93 33.5558 54.838 33.4575 54.76V55.1196C33.4614 55.1567 33.4614 55.194 33.4575 55.2311C33.3921 55.5464 32.9956 55.5695 32.7474 55.6407C32.4568 55.7253 32.1604 55.7945 31.8621 55.8522C31.09 56.0133 30.2964 56.0445 29.5141 55.9445Z" fill="url(#paint5_linear_818_57448)"/>
<path d="M56.9007 26.9792H3.8769C3.6438 26.9787 3.42038 26.8859 3.25554 26.7213C3.09071 26.5566 2.99788 26.3334 2.99738 26.1005V3.89191C2.99788 3.65901 3.09071 3.4358 3.25554 3.27112C3.42038 3.10643 3.6438 3.01369 3.8769 3.01318H56.9007C57.1341 3.01318 57.358 3.1057 57.5233 3.27044C57.6885 3.43518 57.7816 3.65868 57.7821 3.89191V26.1005C57.7816 26.3337 57.6885 26.5572 57.5233 26.7219C57.358 26.8867 57.1341 26.9792 56.9007 26.9792ZM3.8769 3.19201C3.69127 3.19251 3.51337 3.26642 3.38211 3.39756C3.25084 3.52871 3.17687 3.70644 3.17636 3.89191V26.1005C3.17687 26.2859 3.25084 26.4637 3.38211 26.5948C3.51337 26.726 3.69127 26.7999 3.8769 26.8004H56.9007C57.0863 26.7999 57.2642 26.726 57.3955 26.5948C57.5267 26.4637 57.6007 26.2859 57.6012 26.1005V3.89191C57.6007 3.70644 57.5267 3.52871 57.3955 3.39756C57.2642 3.26642 57.0863 3.19251 56.9007 3.19201H3.8769Z" fill="#CCCCCC"/>
<path d="M56.7872 26.7575H3.99052C3.85286 26.757 3.72099 26.7021 3.62365 26.6049C3.5263 26.5076 3.47139 26.3759 3.47089 26.2383V4.00671C3.47139 3.86918 3.5263 3.73742 3.62365 3.64017C3.72099 3.54291 3.85286 3.48806 3.99052 3.48755H56.7872C56.8554 3.48755 56.923 3.50098 56.986 3.52707C57.0491 3.55316 57.1064 3.5914 57.1546 3.63961C57.2029 3.68782 57.2412 3.74505 57.2673 3.80804C57.2934 3.87102 57.3068 3.93853 57.3068 4.00671V26.2383C57.3068 26.376 57.2521 26.5081 57.1546 26.6054C57.0572 26.7028 56.925 26.7575 56.7872 26.7575ZM3.99052 3.66637C3.94588 3.66637 3.90167 3.67519 3.86045 3.69231C3.81923 3.70944 3.7818 3.73454 3.75032 3.76617C3.71884 3.7978 3.69394 3.83533 3.67703 3.87661C3.66012 3.91789 3.65154 3.96211 3.6518 4.00671V26.2383C3.65154 26.2829 3.66012 26.3272 3.67703 26.3684C3.69394 26.4097 3.71884 26.4472 3.75032 26.4789C3.7818 26.5105 3.81923 26.5356 3.86045 26.5527C3.90167 26.5699 3.94588 26.5787 3.99052 26.5787H56.7872C56.8318 26.5787 56.876 26.5699 56.9173 26.5527C56.9585 26.5356 56.9959 26.5105 57.0274 26.4789C57.0589 26.4472 57.0838 26.4097 57.1007 26.3684C57.1176 26.3272 57.1262 26.2829 57.1259 26.2383V4.00671C57.1262 3.96211 57.1176 3.91789 57.1007 3.87661C57.0838 3.83533 57.0589 3.7978 57.0274 3.76617C56.9959 3.73454 56.9585 3.70944 56.9173 3.69231C56.876 3.67519 56.8318 3.66637 56.7872 3.66637H3.99052Z" fill="#808080"/>
<path d="M27.3085 30.034H7.54897L2.91077 27.7478L3.62863 27.7574L7.59324 29.8533H27.3085V30.034Z" fill="#B3B3B3"/>
<path d="M53.2073 30.0342L53.165 29.8631L57.1508 27.7576L58.09 27.6057L53.2073 30.0342Z" fill="#B3B3B3"/>
<path d="M53.2075 29.8535H33.4691V30.0343H53.2075V29.8535Z" fill="#B3B3B3"/>
<path d="M25.8535 56.5269L25.7303 56.4077L27.3316 54.7156L27.3431 54.7733L25.8535 56.5269Z" fill="#CCCCCC"/>
<path d="M34.9241 56.5268L33.4518 54.7828L33.4691 54.7117L35.0492 56.4076L34.9241 56.5268Z" fill="#999999"/>
<path d="M27.3547 55.3289L27.3104 55.2616V29.1248H27.3547V55.3289Z" fill="#B3B3B3"/>
<path d="M33.469 55.2618H33.4575L33.4229 29.0884H33.4633L33.469 55.2618Z" fill="#666666"/>
<path d="M57.1374 27.9287H3.64793C3.22341 27.9282 2.81643 27.7595 2.51625 27.4596C2.21607 27.1597 2.0472 26.7531 2.04669 26.329V3.66277C2.0472 3.23864 2.21607 2.83202 2.51625 2.53212C2.81643 2.23221 3.22341 2.0635 3.64793 2.06299H57.1374C57.5618 2.0635 57.9686 2.23227 58.2684 2.53223C58.5683 2.8322 58.7368 3.23882 58.7368 3.66277V26.3328C58.7357 26.7561 58.5669 27.1617 58.2671 27.4609C57.9673 27.76 57.5611 27.9282 57.1374 27.9287ZM3.64793 2.24373C3.27139 2.24424 2.91042 2.39391 2.64417 2.65992C2.37792 2.92593 2.22811 3.28658 2.2276 3.66277V26.3328C2.22811 26.709 2.37792 27.0696 2.64417 27.3357C2.91042 27.6017 3.27139 27.7513 3.64793 27.7518H57.1374C57.514 27.7513 57.875 27.6017 58.1412 27.3357C58.4075 27.0696 58.5573 26.709 58.5578 26.3328V3.66277C58.5573 3.28658 58.4075 2.92593 58.1412 2.65992C57.875 2.39391 57.514 2.24424 57.1374 2.24373H3.64793Z" fill="#808080"/>
<path d="M57.1374 27.7479H3.64786C3.48482 27.7464 3.3233 27.7164 3.17056 27.6594C3.15132 27.7171 3.12823 27.7729 3.10706 27.8286C3.28008 27.8933 3.46312 27.9272 3.64786 27.9286H57.1374C57.3619 27.9281 57.5837 27.8796 57.7879 27.7863C57.7167 27.7498 57.6493 27.7094 57.58 27.671C57.4375 27.7201 57.2881 27.7461 57.1374 27.7479Z" fill="#4D4D4D"/>
<path d="M57.2722 26.1496V4.22565C57.2722 3.89432 57.0033 3.62573 56.6717 3.62573L4.14254 3.62573C3.81091 3.62573 3.54208 3.89432 3.54208 4.22565V26.1496C3.54208 26.481 3.81091 26.7495 4.14254 26.7495L56.6717 26.7495C57.0033 26.7495 57.2722 26.481 57.2722 26.1496Z" fill="#EAEAEA"/>
<g style="mix-blend-mode:multiply" opacity="0.22">
<path d="M27.3221 30.3709V29.0249C27.489 28.7914 27.7244 28.6153 27.9957 28.5211C28.7122 28.3276 29.4513 28.2306 30.1935 28.2327C30.9496 28.2437 31.7042 28.3022 32.453 28.4077C32.755 28.4755 33.0416 28.5994 33.2979 28.773C33.3646 28.8121 33.4207 28.8669 33.4615 28.9326L33.4807 30.4343C33.4807 30.4343 30.8479 28.8557 27.3221 30.3709Z" fill="#2B0F00"/>
</g>
<circle cx="14" cy="10.5" r="3" fill="#F64747"/>
<circle cx="26" cy="19.5" r="2" fill="#F64747"/>
<circle cx="43" cy="12.5" r="6" fill="#F64747"/>
</g>
<defs>
<linearGradient id="paint0_linear_818_57448" x1="30.3898" y1="58.9476" x2="30.3898" y2="-41.6331" gradientUnits="userSpaceOnUse">
<stop stop-color="#C9C9C9"/>
<stop offset="0.04" stop-color="#D6D6D6"/>
<stop offset="0.1" stop-color="#CDCDCD"/>
<stop offset="0.16" stop-color="#C7C7C7"/>
<stop offset="0.22" stop-color="#DBDADA"/>
<stop offset="0.32" stop-color="#D9CECE"/>
<stop offset="0.73" stop-color="#DED2D2"/>
<stop offset="0.9" stop-color="#D2CBCA"/>
<stop offset="1" stop-color="#C39E9B"/>
</linearGradient>
<linearGradient id="paint1_linear_818_57448" x1="27.3085" y1="42.0998" x2="33.469" y2="42.0998" gradientUnits="userSpaceOnUse">
<stop stop-color="#D8D8D8"/>
<stop offset="0.12" stop-color="#999999"/>
<stop offset="0.54" stop-color="#C7C7C7"/>
<stop offset="0.86" stop-color="#B3B3B3"/>
<stop offset="1" stop-color="#CCCCCC"/>
</linearGradient>
<linearGradient id="paint2_linear_818_57448" x1="58.1998" y1="6.03355" x2="58.1998" y2="25.8386" gradientUnits="userSpaceOnUse">
<stop/>
<stop offset="0.01" stop-color="#090909"/>
<stop offset="0.04" stop-color="#3C3C3C"/>
<stop offset="0.09" stop-color="#6B6B6B"/>
<stop offset="0.13" stop-color="#939393"/>
<stop offset="0.17" stop-color="#B4B4B4"/>
<stop offset="0.22" stop-color="#D0D0D0"/>
<stop offset="0.27" stop-color="#E5E5E5"/>
<stop offset="0.33" stop-color="#F4F4F4"/>
<stop offset="0.4" stop-color="#FCFCFC"/>
<stop offset="0.5" stop-color="white"/>
<stop offset="1"/>
</linearGradient>
<linearGradient id="paint3_linear_818_57448" x1="49.6528" y1="27.4193" x2="8.10523" y2="27.4193" gradientUnits="userSpaceOnUse">
<stop/>
<stop offset="0.01" stop-color="#090909"/>
<stop offset="0.04" stop-color="#3C3C3C"/>
<stop offset="0.09" stop-color="#6B6B6B"/>
<stop offset="0.13" stop-color="#939393"/>
<stop offset="0.17" stop-color="#B4B4B4"/>
<stop offset="0.22" stop-color="#D0D0D0"/>
<stop offset="0.27" stop-color="#E5E5E5"/>
<stop offset="0.33" stop-color="#F4F4F4"/>
<stop offset="0.4" stop-color="#FCFCFC"/>
<stop offset="0.5" stop-color="white"/>
<stop offset="1"/>
</linearGradient>
<linearGradient id="paint4_linear_818_57448" x1="72.736" y1="28.8669" x2="29.5448" y2="28.8669" gradientUnits="userSpaceOnUse">
<stop/>
<stop offset="0.2" stop-color="#444444"/>
<stop offset="0.42" stop-color="#868686"/>
<stop offset="0.61" stop-color="#BABABA"/>
<stop offset="0.78" stop-color="#E0E0E0"/>
<stop offset="0.91" stop-color="#F7F7F7"/>
<stop offset="1" stop-color="white"/>
</linearGradient>
<linearGradient id="paint5_linear_818_57448" x1="32.5472" y1="60.6977" x2="31.8249" y2="51.0643" gradientUnits="userSpaceOnUse">
<stop/>
<stop offset="0.2" stop-color="#444444"/>
<stop offset="0.42" stop-color="#868686"/>
<stop offset="0.61" stop-color="#BABABA"/>
<stop offset="0.78" stop-color="#E0E0E0"/>
<stop offset="0.91" stop-color="#F7F7F7"/>
<stop offset="1" stop-color="white"/>
</linearGradient>
<clipPath id="clip0_818_57448">
<rect width="56.6843" height="61.1648" fill="white" transform="translate(2.04669 2.06299)"/>
</clipPath>
</defs>
</svg>
